<?xml version="1.0" standalone="no"?>
<!DOCTYPE svg PUBLIC "-//W3C//DTD SVG 1.1//EN" "http://www.w3.org/Graphics/SVG/1.1/DTD/svg11.dtd" >
<svg xmlns="http://www.w3.org/2000/svg">
<metadata></metadata>
<defs>
<font id="helveticaneue-boldregular" horiz-adv-x="1138" >
<font-face units-per-em="2048" ascent="1638" descent="-410" />
<missing-glyph horiz-adv-x="569" />
<glyph horiz-adv-x="0" />
<glyph unicode="&#xd;" horiz-adv-x="569" />
<glyph unicode=" "  horiz-adv-x="569" />
<glyph unicode="&#x09;" horiz-adv-x="569" />
<glyph unicode="&#xa0;" horiz-adv-x="569" />
<glyph unicode="!" horiz-adv-x="569" d="M125 0v315h321v-315h-321zM133 1069v393h303v-393l-80 -631h-145z" />
<glyph unicode="&#x22;" horiz-adv-x="948" d="M174 805v657h219v-657h-219zM555 805v657h219v-657h-219z" />
<glyph unicode="#" d="M68 406v184h194l37 254h-170v184h195l57 406h199l-58 -406h199l55 406h199l-55 -406h151v-184h-178l-35 -254h152v-184h-179l-55 -406h-198l55 406h-197l-57 -406h-199l58 406h-170zM461 590h198l35 254h-196z" />
<glyph unicode="$" d="M-2 475h291q0 -111 60.5 -181.5t158.5 -88.5v428l-66 18q-246 66 -327.5 164t-81.5 244q0 201 140 319.5t335 118.5v158h121v-158q203 -23 332 -129t129 -307h-291q0 82 -49.5 139t-120.5 57v-362l104 -27q260 -72 334 -196.5t74 -278.5q0 -135 -122 -281.5t-390 -146.5 v-174h-121v174q-225 0 -356.5 133t-153.5 377zM324 1087q0 -68 42 -104.5t142 -58.5v333q-74 0 -129 -45t-55 -125zM629 205q88 8 154.5 58t66.5 143q0 78 -48 117.5t-173 74.5v-393z" />
<glyph unicode="%" horiz-adv-x="2048" d="M154 1057q0 178 88 291.5t260 113.5q178 0 257 -113.5t79 -299.5q0 -176 -86 -280.5t-260 -104.5q-178 0 -258 105t-80 288zM362 1053q0 -102 23 -169t109 -67q82 0 108.5 68.5t26.5 165.5q0 102 -23.5 180t-103.5 78q-86 0 -113 -75t-27 -181zM520 -45l848 1524h174 l-844 -1524h-178zM1210 375q0 176 88.5 285.5t260.5 109.5q178 0 256.5 -109.5t78.5 -293.5q0 -178 -86 -287t-260 -109q-178 0 -258 111t-80 293zM1419 373q0 -104 22.5 -176t108.5 -72q82 0 109 73.5t27 172.5q0 100 -24 172.5t-103 72.5q-86 0 -113 -70.5t-27 -172.5z " />
<glyph unicode="&#x26;" horiz-adv-x="1402" d="M66 410q0 143 91 249.5t236 174.5q-70 86 -104.5 154.5t-34.5 156.5q0 147 113.5 240.5t267.5 93.5q174 0 287.5 -92.5t113.5 -258.5q0 -121 -68.5 -210t-191.5 -154l189 -232q23 41 34 81t19 94h252q-10 -100 -46 -192.5t-96 -168.5l297 -346h-356l-119 145 q-88 -86 -189.5 -130t-221.5 -44q-205 0 -339 118t-134 321zM342 403q0 -80 62.5 -136t146.5 -56q76 0 131 31.5t115 97.5l-250 305q-90 -41 -147.5 -99.5t-57.5 -142.5zM518 1155q0 -49 17.5 -85t97.5 -134q94 61 121.5 106t27.5 103q0 57 -39 98t-94 41t-93 -36t-38 -93z " />
<glyph unicode="'" horiz-adv-x="569" d="M176 805v657h219v-657h-219z" />
<glyph unicode="(" horiz-adv-x="606" d="M106 549q0 240 71 501t200 447h244q-111 -211 -167.5 -448.5t-56.5 -479.5q0 -248 54.5 -485.5t166.5 -456.5h-241q-129 215 -200 448.5t-71 473.5z" />
<glyph unicode=")" horiz-adv-x="606" d="M-14 -373q111 211 167 447.5t56 478.5q0 248 -54.5 485.5t-166.5 458.5h241q129 -217 200 -451.5t71 -472.5q0 -240 -71 -500.5t-200 -445.5h-243z" />
<glyph unicode="*" horiz-adv-x="833" d="M45 1139l55 157l232 -90v256h164v-256l237 90l55 -157l-241 -80l151 -201l-135 -100l-151 211l-144 -211l-137 100l152 201z" />
<glyph unicode="+" horiz-adv-x="1228" d="M98 408v219h408v407h219v-407h408v-219h-408v-408h-219v408h-408z" />
<glyph unicode="," horiz-adv-x="569" d="M125 0v315h321v-315q0 -137 -89 -228t-230 -112v147q63 10 104 66.5t41 126.5h-147z" />
<glyph unicode="-" horiz-adv-x="833" d="M109 434v250h616v-250h-616z" />
<glyph unicode="." horiz-adv-x="569" d="M123 0v315h321v-315h-321z" />
<glyph unicode="/" horiz-adv-x="759" d="M-23 -35l572 1532h233l-571 -1532h-234z" />
<glyph unicode="0" d="M43 723q0 393 144 566t380 173q238 0 383.5 -174t145.5 -565q0 -401 -144.5 -576.5t-384.5 -175.5q-238 0 -381 174t-143 578zM334 723q0 -209 40.5 -360.5t192.5 -151.5q154 0 196 152.5t42 359.5q0 203 -42 351.5t-196 148.5q-119 0 -176 -117t-57 -383z" />
<glyph unicode="1" d="M152 930v219q172 0 284.5 65.5t134.5 219.5h232v-1434h-291v930h-360z" />
<glyph unicode="2" d="M43 0q0 158 56.5 266.5t148.5 189.5t251.5 188.5t228.5 171t69 175.5q0 102 -59.5 161.5t-155.5 59.5q-119 0 -173.5 -97t-54.5 -232h-278q0 254 136 416.5t384 162.5q205 0 348 -122.5t143 -325.5q0 -150 -65.5 -248t-201.5 -190.5t-237.5 -164t-164.5 -161.5h678v-250 h-1053z" />
<glyph unicode="3" d="M37 494h276q0 -123 65.5 -203t186.5 -80q100 0 167 62.5t67 162.5q0 143 -87 178t-245 35v205q131 0 218 34t87 144q0 88 -58.5 139.5t-144.5 51.5q-106 0 -163.5 -70t-57.5 -186h-276q0 221 137 358t358 137q186 0 334 -108.5t148 -288.5q0 -106 -51.5 -186t-149.5 -107 q119 -29 186.5 -118t67.5 -212q0 -217 -154.5 -344t-378.5 -127q-244 0 -388 138.5t-144 384.5z" />
<glyph unicode="4" d="M33 332v266l622 836h260v-863h191v-239h-191v-332h-276v332h-606zM262 571h377v498z" />
<glyph unicode="5" d="M37 426h291q10 -96 75.5 -155.5t159.5 -59.5q111 0 179.5 82t68.5 194q0 115 -66.5 192t-181.5 77q-135 0 -219 -115h-262l141 793h801v-240h-592l-57 -326l4 -4q55 55 125.5 83t154.5 28q205 0 324 -139.5t119 -348.5q0 -219 -157 -367.5t-376 -148.5q-223 0 -377.5 120 t-154.5 335z" />
<glyph unicode="6" d="M43 713q0 303 139.5 526t423.5 223q188 0 314.5 -105.5t150.5 -291.5h-276q-14 74 -66.5 126t-126.5 52q-139 0 -206.5 -141t-67.5 -295l4 -4q113 160 323 160q94 0 180.5 -39t149.5 -109q55 -66 83 -147.5t28 -171.5q0 -225 -139.5 -375t-362.5 -150q-299 0 -425 211 t-126 531zM354 477q0 -104 63.5 -185t168.5 -81q100 0 159.5 79t59.5 183q0 111 -56.5 190.5t-162.5 79.5q-111 0 -171.5 -75.5t-60.5 -190.5z" />
<glyph unicode="7" d="M80 1163v271h979v-250q-215 -186 -342 -529.5t-127 -654.5h-311q0 305 129 600t352 563h-680z" />
<glyph unicode="8" d="M29 420q0 135 70.5 228t199.5 124q-102 31 -156.5 111t-54.5 188q0 182 145 286.5t338 104.5q240 0 360 -125t120 -260q0 -106 -54.5 -187t-154.5 -118v2q129 -31 198.5 -123t69.5 -229q0 -213 -159.5 -332t-377.5 -119q-229 0 -386.5 114t-157.5 335zM319 434 q0 -109 74 -176.5t180 -67.5t176 68t70 174q0 100 -70.5 165t-175.5 65q-111 0 -182.5 -59.5t-71.5 -168.5zM352 1044q0 -90 62.5 -139t156.5 -49t154.5 49t60.5 139q0 76 -47 137.5t-168 61.5q-92 0 -155.5 -53t-63.5 -146z" />
<glyph unicode="9" d="M43 938q0 225 139.5 374.5t362.5 149.5q299 0 425 -211t126 -530q0 -303 -139.5 -526.5t-424.5 -223.5q-188 0 -314 105.5t-150 292.5h276q14 -74 66.5 -126.5t126.5 -52.5q139 0 206.5 141.5t67.5 295.5l-4 4q-113 -160 -324 -160q-94 0 -180 39t-149 108 q-55 66 -83 148t-28 172zM334 961q0 -111 56 -191t163 -80q111 0 171 75.5t60 190.5q0 104 -63.5 185.5t-167.5 81.5q-100 0 -159.5 -79t-59.5 -183z" />
<glyph unicode=":" horiz-adv-x="569" d="M125 0v315h321v-315h-321zM125 725v315h321v-315h-321z" />
<glyph unicode=";" horiz-adv-x="569" d="M125 0v315h321v-315q0 -137 -89 -228t-230 -112v147q63 10 104 66.5t41 126.5h-147zM125 725v315h321v-315h-321z" />
<glyph unicode="&#x3c;" horiz-adv-x="1228" d="M94 397v242l1041 414v-236l-752 -299l752 -299v-235z" />
<glyph unicode="=" horiz-adv-x="1228" d="M98 188v220h1035v-220h-1035zM98 627v219h1035v-219h-1035z" />
<glyph unicode="&#x3e;" horiz-adv-x="1228" d="M94 -16v235l752 299l-752 299v236l1041 -414v-242z" />
<glyph unicode="?" d="M66 991q0 223 137 364.5t360 141.5q262 0 386 -124t124 -271q0 -133 -45 -209t-141 -148.5t-135 -110.5t-52 -118v-78h-276v92q0 119 47 187.5t123 129t117 99.5t41 127q0 94 -45 139t-129 45q-104 0 -157.5 -74.5t-53.5 -191.5h-301zM395 0v315h322v-315h-322z" />
<glyph unicode="@" horiz-adv-x="1638" d="M74 731q0 322 228 544t550 222q291 0 502 -175t211 -450q0 -279 -171 -436t-311 -157q-66 0 -107.5 32.5t-41.5 83.5q-39 -59 -98.5 -89t-126.5 -30q-133 0 -227.5 102.5t-94.5 248.5q0 205 125 363.5t322 158.5q76 0 141 -34t98 -109l33 110h168l-129 -528 q-14 -51 -15 -90q0 -45 33 -45q90 0 166 109.5t76 266.5q0 238 -155.5 371t-399.5 133q-262 0 -421 -170t-159 -436q0 -268 169 -433t435 -165q272 0 441 168h172q-104 -160 -267 -246t-358 -86q-330 0 -559 219t-229 547zM596 653q0 -82 44 -132t116 -50q104 0 178 98.5 t74 210.5q0 76 -45 125t-113 49q-106 0 -180 -95t-74 -206z" />
<glyph unicode="A" horiz-adv-x="1402" d="M-14 0l555 1462h329l547 -1462h-334l-110 326h-547l-115 -326h-325zM510 565h379l-184 537z" />
<glyph unicode="B" horiz-adv-x="1441" d="M141 0v1462h688q225 0 346 -83t121 -279q0 -209 -198 -305q131 -37 199.5 -134.5t68.5 -236.5q0 -211 -148.5 -317.5t-367.5 -106.5h-709zM463 250h344q106 0 171.5 43t65.5 149t-61 157.5t-170 51.5h-350v-401zM463 870h325q90 0 143.5 43t53.5 131q0 94 -61.5 131 t-159.5 37h-301v-342z" />
<glyph unicode="C" horiz-adv-x="1517" d="M78 725q0 336 193.5 554t525.5 218q252 0 427 -139t203 -387h-311q-14 109 -106 182.5t-213 73.5q-203 0 -300.5 -143.5t-97.5 -358.5q0 -205 97.5 -347t300.5 -142q143 0 228 88t103 239h312q-25 -274 -199 -436t-444 -162q-330 0 -524.5 217t-194.5 543z" />
<glyph unicode="D" horiz-adv-x="1517" d="M141 0v1462h631q297 0 480.5 -185t183.5 -538q0 -332 -170 -535.5t-494 -203.5h-631zM463 270h287q158 0 261 105.5t103 333.5q0 238 -96 360.5t-326 122.5h-229v-922z" />
<glyph unicode="E" horiz-adv-x="1327" d="M141 0v1462h1094v-270h-772v-313h708v-250h-708v-359h788v-270h-1110z" />
<glyph unicode="F" horiz-adv-x="1214" d="M141 0v1462h1028v-270h-706v-338h612v-250h-612v-604h-322z" />
<glyph unicode="G" horiz-adv-x="1554" d="M78 725q0 336 193.5 554t525.5 218q236 0 414 -138t202 -378h-307q-27 121 -109 183.5t-200 62.5q-203 0 -300.5 -143.5t-97.5 -358.5q0 -205 97.5 -347t300.5 -142q319 0 348 315h-324v240h615v-791h-205l-33 166q-80 -102 -184.5 -151.5t-216.5 -49.5 q-330 0 -524.5 217t-194.5 543z" />
<glyph unicode="H" horiz-adv-x="1517" d="M141 0v1462h322v-561h592v561h321v-1462h-321v631h-592v-631h-322z" />
<glyph unicode="I" horiz-adv-x="604" d="M141 0v1462h322v-1462h-322z" />
<glyph unicode="J" d="M29 418v127h290v-66q0 -119 40 -181t147 -62q111 0 140.5 64.5t29.5 174.5v987h321v-1001q0 -199 -99 -347.5t-388 -148.5q-201 0 -341 114t-140 339z" />
<glyph unicode="K" horiz-adv-x="1478" d="M141 0v1462h322v-606l571 606h402l-572 -577l627 -885h-404l-440 657l-184 -186v-471h-322z" />
<glyph unicode="L" horiz-adv-x="1214" d="M141 0v1462h322v-1192h713v-270h-1035z" />
<glyph unicode="M" horiz-adv-x="1857" d="M141 0v1462h453l342 -1005l328 1005h452v-1462h-301v1036l-362 -1036h-248l-359 1026l-4 -1026h-301z" />
<glyph unicode="N" horiz-adv-x="1517" d="M141 0v1462h320l610 -981l4 981h301v-1462h-321l-609 979l-4 -979h-301z" />
<glyph unicode="O" horiz-adv-x="1593" d="M78 725q0 336 193.5 554t525.5 218q330 0 524.5 -219t194.5 -553q0 -330 -194 -545t-525 -215q-330 0 -524.5 217t-194.5 543zM399 725q0 -205 97.5 -347t300.5 -142q201 0 299 142t98 347q0 213 -97.5 357.5t-299.5 144.5q-203 0 -300.5 -143.5t-97.5 -358.5z" />
<glyph unicode="P" horiz-adv-x="1366" d="M141 0v1462h660q254 0 380 -136t126 -333q0 -199 -124 -334t-382 -135h-338v-524h-322zM463 774h250q131 0 206.5 45t75.5 174q0 127 -75.5 173t-206.5 46h-250v-438z" />
<glyph unicode="Q" horiz-adv-x="1593" d="M78 725q0 336 193.5 554t525.5 218q330 0 524.5 -219t194.5 -553q0 -158 -48.5 -295t-142.5 -244l182 -166l-149 -157l-207 188q-150 -86 -354 -86q-330 0 -524.5 217t-194.5 543zM399 725q0 -205 97.5 -347t300.5 -142q53 0 82.5 3t46.5 17l-138 125l150 160l166 -152 q43 59 66.5 141t23.5 195q0 213 -97.5 357.5t-299.5 144.5q-203 0 -300.5 -143.5t-97.5 -358.5z" />
<glyph unicode="R" horiz-adv-x="1478" d="M141 0v1462h789q190 0 309 -116.5t119 -286.5q0 -135 -55.5 -226.5t-176.5 -140.5q113 -33 163 -127t50 -219q0 -111 11.5 -201t50.5 -145h-322q-23 51 -35 189.5t-22 209t-64.5 121.5t-173.5 51h-321v-571h-322zM463 801h352q221 0 221 209q0 202 -219 202h-2h-352v-411 z" />
<glyph unicode="S" horiz-adv-x="1329" d="M49 485h311q0 -137 91.5 -203.5t232.5 -66.5q111 0 198 41t87 141q0 102 -82 136t-348.5 105t-353.5 171t-87 246q0 211 164 326.5t383 115.5q252 0 419 -115.5t167 -355.5h-311q0 121 -79 171t-210 50q-88 0 -154.5 -40t-66.5 -126q0 -94 95 -125.5t330.5 -92t340 -162 t104.5 -267.5q0 -209 -157.5 -339t-450.5 -130q-262 0 -442.5 133t-180.5 387z" />
<glyph unicode="T" horiz-adv-x="1251" d="M27 1192v270h1198v-270h-439v-1192h-321v1192h-438z" />
<glyph unicode="U" horiz-adv-x="1517" d="M135 553v909h322v-909q0 -147 60.5 -232t240.5 -85q170 0 236.5 73.5t66.5 243.5v909h321v-909q0 -291 -162.5 -439.5t-461.5 -148.5q-301 0 -462 146.5t-161 441.5z" />
<glyph unicode="V" horiz-adv-x="1290" d="M-16 1462h331l326 -1028l334 1028h332l-486 -1462h-362z" />
<glyph unicode="W" horiz-adv-x="1933" d="M6 1462h322l231 -995l258 995h301l250 -1007l244 1007h315l-393 -1462h-320l-247 995l-248 -995h-326z" />
<glyph unicode="X" horiz-adv-x="1366" d="M-12 0l512 766l-471 696h372l287 -467l297 467h352l-469 -698l510 -764h-383l-319 506l-326 -506h-362z" />
<glyph unicode="Y" horiz-adv-x="1366" d="M-18 1462h362l342 -577l340 577h358l-542 -901v-561h-322v569z" />
<glyph unicode="Z" horiz-adv-x="1327" d="M47 0v254l784 938h-722v270h1151v-254l-785 -938h805v-270h-1233z" />
<glyph unicode="[" horiz-adv-x="681" d="M139 -373v1870h541v-229h-250v-1411h250v-230h-541z" />
<glyph unicode="\" horiz-adv-x="759" d="M-23 1497h234l571 -1532h-233z" />
<glyph unicode="]" horiz-adv-x="681" d="M2 -143h250v1411h-250v229h541v-1870h-541v230z" />
<glyph unicode="^" horiz-adv-x="1228" d="M125 645l352 789h275l352 -789h-240l-250 563l-249 -563h-240z" />
<glyph unicode="_" horiz-adv-x="1024" d="M0 -154h1024v-102h-1024v102z" />
<glyph unicode="`" horiz-adv-x="530" d="M-98 1481h321l197 -291h-203z" />
<glyph unicode="a" horiz-adv-x="1175" d="M66 289q0 162 97 230.5t239.5 88t263.5 37.5q104 27 104 105q0 86 -48 114.5t-140 28.5q-86 0 -135.5 -39t-57.5 -121h-291q0 186 145.5 270t352.5 84q197 0 331 -64.5t134 -236.5v-550q0 -78 9 -141.5t28 -94.5h-295q-10 35 -15.5 55.5t-5.5 46.5q-63 -66 -158.5 -98.5 t-197.5 -32.5q-162 0 -261 80t-99 238zM356 301q0 -76 48.5 -105.5t130.5 -29.5q145 0 190 78t45 166v108q-33 -29 -128 -43t-146.5 -24.5t-95.5 -43t-44 -106.5z" />
<glyph unicode="b" horiz-adv-x="1251" d="M111 0v1462h290v-532q53 78 144.5 117.5t193.5 39.5q176 0 307.5 -142t131.5 -415q0 -274 -130 -416.5t-309 -142.5q-125 0 -213 39t-135 125l-4 -135h-276zM391 528q0 -143 62.5 -240.5t185.5 -97.5q121 0 184.5 97.5t63.5 240.5q0 145 -62.5 242.5t-185.5 97.5 t-185.5 -97t-62.5 -243z" />
<glyph unicode="c" horiz-adv-x="1175" d="M78 514q0 252 144.5 412.5t395.5 160.5q205 0 351.5 -104t146.5 -297h-285q-14 90 -68 136t-147 46q-127 0 -187 -104.5t-60 -239.5t57 -234.5t184 -99.5q98 0 157.5 57.5t74.5 158.5h280q-27 -207 -163 -321t-347 -114q-240 0 -387 151.5t-147 391.5z" />
<glyph unicode="d" horiz-adv-x="1251" d="M66 539q0 229 122.5 388.5t346.5 159.5q96 0 181 -39.5t134 -117.5h2v532h291v-1462h-277v135q-51 -84 -136 -124t-189 -40q-225 0 -350 166t-125 402zM356 530q0 -139 64.5 -239.5t191.5 -100.5q133 0 191.5 96.5t58.5 245.5q0 145 -59.5 240.5t-190.5 95.5 q-133 0 -194.5 -96t-61.5 -242z" />
<glyph unicode="e" horiz-adv-x="1175" d="M59 528q0 242 150.5 400.5t390.5 158.5q252 0 383 -182t131 -446h-764q0 -135 67.5 -202t192.5 -67q84 0 149.5 42t80.5 96h256q-59 -184 -184.5 -270.5t-311.5 -86.5q-248 0 -394.5 155t-146.5 402zM350 643h473q-20 117 -73.5 171t-157.5 54q-123 0 -182.5 -72.5 t-59.5 -152.5z" />
<glyph unicode="f" horiz-adv-x="681" d="M0 864v195h174v82q0 145 90 233t264 88q27 0 89.5 -4t64.5 -4v-217l-107 6q-111 0 -110 -121v-63h201v-195h-201v-864h-291v864h-174z" />
<glyph unicode="g" horiz-adv-x="1251" d="M78 563q0 219 120.5 371.5t333.5 152.5q109 0 187 -39.5t129 -129.5l4 141h276v-991q0 -186 -112.5 -327.5t-435.5 -141.5q-182 0 -324.5 86t-142.5 254h288q18 -76 77 -111t140 -35q115 0 174.5 72t59.5 190v140q-49 -80 -135 -122t-187 -42q-225 0 -338.5 149.5 t-113.5 382.5zM369 567q0 -133 55 -225t180 -92q119 0 183.5 84t64.5 209q0 143 -58.5 234t-189.5 91q-115 0 -175 -86t-60 -215z" />
<glyph unicode="h" horiz-adv-x="1214" d="M111 0v1462h290v-551q59 86 143.5 131t172.5 45q219 0 303 -110.5t84 -325.5v-651h-291v598q0 260 -186 260q-121 0 -173.5 -70.5t-52.5 -232.5v-555h-290z" />
<glyph unicode="i" horiz-adv-x="528" d="M119 0v1059h291v-1059h-291zM119 1223v239h291v-239h-291z" />
<glyph unicode="j" horiz-adv-x="569" d="M-39 -125q25 -8 64 -8q51 0 81.5 19.5t30.5 74.5v1098h291v-1112q0 -170 -79 -245t-294 -75q-23 0 -51.5 3t-42.5 5v240zM137 1223v239h291v-239h-291z" />
<glyph unicode="k" horiz-adv-x="1175" d="M137 0v1462h291v-784l367 381h344l-400 -389l445 -670h-353l-290 473l-113 -108v-365h-291z" />
<glyph unicode="l" horiz-adv-x="528" d="M119 0v1462h291v-1462h-291z" />
<glyph unicode="m" horiz-adv-x="1855" d="M119 0v1059h274v-144q61 84 142 128t186 44q109 0 188.5 -41.5t120.5 -134.5q51 76 133 126t187 50q180 0 283.5 -91t103.5 -287v-709h-291v600q0 129 -33 193.5t-145 64.5q-111 0 -153 -74.5t-42 -193.5v-590h-291v594q0 133 -26.5 198.5t-149.5 65.5q-68 0 -132 -54 t-64 -190v-614h-291z" />
<glyph unicode="n" horiz-adv-x="1214" d="M111 0v1059h276v-148q59 88 145 132t185 44q219 0 303 -110.5t84 -325.5v-651h-291v598q0 260 -186 260q-121 0 -173.5 -70.5t-52.5 -232.5v-555h-290z" />
<glyph unicode="o" horiz-adv-x="1251" d="M78 528q0 254 148.5 406.5t398.5 152.5q252 0 400.5 -152.5t148.5 -406.5q0 -252 -151 -404.5t-398 -152.5q-250 0 -398.5 152.5t-148.5 404.5zM369 528q0 -145 59.5 -241.5t196.5 -96.5t197.5 96.5t60.5 241.5q0 147 -59.5 243.5t-198.5 96.5q-135 0 -195.5 -98 t-60.5 -242z" />
<glyph unicode="p" horiz-adv-x="1251" d="M111 -373v1432h276v-135q53 82 136 122.5t184 40.5q236 0 358.5 -163.5t122.5 -405.5q0 -225 -123 -386t-342 -161q-96 0 -181 42t-136 118l-5 -504h-290zM391 526q0 -145 61.5 -240.5t192.5 -95.5q133 0 192.5 95.5t59.5 240.5q0 143 -61.5 242.5t-192.5 99.5 t-191.5 -98t-60.5 -244z" />
<glyph unicode="q" horiz-adv-x="1251" d="M66 522q0 236 122.5 400.5t352.5 164.5q106 0 190 -39.5t131 -123.5l4 135h277v-1432h-291v506q-49 -80 -142.5 -121t-195.5 -41q-174 0 -311 135.5t-137 415.5zM356 528q0 -147 58.5 -242.5t193.5 -95.5q131 0 192.5 94.5t61.5 239.5q0 141 -60.5 242.5t-187.5 101.5 q-131 0 -194.5 -98t-63.5 -242z" />
<glyph unicode="r" horiz-adv-x="796" d="M111 0v1059h276v-197q43 98 139.5 161.5t202.5 63.5q33 0 64 -10v-270q-45 10 -105 10q-150 0 -218.5 -94t-68.5 -246v-477h-290z" />
<glyph unicode="s" horiz-adv-x="1099" d="M59 344h277q0 -90 63.5 -134t159.5 -44q76 0 133.5 31.5t57.5 103.5q0 92 -244 145.5t-333 112.5t-89 189q0 184 132 261.5t329 77.5t323.5 -77.5t143.5 -259.5h-277q0 78 -55 110.5t-143 32.5q-66 0 -114 -20.5t-48 -77.5q0 -68 59.5 -88.5t244.5 -63.5t273 -105.5 t88 -197.5q0 -195 -138 -282t-345 -87q-211 0 -354.5 89.5t-143.5 283.5z" />
<glyph unicode="t" horiz-adv-x="720" d="M12 864v195h176v317h291v-317h213v-195h-213v-524q0 -74 24.5 -98.5t98.5 -24.5q49 0 90 8v-227q-35 -6 -98.5 -8t-71.5 -2q-158 0 -246 52t-88 200v624h-176z" />
<glyph unicode="u" horiz-adv-x="1214" d="M111 408v651h290v-598q0 -260 187 -260q121 0 173 70.5t52 232.5v555h291v-1059h-277v147q-59 -88 -145 -132t-184 -44q-219 0 -303 111t-84 326z" />
<glyph unicode="v" horiz-adv-x="1064" d="M10 1059h305l224 -723l227 723h289l-359 -1059h-323z" />
<glyph unicode="w" horiz-adv-x="1667" d="M12 1059h307l195 -719l180 719h283l180 -717l199 717h299l-334 -1059h-299l-188 711l-185 -711h-301z" />
<glyph unicode="x" horiz-adv-x="1099" d="M0 0l381 557l-348 502h332l186 -277l184 277h322l-348 -496l391 -563h-332l-221 334l-221 -334h-326z" />
<glyph unicode="y" horiz-adv-x="1062" d="M-12 1059h311l240 -725l235 725h301l-442 -1192q-47 -129 -131 -184.5t-234 -55.5q-80 0 -178 11v239q35 0 96.5 -5t73.5 -5q53 6 83 44t30 89q0 35 -13 66z" />
<glyph unicode="z" horiz-adv-x="1062" d="M45 0v219l551 621h-510v219h893v-219l-551 -621h590v-219h-973z" />
<glyph unicode="{" horiz-adv-x="681" d="M-18 473v178q66 0 127 45t61 140v385q0 127 84 201.5t168 74.5h260v-229h-111q-66 0 -88 -42t-22 -108v-311q0 -131 -63.5 -181.5t-139.5 -60.5q72 -14 137.5 -67.5t65.5 -163.5v-328q0 -66 22.5 -107.5t87.5 -41.5h111v-230h-260q-84 0 -168 75t-84 202v399 q0 82 -62.5 126t-125.5 44z" />
<glyph unicode="|" horiz-adv-x="456" d="M119 -35v1532h219v-1532h-219z" />
<glyph unicode="}" horiz-adv-x="681" d="M0 -143h111q66 0 88 42t22 107v328q0 113 66.5 166t136.5 59q-106 25 -154.5 85.5t-48.5 162.5v311q0 84 -28.5 117t-81.5 33h-111v229h260q84 0 168 -74.5t84 -201.5v-385q0 -92 62.5 -138.5t125.5 -46.5v-178q-66 0 -127 -42t-61 -128v-399q0 -127 -84 -202t-168 -75 h-260v230z" />
<glyph unicode="~" horiz-adv-x="1228" d="M137 520q41 80 100.5 128t155.5 48q51 0 100.5 -15t116 -45t126 -54.5t93.5 -24.5q53 0 94.5 39t86.5 109l82 -191q-63 -88 -116.5 -132t-139.5 -44q-66 0 -109 18.5t-100.5 50t-114.5 51t-121 19.5q-59 0 -101 -42t-71 -105z" />
<glyph unicode="&#xa1;" horiz-adv-x="569" d="M125 772v315h321v-315h-321zM133 18l80 631h145l78 -631v-393h-303v393z" />
<glyph unicode="&#xa2;" d="M43 512q0 242 128 398.5t361 176.5v175h121v-175q178 0 318.5 -112.5t140.5 -290.5h-285q0 72 -51 125t-123 59v-678q76 14 127 80t51 146h285q-16 -195 -145 -320t-318 -125v-207h-121v207q-215 0 -352 158t-137 383zM334 541q0 -125 46 -221.5t152 -129.5v676 q-102 -27 -150 -117t-48 -208z" />
<glyph unicode="&#xa3;" d="M43 633v174h131q-35 45 -63.5 122t-28.5 161q0 172 139 289.5t385 117.5q233 0 365.5 -132t132.5 -380h-277q0 139 -58 205.5t-165 66.5q-90 0 -145.5 -51t-55.5 -137q0 -61 13.5 -110.5t70.5 -151.5h273v-174h-215q16 -55 16 -127q0 -88 -44 -155.5t-124 -131.5l4 -4 q45 29 76 38t64 9q29 0 51 -3t86.5 -15.5t106.5 -20.5t77 -8q49 0 89 17.5t91 70.5l123 -207q-70 -66 -153.5 -98.5t-165.5 -32.5q-72 0 -120 9.5t-111.5 31t-96.5 29.5t-98 8q-66 0 -121 -16.5t-115 -61.5l-127 191q98 63 165 150t67 190q0 33 -9.5 65.5t-29.5 71.5h-203z " />
<glyph unicode="&#xa4;" d="M41 305l117 119q-98 115 -99 291q0 92 23.5 167.5t75.5 127.5l-117 118l117 117l116 -115q49 41 132 68t167 27q82 0 158 -24.5t123 -67.5l119 116l125 -125l-115 -112q43 -47 67.5 -128t24.5 -165q0 -182 -94 -299l113 -115l-113 -112l-117 118q-49 -49 -128 -75.5 t-165 -26.5q-190 0 -301 100l-114 -119zM313 715q0 -119 69 -203t189 -84q119 0 184.5 85t65.5 206q0 115 -64.5 201t-183.5 86q-123 0 -191.5 -84t-68.5 -207z" />
<glyph unicode="&#xa5;" d="M-18 1462h333l271 -637l264 637h332l-318 -637h195v-194h-293l-31 -60v-94h324v-194h-324v-283h-311v283h-322v194h322v94l-29 60h-293v194h195z" />
<glyph unicode="&#xa6;" horiz-adv-x="456" d="M119 -35v563h219v-563h-219zM119 934v563h219v-563h-219z" />
<glyph unicode="&#xa7;" d="M20 637q0 111 56.5 185.5t163.5 113.5q-45 47 -66.5 95t-21.5 112q0 164 129 259t299 95q188 0 310 -104.5t122 -290.5h-254q0 78 -47 127t-127 49q-59 0 -107.5 -37t-48.5 -94q0 -74 64.5 -113t276.5 -140t280.5 -190.5t68.5 -191.5t-58.5 -183t-154.5 -116 q57 -43 85 -104.5t28 -137.5q0 -162 -132 -253t-304 -91q-207 0 -334 99.5t-127 298.5h254q0 -88 53 -133.5t147 -45.5q66 0 109 35t43 101q0 92 -89 139t-282.5 138t-264.5 180t-71 198zM274 662q0 -66 66 -101l369 -201q4 -2 25.5 -8t35.5 -6q39 0 66.5 37t27.5 76 q0 45 -24.5 74.5t-67.5 54.5l-338 190q-12 6 -28.5 13.5t-30.5 7.5q-41 0 -71 -43t-30 -94z" />
<glyph unicode="&#xa8;" horiz-adv-x="530" d="M-84 1223v239h277v-239h-277zM338 1223v239h276v-239h-276z" />
<glyph unicode="&#xa9;" horiz-adv-x="1638" d="M33 731q0 338 232 552t554 214q324 0 555.5 -213t231.5 -553q0 -338 -232.5 -552t-554.5 -214t-554 214t-232 552zM242 731q0 -260 166.5 -431t410.5 -171q242 0 410 172t168 430t-168 430t-410 172q-244 0 -410.5 -171t-166.5 -431zM408 735q0 203 117.5 331t318.5 128 q147 0 248.5 -82t121.5 -235h-159q-14 72 -71.5 112.5t-139.5 40.5q-113 0 -176.5 -80t-63.5 -211q0 -123 67.5 -209t176.5 -86q86 0 142.5 43t64.5 117h166q-25 -150 -128.5 -236.5t-244.5 -86.5q-197 0 -318.5 130t-121.5 324z" />
<glyph unicode="&#xaa;" horiz-adv-x="704" d="M20 973q0 100 62.5 142t194 58.5t164 23.5t32.5 52q0 47 -31.5 63.5t-91.5 16.5q-39 0 -67.5 -22.5t-32.5 -67.5h-209q8 66 36.5 109t73 68.5t97.5 35.5t112 10q133 0 220.5 -39t87.5 -143v-340q0 -111 24 -154h-207q-10 31 -14 64q-41 -43 -100.5 -62.5t-120.5 -19.5 q-102 0 -166 50t-64 155zM229 977q0 -39 28 -57.5t65 -18.5q88 0 118.5 45t30.5 109v41q-16 -16 -58 -23.5t-87 -16.5t-71 -25.5t-26 -53.5z" />
<glyph unicode="&#xab;" horiz-adv-x="909" d="M86 420v276l322 252v-246l-185 -145l185 -147v-246zM502 420v276l321 252v-246l-184 -145l184 -147v-246z" />
<glyph unicode="&#xac;" horiz-adv-x="1228" d="M98 612v219h1032v-628h-219v409h-813z" />
<glyph unicode="&#xad;" horiz-adv-x="833" d="M109 434v250h616v-250h-616z" />
<glyph unicode="&#xae;" horiz-adv-x="1638" d="M33 733q0 338 231 551t555 213t555.5 -212t231.5 -552t-231.5 -554t-555.5 -214q-322 0 -554 214t-232 554zM242 733q0 -260 165.5 -432t411.5 -172q242 0 410 172t168 432q0 258 -169 429t-409 171q-246 0 -411.5 -170t-165.5 -430zM514 305v858h324q168 0 252 -58 t84 -196q0 -115 -61.5 -172t-164.5 -57l230 -375h-179l-208 367h-107v-367h-170zM684 805h152q86 0 127 22.5t41 96.5q0 47 -39 76.5t-138 29.5h-143v-225z" />
<glyph unicode="&#xb0;" horiz-adv-x="819" d="M106 1159q0 127 88.5 215t215.5 88t215 -88t88 -215t-88 -215t-215 -88t-215.5 88t-88.5 215zM240 1159q0 -74 51 -127t119 -53t119 53t51 127t-51.5 127t-118.5 53q-68 0 -119 -53t-51 -127z" />
<glyph unicode="&#xb1;" horiz-adv-x="1228" d="M98 0v219h1035v-219h-1035zM98 549v219h408v268h219v-268h408v-219h-408v-268h-219v268h-408z" />
<glyph unicode="&#xb2;" horiz-adv-x="802" d="M55 559q0 147 67.5 226t175.5 147.5t173 111.5q68 57 68 127q0 55 -34 91t-91 36q-78 0 -113 -58t-35 -134h-209q0 166 93.5 261t277.5 95q135 0 227.5 -72.5t92.5 -203.5q0 -90 -43 -149.5t-123 -112.5l-144 -86q-82 -53 -127 -115h428v-164h-684z" />
<glyph unicode="&#xb3;" horiz-adv-x="802" d="M45 868h197q0 -72 41 -117.5t116 -45.5q63 0 106.5 35.5t43.5 93.5q0 90 -76 103t-137 13v144q92 0 143 15t51 81q0 49 -37.5 78.5t-89.5 29.5q-63 0 -100 -40.5t-37 -106.5h-196q0 143 90 227t241 84q133 0 229.5 -65.5t96.5 -186.5q0 -141 -135 -176q76 -16 121 -70.5 t45 -125.5q0 -141 -101.5 -219t-253.5 -78q-168 0 -263 85t-95 242z" />
<glyph unicode="&#xb4;" horiz-adv-x="530" d="M111 1190l196 291h322l-316 -291h-202z" />
<glyph unicode="&#xb5;" horiz-adv-x="1214" d="M111 -373v1432h290v-598q0 -260 187 -260q121 0 173 70.5t52 232.5v555h291v-1059h-277v147q-55 -82 -135 -129t-137 -47t-95 13.5t-59 35.5v-393h-290z" />
<glyph unicode="&#xb6;" horiz-adv-x="1269" d="M4 1090q0 201 130 286.5t362 85.5h600v-1802h-209v1638h-225v-1638h-209v1071q-213 0 -331 95.5t-118 263.5z" />
<glyph unicode="&#xb8;" horiz-adv-x="530" d="M25 -401l43 98q33 -14 79 -25.5t93 -11.5q82 0 82 70q0 37 -21.5 51t-60.5 14q-43 0 -82 -14l-43 49l121 174h100l-80 -113q23 8 42 9.5t32 1.5q78 0 133 -36t55 -108q0 -111 -67.5 -157.5t-171.5 -46.5q-86 0 -132.5 9t-121.5 36z" />
<glyph unicode="&#xb9;" horiz-adv-x="802" d="M158 1120v154q111 0 180.5 38t81.5 132h172v-885h-209v561h-225z" />
<glyph unicode="&#xba;" horiz-adv-x="751" d="M25 1114q0 160 96 254t254 94q162 0 257 -93t95 -255q0 -160 -95 -253t-257 -93q-160 0 -255 93t-95 253zM244 1114q0 -76 34 -134t97 -58q66 0 99.5 57t33.5 135q0 80 -34 137.5t-99 57.5q-66 0 -98.5 -57.5t-32.5 -137.5z" />
<glyph unicode="&#xbb;" horiz-adv-x="909" d="M86 164v246l184 147l-184 145v246l322 -252v-276zM502 164v246l184 147l-184 145v246l321 -252v-276z" />
<glyph unicode="&#xbc;" horiz-adv-x="1826" d="M49 1120v154q111 0 180.5 38t81.5 132h172v-885h-209v561h-225zM311 -45l848 1524h174l-844 -1524h-178zM1018 182v191l385 487h205v-514h116v-164h-116v-182h-197v182h-393zM1174 346h237v295z" />
<glyph unicode="&#xbd;" horiz-adv-x="1820" d="M49 1120v154q111 0 180.5 38t81.5 132h172v-885h-209v561h-225zM311 -45l848 1524h174l-844 -1524h-178zM1040 0q0 147 68 226t175.5 147.5t172.5 111.5q68 57 68 127q0 55 -34 91t-91 36q-78 0 -113 -58t-35 -134h-209q0 166 93.5 261t277.5 95q135 0 227.5 -72.5 t92.5 -203.5q0 -90 -43 -149.5t-123 -112.5l-144 -86q-82 -53 -127 -115h428v-164h-684z" />
<glyph unicode="&#xbe;" horiz-adv-x="1820" d="M80 868h196q0 -72 41 -117.5t117 -45.5q63 0 106.5 35.5t43.5 93.5q0 90 -76 103t-137 13v144q92 0 143 15t51 81q0 49 -38 78.5t-89 29.5q-63 0 -100 -40.5t-37 -106.5h-197q0 143 90.5 227t241.5 84q133 0 229.5 -65.5t96.5 -186.5q0 -141 -135 -176q76 -16 121 -70.5 t45 -125.5q0 -141 -101.5 -219t-253.5 -78q-168 0 -263 85t-95 242zM489 -45l848 1524h174l-843 -1524h-179zM1059 182v191l385 487h205v-514h116v-164h-116v-182h-197v182h-393zM1214 346h238v295z" />
<glyph unicode="&#xbf;" d="M66 -6q0 133 45 209t141 148.5t135 110.5t51 118v77h277v-92q0 -119 -47 -187.5t-123 -129t-117 -99t-41 -126.5q0 -94 45 -139.5t129 -45.5q104 0 155.5 74t51.5 192h301q0 -221 -136 -363t-358 -142q-262 0 -385.5 123.5t-123.5 271.5zM422 772v315h321v-315h-321z" />
<glyph unicode="&#xc0;" horiz-adv-x="1402" d="M-14 0l555 1462h329l547 -1462h-334l-110 326h-547l-115 -326h-325zM338 1884h321l197 -291h-203zM510 565h379l-184 537z" />
<glyph unicode="&#xc1;" horiz-adv-x="1402" d="M-14 0l555 1462h329l547 -1462h-334l-110 326h-547l-115 -326h-325zM510 565h379l-184 537zM547 1593l196 291h322l-316 -291h-202z" />
<glyph unicode="&#xc2;" horiz-adv-x="1402" d="M-14 0l555 1462h329l547 -1462h-334l-110 326h-547l-115 -326h-325zM342 1593l227 291h266l226 -291h-240l-127 166l-131 -166h-221zM510 565h379l-184 537z" />
<glyph unicode="&#xc3;" horiz-adv-x="1402" d="M-14 0l555 1462h329l547 -1462h-334l-110 326h-547l-115 -326h-325zM325 1615q27 117 80.5 183.5t177.5 66.5q33 0 72 -13t65.5 -24.5t62.5 -22.5t67 -11q43 0 64.5 19.5t21.5 51.5h141q-16 -55 -28.5 -87t-37 -67.5t-63.5 -57t-100 -21.5q-43 0 -71 6t-88 26.5t-90 28.5 t-63 8q-39 0 -57 -20.5t-29 -65.5h-125zM510 565h379l-184 537z" />
<glyph unicode="&#xc4;" horiz-adv-x="1402" d="M-14 0l555 1462h329l547 -1462h-334l-110 326h-547l-115 -326h-325zM352 1626v239h277v-239h-277zM510 565h379l-184 537zM774 1626v239h276v-239h-276z" />
<glyph unicode="&#xc5;" horiz-adv-x="1402" d="M-14 0l555 1462h329l547 -1462h-334l-110 326h-547l-115 -326h-325zM450 1746q0 102 74 176t176 74q104 0 178 -73.5t74 -176.5q0 -102 -73.5 -175.5t-178.5 -73.5q-102 0 -176 73.5t-74 175.5zM510 565h379l-184 537zM571 1746q0 -61 35 -102t94 -41q57 0 94 41t37 102 q0 63 -35.5 103.5t-95.5 40.5q-59 0 -94 -41t-35 -103z" />
<glyph unicode="&#xc6;" horiz-adv-x="2009" d="M-23 0l699 1462h1241v-270h-680v-313h639v-250h-639v-359h696v-270h-1007v326h-459l-148 -326h-342zM573 565h353v627h-70z" />
<glyph unicode="&#xc7;" horiz-adv-x="1517" d="M78 725q0 336 193.5 554t525.5 218q252 0 427 -139t203 -387h-311q-14 109 -106 182.5t-213 73.5q-203 0 -300.5 -143.5t-97.5 -358.5q0 -205 97.5 -347t300.5 -142q143 0 228 88t103 239h312q-25 -272 -198 -435t-439 -163l-53 -74q23 8 42 9.5t31 1.5q78 0 133.5 -36 t55.5 -108q0 -111 -67.5 -157.5t-172.5 -46.5q-86 0 -132 9t-122 36l43 98q33 -14 79 -25.5t93 -11.5q82 0 82 70q0 37 -21.5 51t-60.5 14q-43 0 -82 -14l-43 49l99 141q-291 31 -460 241t-169 513z" />
<glyph unicode="&#xc8;" horiz-adv-x="1327" d="M141 0v1462h1094v-270h-772v-313h708v-250h-708v-359h788v-270h-1110zM301 1884h321l197 -291h-203z" />
<glyph unicode="&#xc9;" horiz-adv-x="1327" d="M141 0v1462h1094v-270h-772v-313h708v-250h-708v-359h788v-270h-1110zM510 1593l196 291h322l-316 -291h-202z" />
<glyph unicode="&#xca;" horiz-adv-x="1327" d="M141 0v1462h1094v-270h-772v-313h708v-250h-708v-359h788v-270h-1110zM305 1593l227 291h266l226 -291h-240l-127 166l-131 -166h-221z" />
<glyph unicode="&#xcb;" horiz-adv-x="1327" d="M141 0v1462h1094v-270h-772v-313h708v-250h-708v-359h788v-270h-1110zM315 1626v239h277v-239h-277zM737 1626v239h276v-239h-276z" />
<glyph unicode="&#xcc;" horiz-adv-x="604" d="M-61 1884h321l197 -291h-203zM141 0v1462h322v-1462h-322z" />
<glyph unicode="&#xcd;" horiz-adv-x="604" d="M141 0v1462h322v-1462h-322zM148 1593l196 291h322l-316 -291h-202z" />
<glyph unicode="&#xce;" horiz-adv-x="604" d="M-57 1593l227 291h266l226 -291h-240l-127 166l-131 -166h-221zM141 0v1462h322v-1462h-322z" />
<glyph unicode="&#xcf;" horiz-adv-x="604" d="M-47 1626v239h277v-239h-277zM141 0v1462h322v-1462h-322zM375 1626v239h276v-239h-276z" />
<glyph unicode="&#xd0;" horiz-adv-x="1517" d="M6 637v237h135v588h631q297 0 480.5 -185t183.5 -538q0 -332 -170 -535.5t-494 -203.5h-631v637h-135zM463 270h287q158 0 261 105.5t103 333.5q0 238 -96 360.5t-326 122.5h-229v-318h328v-239h-328v-365z" />
<glyph unicode="&#xd1;" horiz-adv-x="1517" d="M141 0v1462h320l610 -981l4 981h301v-1462h-321l-609 979l-4 -979h-301zM383 1615q27 117 80.5 183.5t177.5 66.5q33 0 72 -13t65.5 -24.5t62.5 -22.5t67 -11q43 0 64.5 19.5t21.5 51.5h141q-16 -55 -28.5 -87t-37 -67.5t-63.5 -57t-100 -21.5q-43 0 -71 6t-88 26.5 t-90 28.5t-63 8q-39 0 -57 -20.5t-29 -65.5h-125z" />
<glyph unicode="&#xd2;" horiz-adv-x="1593" d="M78 725q0 336 193.5 554t525.5 218q330 0 524.5 -219t194.5 -553q0 -330 -194 -545t-525 -215q-330 0 -524.5 217t-194.5 543zM399 725q0 -205 97.5 -347t300.5 -142q201 0 299 142t98 347q0 213 -97.5 357.5t-299.5 144.5q-203 0 -300.5 -143.5t-97.5 -358.5zM434 1884 h321l197 -291h-203z" />
<glyph unicode="&#xd3;" horiz-adv-x="1593" d="M78 725q0 336 193.5 554t525.5 218q330 0 524.5 -219t194.5 -553q0 -330 -194 -545t-525 -215q-330 0 -524.5 217t-194.5 543zM399 725q0 -205 97.5 -347t300.5 -142q201 0 299 142t98 347q0 213 -97.5 357.5t-299.5 144.5q-203 0 -300.5 -143.5t-97.5 -358.5zM643 1593 l196 291h322l-316 -291h-202z" />
<glyph unicode="&#xd4;" horiz-adv-x="1593" d="M78 725q0 336 193.5 554t525.5 218q330 0 524.5 -219t194.5 -553q0 -330 -194 -545t-525 -215q-330 0 -524.5 217t-194.5 543zM399 725q0 -205 97.5 -347t300.5 -142q201 0 299 142t98 347q0 213 -97.5 357.5t-299.5 144.5q-203 0 -300.5 -143.5t-97.5 -358.5zM438 1593 l227 291h266l226 -291h-240l-127 166l-131 -166h-221z" />
<glyph unicode="&#xd5;" horiz-adv-x="1593" d="M78 725q0 336 193.5 554t525.5 218q330 0 524.5 -219t194.5 -553q0 -330 -194 -545t-525 -215q-330 0 -524.5 217t-194.5 543zM399 725q0 -205 97.5 -347t300.5 -142q201 0 299 142t98 347q0 213 -97.5 357.5t-299.5 144.5q-203 0 -300.5 -143.5t-97.5 -358.5zM421 1615 q27 117 80.5 183.5t177.5 66.5q33 0 72 -13t65.5 -24.5t62.5 -22.5t67 -11q43 0 64.5 19.5t21.5 51.5h141q-16 -55 -28.5 -87t-37 -67.5t-63.5 -57t-100 -21.5q-43 0 -71 6t-88 26.5t-90 28.5t-63 8q-39 0 -57 -20.5t-29 -65.5h-125z" />
<glyph unicode="&#xd6;" horiz-adv-x="1593" d="M78 725q0 336 193.5 554t525.5 218q330 0 524.5 -219t194.5 -553q0 -330 -194 -545t-525 -215q-330 0 -524.5 217t-194.5 543zM399 725q0 -205 97.5 -347t300.5 -142q201 0 299 142t98 347q0 213 -97.5 357.5t-299.5 144.5q-203 0 -300.5 -143.5t-97.5 -358.5zM448 1626 v239h277v-239h-277zM870 1626v239h276v-239h-276z" />
<glyph unicode="&#xd7;" horiz-adv-x="1228" d="M131 190l330 328l-326 328l156 155l325 -327l328 327l156 -155l-330 -328l330 -328l-156 -155l-328 330l-329 -330z" />
<glyph unicode="&#xd8;" horiz-adv-x="1593" d="M70 20l176 195q-168 205 -168 510q0 336 193.5 554t525.5 218q141 0 255.5 -40t204.5 -118l164 183l103 -90l-172 -191q164 -209 164 -516q0 -330 -194 -545t-525 -215q-139 0 -254 40t-203 116l-170 -189zM399 725q0 -82 13.5 -146.5t44.5 -129.5l606 673 q-47 49 -112.5 77t-153.5 28q-203 0 -300.5 -143.5t-97.5 -358.5zM535 336q49 -49 112.5 -74.5t149.5 -25.5q201 0 299 142t98 347q0 80 -12.5 146.5t-42.5 132.5z" />
<glyph unicode="&#xd9;" horiz-adv-x="1517" d="M135 553v909h322v-909q0 -147 60.5 -232t240.5 -85q170 0 236.5 73.5t66.5 243.5v909h321v-909q0 -291 -162.5 -439.5t-461.5 -148.5q-301 0 -462 146.5t-161 441.5zM396 1884h321l197 -291h-203z" />
<glyph unicode="&#xda;" horiz-adv-x="1517" d="M135 553v909h322v-909q0 -147 60.5 -232t240.5 -85q170 0 236.5 73.5t66.5 243.5v909h321v-909q0 -291 -162.5 -439.5t-461.5 -148.5q-301 0 -462 146.5t-161 441.5zM605 1593l196 291h322l-316 -291h-202z" />
<glyph unicode="&#xdb;" horiz-adv-x="1517" d="M135 553v909h322v-909q0 -147 60.5 -232t240.5 -85q170 0 236.5 73.5t66.5 243.5v909h321v-909q0 -291 -162.5 -439.5t-461.5 -148.5q-301 0 -462 146.5t-161 441.5zM400 1593l227 291h266l226 -291h-240l-127 166l-131 -166h-221z" />
<glyph unicode="&#xdc;" horiz-adv-x="1517" d="M135 553v909h322v-909q0 -147 60.5 -232t240.5 -85q170 0 236.5 73.5t66.5 243.5v909h321v-909q0 -291 -162.5 -439.5t-461.5 -148.5q-301 0 -462 146.5t-161 441.5zM410 1626v239h277v-239h-277zM832 1626v239h276v-239h-276z" />
<glyph unicode="&#xdd;" horiz-adv-x="1366" d="M-18 1462h362l342 -577l340 577h358l-542 -901v-561h-322v569zM529 1593l196 291h322l-316 -291h-202z" />
<glyph unicode="&#xde;" horiz-adv-x="1366" d="M141 0v1462h322v-198h338q254 0 380 -136.5t126 -332.5q0 -199 -124 -334t-382 -135h-338v-326h-322zM463 575h250q131 0 206.5 45.5t75.5 174.5q0 127 -75.5 173t-206.5 46h-250v-439z" />
<glyph unicode="&#xdf;" horiz-adv-x="1251" d="M115 0v1006q0 215 101 353t380 138q199 0 332 -100.5t133 -292.5q0 -96 -52.5 -177t-138.5 -108q127 -31 197 -132t70 -238q0 -195 -127 -336.5t-318 -141.5q-84 0 -168 13v237q16 -6 37 -8t47 -2q102 0 170 71.5t68 176.5q0 117 -61.5 183.5t-188.5 66.5l-72 -4v192 l45 -4q92 0 153.5 46t61.5 136q0 113 -59 147.5t-137 34.5q-86 0 -134 -54t-48 -146v-1057h-291z" />
<glyph unicode="&#xe0;" horiz-adv-x="1175" d="M66 289q0 162 97 230.5t239.5 88t263.5 37.5q104 27 104 105q0 86 -48 114.5t-140 28.5q-86 0 -135.5 -39t-57.5 -121h-291q0 186 145.5 270t352.5 84q197 0 331 -64.5t134 -236.5v-550q0 -78 9 -141.5t28 -94.5h-295q-10 35 -15.5 55.5t-5.5 46.5q-63 -66 -158.5 -98.5 t-197.5 -32.5q-162 0 -261 80t-99 238zM226 1481h321l197 -291h-203zM356 301q0 -76 48.5 -105.5t130.5 -29.5q145 0 190 78t45 166v108q-33 -29 -128 -43t-146.5 -24.5t-95.5 -43t-44 -106.5z" />
<glyph unicode="&#xe1;" horiz-adv-x="1175" d="M66 289q0 162 97 230.5t239.5 88t263.5 37.5q104 27 104 105q0 86 -48 114.5t-140 28.5q-86 0 -135.5 -39t-57.5 -121h-291q0 186 145.5 270t352.5 84q197 0 331 -64.5t134 -236.5v-550q0 -78 9 -141.5t28 -94.5h-295q-10 35 -15.5 55.5t-5.5 46.5q-63 -66 -158.5 -98.5 t-197.5 -32.5q-162 0 -261 80t-99 238zM356 301q0 -76 48.5 -105.5t130.5 -29.5q145 0 190 78t45 166v108q-33 -29 -128 -43t-146.5 -24.5t-95.5 -43t-44 -106.5zM435 1190l196 291h322l-316 -291h-202z" />
<glyph unicode="&#xe2;" horiz-adv-x="1175" d="M66 289q0 162 97 230.5t239.5 88t263.5 37.5q104 27 104 105q0 86 -48 114.5t-140 28.5q-86 0 -135.5 -39t-57.5 -121h-291q0 186 145.5 270t352.5 84q197 0 331 -64.5t134 -236.5v-550q0 -78 9 -141.5t28 -94.5h-295q-10 35 -15.5 55.5t-5.5 46.5q-63 -66 -158.5 -98.5 t-197.5 -32.5q-162 0 -261 80t-99 238zM230 1190l227 291h266l226 -291h-240l-127 166l-131 -166h-221zM356 301q0 -76 48.5 -105.5t130.5 -29.5q145 0 190 78t45 166v108q-33 -29 -128 -43t-146.5 -24.5t-95.5 -43t-44 -106.5z" />
<glyph unicode="&#xe3;" horiz-adv-x="1175" d="M66 289q0 162 97 230.5t239.5 88t263.5 37.5q104 27 104 105q0 86 -48 114.5t-140 28.5q-86 0 -135.5 -39t-57.5 -121h-291q0 186 145.5 270t352.5 84q197 0 331 -64.5t134 -236.5v-550q0 -78 9 -141.5t28 -94.5h-295q-10 35 -15.5 55.5t-5.5 46.5q-63 -66 -158.5 -98.5 t-197.5 -32.5q-162 0 -261 80t-99 238zM213 1212q27 117 80.5 183.5t177.5 66.5q33 0 72 -13t65.5 -24.5t62.5 -22.5t67 -11q43 0 64.5 19.5t21.5 51.5h141q-16 -55 -28.5 -87t-37 -67.5t-63.5 -57t-100 -21.5q-43 0 -71 6t-88 26.5t-90 28.5t-63 8q-39 0 -57 -20.5 t-29 -65.5h-125zM356 301q0 -76 48.5 -105.5t130.5 -29.5q145 0 190 78t45 166v108q-33 -29 -128 -43t-146.5 -24.5t-95.5 -43t-44 -106.5z" />
<glyph unicode="&#xe4;" horiz-adv-x="1175" d="M66 289q0 162 97 230.5t239.5 88t263.5 37.5q104 27 104 105q0 86 -48 114.5t-140 28.5q-86 0 -135.5 -39t-57.5 -121h-291q0 186 145.5 270t352.5 84q197 0 331 -64.5t134 -236.5v-550q0 -78 9 -141.5t28 -94.5h-295q-10 35 -15.5 55.5t-5.5 46.5q-63 -66 -158.5 -98.5 t-197.5 -32.5q-162 0 -261 80t-99 238zM240 1223v239h277v-239h-277zM356 301q0 -76 48.5 -105.5t130.5 -29.5q145 0 190 78t45 166v108q-33 -29 -128 -43t-146.5 -24.5t-95.5 -43t-44 -106.5zM662 1223v239h276v-239h-276z" />
<glyph unicode="&#xe5;" horiz-adv-x="1175" d="M66 289q0 162 97 230.5t239.5 88t263.5 37.5q104 27 104 105q0 86 -48 114.5t-140 28.5q-86 0 -135.5 -39t-57.5 -121h-291q0 186 145.5 270t352.5 84q197 0 331 -64.5t134 -236.5v-550q0 -78 9 -141.5t28 -94.5h-295q-10 35 -15.5 55.5t-5.5 46.5q-63 -66 -158.5 -98.5 t-197.5 -32.5q-162 0 -261 80t-99 238zM338 1343q0 102 74 176t176 74q104 0 178 -73.5t74 -176.5q0 -102 -73.5 -175.5t-178.5 -73.5q-102 0 -176 73.5t-74 175.5zM356 301q0 -76 48.5 -105.5t130.5 -29.5q145 0 190 78t45 166v108q-33 -29 -128 -43t-146.5 -24.5 t-95.5 -43t-44 -106.5zM459 1343q0 -61 35 -102t94 -41q57 0 94 41t37 102q0 63 -35.5 103.5t-95.5 40.5q-59 0 -94 -41t-35 -103z" />
<glyph unicode="&#xe6;" horiz-adv-x="1857" d="M78 287q0 164 95 231.5t232.5 88t247.5 36.5q135 29 135 115q0 76 -52 105.5t-136 29.5q-94 0 -148.5 -38t-54.5 -126h-291q0 184 144.5 271t355.5 87q111 0 205 -32.5t145 -110.5q61 72 146.5 107.5t208.5 35.5q250 0 368.5 -178t118.5 -450h-756q0 -113 69 -203 t183 -90q92 0 144.5 43t66.5 123h283q-43 -166 -177 -263.5t-311 -97.5q-123 0 -226 43t-169 138q-68 -90 -186.5 -135.5t-245.5 -45.5q-168 0 -281.5 76t-113.5 240zM369 303q0 -74 52 -105.5t128 -31.5q92 0 165.5 55t73.5 164v131q-35 -29 -119.5 -43t-159.5 -28.5 t-107.5 -49.5t-32.5 -92zM1042 643h465q0 102 -61.5 176t-165.5 74q-106 0 -172 -74t-66 -176z" />
<glyph unicode="&#xe7;" horiz-adv-x="1175" d="M78 514q0 252 144.5 412.5t395.5 160.5q205 0 351.5 -104t146.5 -297h-285q-14 90 -68 136t-147 46q-127 0 -187 -104.5t-60 -239.5t57 -234.5t184 -99.5q98 0 157.5 57.5t74.5 158.5h280q-27 -203 -155.5 -318t-331.5 -115l-57 -82q23 8 42 9.5t31 1.5q78 0 133.5 -36 t55.5 -108q0 -111 -67.5 -157.5t-172.5 -46.5q-86 0 -132 9t-122 36l43 98q33 -14 79 -25.5t93 -11.5q82 0 82 70q0 37 -21.5 51t-60.5 14q-43 0 -82 -14l-43 49l103 147q-207 23 -334 170.5t-127 366.5z" />
<glyph unicode="&#xe8;" horiz-adv-x="1175" d="M59 528q0 242 150.5 400.5t390.5 158.5q252 0 383 -182t131 -446h-764q0 -135 67.5 -202t192.5 -67q84 0 149.5 42t80.5 96h256q-59 -184 -184.5 -270.5t-311.5 -86.5q-248 0 -394.5 155t-146.5 402zM226 1481h321l197 -291h-203zM350 643h473q-20 117 -73.5 171 t-157.5 54q-123 0 -182.5 -72.5t-59.5 -152.5z" />
<glyph unicode="&#xe9;" horiz-adv-x="1175" d="M59 528q0 242 150.5 400.5t390.5 158.5q252 0 383 -182t131 -446h-764q0 -135 67.5 -202t192.5 -67q84 0 149.5 42t80.5 96h256q-59 -184 -184.5 -270.5t-311.5 -86.5q-248 0 -394.5 155t-146.5 402zM350 643h473q-20 117 -73.5 171t-157.5 54q-123 0 -182.5 -72.5 t-59.5 -152.5zM435 1190l196 291h322l-316 -291h-202z" />
<glyph unicode="&#xea;" horiz-adv-x="1175" d="M59 528q0 242 150.5 400.5t390.5 158.5q252 0 383 -182t131 -446h-764q0 -135 67.5 -202t192.5 -67q84 0 149.5 42t80.5 96h256q-59 -184 -184.5 -270.5t-311.5 -86.5q-248 0 -394.5 155t-146.5 402zM230 1190l227 291h266l226 -291h-240l-127 166l-131 -166h-221z M350 643h473q-20 117 -73.5 171t-157.5 54q-123 0 -182.5 -72.5t-59.5 -152.5z" />
<glyph unicode="&#xeb;" horiz-adv-x="1175" d="M59 528q0 242 150.5 400.5t390.5 158.5q252 0 383 -182t131 -446h-764q0 -135 67.5 -202t192.5 -67q84 0 149.5 42t80.5 96h256q-59 -184 -184.5 -270.5t-311.5 -86.5q-248 0 -394.5 155t-146.5 402zM240 1223v239h277v-239h-277zM350 643h473q-20 117 -73.5 171 t-157.5 54q-123 0 -182.5 -72.5t-59.5 -152.5zM662 1223v239h276v-239h-276z" />
<glyph unicode="&#xec;" horiz-adv-x="528" d="M-98 1481h321l197 -291h-203zM119 0v1059h291v-1059h-291z" />
<glyph unicode="&#xed;" horiz-adv-x="528" d="M111 1190l196 291h322l-316 -291h-202zM119 0v1059h291v-1059h-291z" />
<glyph unicode="&#xee;" horiz-adv-x="528" d="M-94 1190l227 291h266l226 -291h-240l-127 166l-131 -166h-221zM119 0v1059h291v-1059h-291z" />
<glyph unicode="&#xef;" horiz-adv-x="528" d="M-84 1223v239h277v-239h-277zM119 0v1059h291v-1059h-291zM338 1223v239h276v-239h-276z" />
<glyph unicode="&#xf1;" horiz-adv-x="1214" d="M111 0v1059h276v-148q59 88 145 132t185 44q219 0 303 -110.5t84 -325.5v-651h-291v598q0 260 -186 260q-121 0 -173.5 -70.5t-52.5 -232.5v-555h-290zM231 1212q27 117 80.5 183.5t177.5 66.5q33 0 72 -13t65.5 -24.5t62.5 -22.5t67 -11q43 0 64.5 19.5t21.5 51.5h141 q-16 -55 -28.5 -87t-37 -67.5t-63.5 -57t-100 -21.5q-43 0 -71 6t-88 26.5t-90 28.5t-63 8q-39 0 -57 -20.5t-29 -65.5h-125z" />
<glyph unicode="&#xf2;" horiz-adv-x="1251" d="M78 528q0 254 148.5 406.5t398.5 152.5q252 0 400.5 -152.5t148.5 -406.5q0 -252 -151 -404.5t-398 -152.5q-250 0 -398.5 152.5t-148.5 404.5zM262 1481h321l197 -291h-203zM369 528q0 -145 59.5 -241.5t196.5 -96.5t197.5 96.5t60.5 241.5q0 147 -59.5 243.5 t-198.5 96.5q-135 0 -195.5 -98t-60.5 -242z" />
<glyph unicode="&#xf3;" horiz-adv-x="1251" d="M78 528q0 254 148.5 406.5t398.5 152.5q252 0 400.5 -152.5t148.5 -406.5q0 -252 -151 -404.5t-398 -152.5q-250 0 -398.5 152.5t-148.5 404.5zM369 528q0 -145 59.5 -241.5t196.5 -96.5t197.5 96.5t60.5 241.5q0 147 -59.5 243.5t-198.5 96.5q-135 0 -195.5 -98 t-60.5 -242zM471 1190l196 291h322l-316 -291h-202z" />
<glyph unicode="&#xf4;" horiz-adv-x="1251" d="M78 528q0 254 148.5 406.5t398.5 152.5q252 0 400.5 -152.5t148.5 -406.5q0 -252 -151 -404.5t-398 -152.5q-250 0 -398.5 152.5t-148.5 404.5zM266 1190l227 291h266l226 -291h-240l-127 166l-131 -166h-221zM369 528q0 -145 59.5 -241.5t196.5 -96.5t197.5 96.5 t60.5 241.5q0 147 -59.5 243.5t-198.5 96.5q-135 0 -195.5 -98t-60.5 -242z" />
<glyph unicode="&#xf5;" horiz-adv-x="1251" d="M78 528q0 254 148.5 406.5t398.5 152.5q252 0 400.5 -152.5t148.5 -406.5q0 -252 -151 -404.5t-398 -152.5q-250 0 -398.5 152.5t-148.5 404.5zM249 1212q27 117 80.5 183.5t177.5 66.5q33 0 72 -13t65.5 -24.5t62.5 -22.5t67 -11q43 0 64.5 19.5t21.5 51.5h141 q-16 -55 -28.5 -87t-37 -67.5t-63.5 -57t-100 -21.5q-43 0 -71 6t-88 26.5t-90 28.5t-63 8q-39 0 -57 -20.5t-29 -65.5h-125zM369 528q0 -145 59.5 -241.5t196.5 -96.5t197.5 96.5t60.5 241.5q0 147 -59.5 243.5t-198.5 96.5q-135 0 -195.5 -98t-60.5 -242z" />
<glyph unicode="&#xf6;" horiz-adv-x="1251" d="M78 528q0 254 148.5 406.5t398.5 152.5q252 0 400.5 -152.5t148.5 -406.5q0 -252 -151 -404.5t-398 -152.5q-250 0 -398.5 152.5t-148.5 404.5zM276 1223v239h277v-239h-277zM369 528q0 -145 59.5 -241.5t196.5 -96.5t197.5 96.5t60.5 241.5q0 147 -59.5 243.5 t-198.5 96.5q-135 0 -195.5 -98t-60.5 -242zM698 1223v239h276v-239h-276z" />
<glyph unicode="&#xf7;" horiz-adv-x="1228" d="M98 408v219h1035v-219h-1035zM442 92q0 74 51 123t123 49q70 0 121 -49t51 -123q0 -66 -52 -120t-118 -54q-74 0 -125 51t-51 123zM442 942q0 72 51 123t123 51q70 0 121 -51t51 -123q0 -66 -51 -119t-119 -53q-74 0 -125 49t-51 123z" />
<glyph unicode="&#xf8;" horiz-adv-x="1251" d="M78 528q0 254 148.5 406.5t398.5 152.5q195 0 333 -98l109 125l76 -65l-111 -125q141 -152 142 -396q0 -252 -151 -404.5t-398 -152.5q-199 0 -338 103l-121 -137l-76 65l123 139q-135 147 -135 387zM369 528q0 -53 6 -95t24 -81l396 451q-29 31 -72 48t-98 17 q-135 0 -195.5 -98t-60.5 -242zM451 260q63 -70 174 -70q137 0 197.5 96.5t60.5 241.5q0 106 -33 187z" />
<glyph unicode="&#xf9;" horiz-adv-x="1214" d="M111 408v651h290v-598q0 -260 187 -260q121 0 173 70.5t52 232.5v555h291v-1059h-277v147q-59 -88 -145 -132t-184 -44q-219 0 -303 111t-84 326zM244 1481h321l197 -291h-203z" />
<glyph unicode="&#xfa;" horiz-adv-x="1214" d="M111 408v651h290v-598q0 -260 187 -260q121 0 173 70.5t52 232.5v555h291v-1059h-277v147q-59 -88 -145 -132t-184 -44q-219 0 -303 111t-84 326zM453 1190l196 291h322l-316 -291h-202z" />
<glyph unicode="&#xfb;" horiz-adv-x="1214" d="M111 408v651h290v-598q0 -260 187 -260q121 0 173 70.5t52 232.5v555h291v-1059h-277v147q-59 -88 -145 -132t-184 -44q-219 0 -303 111t-84 326zM248 1190l227 291h266l226 -291h-240l-127 166l-131 -166h-221z" />
<glyph unicode="&#xfc;" horiz-adv-x="1214" d="M111 408v651h290v-598q0 -260 187 -260q121 0 173 70.5t52 232.5v555h291v-1059h-277v147q-59 -88 -145 -132t-184 -44q-219 0 -303 111t-84 326zM258 1223v239h277v-239h-277zM680 1223v239h276v-239h-276z" />
<glyph unicode="&#xfd;" horiz-adv-x="1062" d="M-12 1059h311l240 -725l235 725h301l-442 -1192q-47 -129 -131 -184.5t-234 -55.5q-80 0 -178 11v239q35 0 96.5 -5t73.5 -5q53 6 83 44t30 89q0 35 -13 66zM377 1190l196 291h322l-316 -291h-202z" />
<glyph unicode="&#xfe;" horiz-adv-x="1251" d="M111 -373v1835h290v-538q53 80 134 121.5t172 41.5q236 0 358.5 -163.5t122.5 -405.5q0 -225 -123 -386t-342 -161q-96 0 -181 42t-136 118l-5 -504h-290zM391 526q0 -145 61.5 -240.5t192.5 -95.5q133 0 192.5 95.5t59.5 240.5q0 143 -61.5 242.5t-192.5 99.5 t-191.5 -98t-60.5 -244z" />
<glyph unicode="&#xff;" horiz-adv-x="1062" d="M-12 1059h311l240 -725l235 725h301l-442 -1192q-47 -129 -131 -184.5t-234 -55.5q-80 0 -178 11v239q35 0 96.5 -5t73.5 -5q53 6 83 44t30 89q0 35 -13 66zM182 1223v239h277v-239h-277zM604 1223v239h276v-239h-276z" />
<glyph unicode="&#x152;" horiz-adv-x="2238" d="M78 723q0 319 186.5 546.5t499.5 227.5q104 0 196.5 -32.5t149.5 -106.5l4 104h1024v-270h-725v-313h664v-250h-664v-359h739v-270h-1038v111q-68 -70 -162 -108t-194 -38q-313 0 -496.5 219t-183.5 539zM399 727q0 -205 94.5 -348t286.5 -143q145 0 233.5 92t88.5 241 v349q0 137 -88 223t-228 86q-197 0 -292 -147.5t-95 -352.5z" />
<glyph unicode="&#x153;" horiz-adv-x="1896" d="M78 535q0 238 143.5 395t376.5 157q115 0 213 -39.5t152 -127.5q53 78 152 122.5t202 44.5q264 0 392 -176t128 -452h-756q0 -119 64.5 -194t187.5 -75q154 0 213 146h283q-51 -172 -182 -268.5t-314 -96.5q-119 0 -222 44t-161 137q-51 -90 -155.5 -135.5t-219.5 -45.5 q-233 0 -365 162t-132 402zM369 524q0 -131 53 -232.5t172 -101.5q131 0 182 100.5t51 241.5q0 182 -62.5 259t-164.5 77q-123 0 -177 -101t-54 -243zM1081 643h465q0 104 -60.5 164.5t-174.5 60.5q-106 0 -168 -63.5t-62 -161.5z" />
<glyph unicode="&#x178;" horiz-adv-x="1366" d="M-18 1462h362l342 -577l340 577h358l-542 -901v-561h-322v569zM334 1626v239h277v-239h-277zM756 1626v239h276v-239h-276z" />
<glyph unicode="&#x2000;" horiz-adv-x="998" />
<glyph unicode="&#x2001;" horiz-adv-x="1996" />
<glyph unicode="&#x2002;" horiz-adv-x="998" />
<glyph unicode="&#x2003;" horiz-adv-x="1996" />
<glyph unicode="&#x2004;" horiz-adv-x="665" />
<glyph unicode="&#x2005;" horiz-adv-x="499" />
<glyph unicode="&#x2006;" horiz-adv-x="332" />
<glyph unicode="&#x2007;" horiz-adv-x="332" />
<glyph unicode="&#x2008;" horiz-adv-x="249" />
<glyph unicode="&#x2009;" horiz-adv-x="399" />
<glyph unicode="&#x200a;" horiz-adv-x="110" />
<glyph unicode="&#x2010;" horiz-adv-x="833" d="M109 434v250h616v-250h-616z" />
<glyph unicode="&#x2011;" horiz-adv-x="833" d="M109 434v250h616v-250h-616z" />
<glyph unicode="&#x2012;" horiz-adv-x="833" d="M109 434v250h616v-250h-616z" />
<glyph unicode="&#x2013;" horiz-adv-x="1024" d="M0 434v250h1024v-250h-1024z" />
<glyph unicode="&#x2014;" horiz-adv-x="2048" d="M0 434v250h2048v-250h-2048z" />
<glyph unicode="&#x2018;" horiz-adv-x="569" d="M139 805v313q0 135 82 231.5t209 112.5v-135q-76 -25 -105.5 -75t-29.5 -132h135v-315h-291z" />
<glyph unicode="&#x2019;" horiz-adv-x="569" d="M139 805v135q76 25 105.5 75t29.5 132h-135v315h291v-313q0 -135 -82 -231.5t-209 -112.5z" />
<glyph unicode="&#x201a;" horiz-adv-x="569" d="M139 0v315h291v-313q0 -135 -82 -231.5t-209 -112.5v135q76 25 105.5 75t29.5 132h-135z" />
<glyph unicode="&#x201c;" horiz-adv-x="948" d="M111 805v313q0 135 81.5 231.5t208.5 112.5v-135q-76 -25 -105.5 -75t-29.5 -132h135v-315h-290zM547 805v313q0 135 82 231.5t209 112.5v-135q-76 -25 -106 -75t-30 -132h136v-315h-291z" />
<glyph unicode="&#x201d;" horiz-adv-x="948" d="M111 805v135q76 25 105.5 75t29.5 132h-135v315h290v-313q0 -135 -81.5 -231.5t-208.5 -112.5zM547 805v135q76 25 105.5 75t29.5 132h-135v315h291v-313q0 -135 -82 -231.5t-209 -112.5z" />
<glyph unicode="&#x201e;" horiz-adv-x="948" d="M111 0v315h290v-313q0 -135 -81.5 -231.5t-208.5 -112.5v135q76 25 105.5 75t29.5 132h-135zM547 0v315h291v-313q0 -135 -82 -231.5t-209 -112.5v135q76 25 105.5 75t29.5 132h-135z" />
<glyph unicode="&#x2022;" horiz-adv-x="1026" d="M147 731q0 152 106.5 258.5t258.5 106.5t259.5 -105.5t107.5 -259.5t-106.5 -260t-260.5 -106q-152 0 -258.5 106.5t-106.5 259.5z" />
<glyph unicode="&#x2026;" horiz-adv-x="2048" d="M180 0v315h322v-315h-322zM862 0v315h322v-315h-322zM1544 0v315h322v-315h-322z" />
<glyph unicode="&#x202f;" horiz-adv-x="399" />
<glyph unicode="&#x2039;" horiz-adv-x="493" d="M86 420v276l322 252v-246l-185 -145l185 -147v-246z" />
<glyph unicode="&#x203a;" horiz-adv-x="493" d="M86 164v246l184 147l-184 145v246l322 -252v-276z" />
<glyph unicode="&#x205f;" horiz-adv-x="499" />
<glyph unicode="&#x2122;" horiz-adv-x="2048" d="M127 1298v164h688v-164h-240v-680h-208v680h-240zM924 618v844h278l211 -555l211 555h277v-844h-197v599l-221 -599h-142l-217 599l-4 -599h-196z" />
<glyph unicode="&#x25fc;" horiz-adv-x="1054" d="M0 0v1055h1055v-1055h-1055z" />
</font>
</defs>
</svg>
