<?xml version="1.0" standalone="no"?>
<!DOCTYPE svg PUBLIC "-//W3C//DTD SVG 1.1//EN" "http://www.w3.org/Graphics/SVG/1.1/DTD/svg11.dtd" >
<svg xmlns="http://www.w3.org/2000/svg">
<metadata></metadata>
<defs>
<font id="helveticaneue-condensedRg" horiz-adv-x="909" >
<font-face units-per-em="2048" ascent="1638" descent="-410" />
<missing-glyph horiz-adv-x="491" />
<glyph horiz-adv-x="0" />
<glyph unicode="&#xd;" horiz-adv-x="491" />
<glyph unicode=" "  horiz-adv-x="491" />
<glyph unicode="&#x09;" horiz-adv-x="491" />
<glyph unicode="&#xa0;" horiz-adv-x="491" />
<glyph unicode="!" horiz-adv-x="528" d="M170 0v197h188v-197h-188zM170 1462h188l-32 -1081h-123z" />
<glyph unicode="&#x22;" horiz-adv-x="833" d="M178 942v520h135v-520h-135zM520 942v520h135v-520h-135z" />
<glyph unicode="#" horiz-adv-x="983" d="M47 420v135h184l39 315h-178v136h197l51 415h135l-51 -415h217l51 415h135l-51 -415h160v-136h-178l-39 -315h170v-135h-187l-53 -420h-135l53 420h-217l-53 -420h-135l53 420h-168zM367 555h217l39 315h-217z" />
<glyph unicode="$" horiz-adv-x="983" d="M43 446h180q0 -147 39 -230t182 -97v536q-236 76 -309.5 166t-73.5 236q0 141 83 267t300 126v119h86v-119q184 0 276.5 -102.5t92.5 -294.5h-180q0 109 -44 174t-145 76v-502q215 -72 312.5 -141.5t97.5 -264.5q0 -213 -121 -318.5t-289 -105.5v-192h-86v192 q-219 0 -310 121t-91 354zM250 1075q0 -96 51 -153.5t143 -92.5v474q-195 -25 -194 -228zM530 119q96 0 159 70.5t63 177.5q0 104 -56.5 162.5t-165.5 97.5v-508z" />
<glyph unicode="%" horiz-adv-x="1554" d="M94 1057q0 242 68.5 317.5t199.5 75.5q166 0 217.5 -102.5t51.5 -290.5q0 -242 -68.5 -317.5t-200.5 -75.5q-166 0 -217 102.5t-51 290.5zM242 1057q0 -121 12 -202t108 -81q78 0 99.5 68t21.5 215q0 121 -12 201.5t-109 80.5q-78 0 -99 -67.5t-21 -214.5zM381 -29 l635 1479h143l-635 -1479h-143zM924 365q0 242 68.5 317.5t199.5 75.5q166 0 217 -102.5t51 -290.5q0 -242 -68.5 -318t-199.5 -76q-166 0 -217 103t-51 291zM1071 365q0 -121 12.5 -202t108.5 -81q78 0 99.5 68t21.5 215q0 121 -12.5 201.5t-108.5 80.5q-78 0 -99.5 -67.5 t-21.5 -214.5z" />
<glyph unicode="&#x26;" horiz-adv-x="1138" d="M51 377q0 113 52.5 209t146.5 170l106 80l-45 73q-66 102 -86 156.5t-20 110.5q0 127 88 206.5t215 79.5q145 0 227 -67.5t82 -210.5q0 -74 -39 -145.5t-162 -174.5l-53 -45l289 -413q27 68 42 133t15 151h160q0 -82 -40 -228.5t-79 -197.5l189 -264h-195l-98 137 q-92 -86 -171 -126t-190 -40q-236 0 -335 131t-99 275zM231 391q0 -127 77 -199.5t192 -72.5q78 0 140 37t122 104l-322 465q-92 -55 -150.5 -140t-58.5 -194zM365 1184q0 -45 22.5 -94.5t65.5 -112.5l34 -49l39 37q70 68 100.5 110.5t30.5 108.5q0 61 -41 102t-106 41 q-68 0 -106.5 -39t-38.5 -104z" />
<glyph unicode="'" horiz-adv-x="491" d="M178 942v520h135v-520h-135z" />
<glyph unicode="(" horiz-adv-x="493" d="M88 543q0 248 77 483.5t222 435.5h98q-117 -193 -171 -430t-54 -489q0 -483 225 -920h-98q-143 197 -221 436.5t-78 483.5z" />
<glyph unicode=")" horiz-adv-x="493" d="M8 -377q117 193 171 430.5t54 489.5q0 483 -225 919h98q143 -197 221.5 -436.5t78.5 -482.5q0 -248 -77 -483.5t-223 -436.5h-98z" />
<glyph unicode="*" horiz-adv-x="720" d="M35 1184l45 119l219 -84v243h123v-243l219 84l45 -119l-231 -70l155 -192l-102 -76l-148 209l-147 -209l-102 76l155 192z" />
<glyph unicode="+" horiz-adv-x="1228" d="M96 451v135h451v450h135v-450h451v-135h-451v-451h-135v451h-451z" />
<glyph unicode="," horiz-adv-x="491" d="M152 0v217h188v-178q0 -145 -34 -227t-154 -115v96q53 27 71.5 59.5t18.5 98.5v49h-90z" />
<glyph unicode="-" horiz-adv-x="720" d="M111 502v160h499v-160h-499z" />
<glyph unicode="." horiz-adv-x="491" d="M152 0v217h188v-217h-188z" />
<glyph unicode="/" horiz-adv-x="569" d="M-20 -29l475 1520h135l-475 -1520h-135z" />
<glyph unicode="0" horiz-adv-x="983" d="M78 705q0 219 24.5 370.5t115.5 263t274 111.5q182 0 272 -103.5t115.5 -259t25.5 -382.5q0 -213 -24.5 -361.5t-115.5 -260.5t-273 -112t-272.5 103.5t-116 256.5t-25.5 374zM258 705q0 -295 42 -447t192 -152q115 0 174 116t59 483q0 381 -58.5 495.5t-174.5 114.5 q-147 0 -190.5 -155.5t-43.5 -454.5z" />
<glyph unicode="1" horiz-adv-x="983" d="M137 1090v122q166 0 262.5 48.5t96.5 189.5h122v-1450h-172v1090h-309z" />
<glyph unicode="2" horiz-adv-x="983" d="M86 0q0 184 85 327.5t228 266.5l119 100q96 84 144.5 161t48.5 187q0 106 -51.5 183.5t-159.5 77.5q-145 0 -187.5 -98.5t-42.5 -215.5h-180q0 217 98.5 339t313.5 122q219 0 304 -124t85 -263q0 -156 -60.5 -259.5t-193.5 -217.5l-205 -178q-59 -51 -101 -115t-57 -133 h623v-160h-811z" />
<glyph unicode="3" horiz-adv-x="983" d="M80 375v18h180q0 -113 58.5 -200t173.5 -87q98 0 164.5 66t66.5 234q0 131 -64.5 203.5t-197.5 72.5h-92v135h90q111 0 166 70.5t55 185.5q0 109 -45 175.5t-143 66.5q-127 0 -168 -83t-41 -200h-181q0 195 94.5 306.5t290.5 111.5q205 0 289 -112.5t84 -264.5 q0 -115 -57.5 -200t-167.5 -111q127 -29 197.5 -113t70.5 -229q0 -207 -103.5 -328t-307.5 -121q-195 0 -303.5 113t-108.5 291z" />
<glyph unicode="4" horiz-adv-x="983" d="M61 350v162l525 938h172v-952h164v-148h-164v-350h-172v350h-525zM217 498h369v669z" />
<glyph unicode="5" horiz-adv-x="983" d="M82 373h180q0 -94 47 -180.5t174 -86.5q135 0 186.5 115t51.5 262q0 139 -57.5 233.5t-184.5 94.5q-84 0 -144.5 -52t-60.5 -89l-155 8l80 743h647v-159h-510l-57 -420l4 -4q43 53 109.5 80.5t144.5 27.5q168 0 266 -125t98 -352q0 -221 -103.5 -359.5t-318.5 -138.5 q-225 0 -311 131t-86 271z" />
<glyph unicode="6" horiz-adv-x="983" d="M72 659q0 223 25.5 387t122.5 284t292 120q217 0 292 -119t75 -229h-181q0 92 -50 152.5t-140 60.5q-121 0 -188.5 -120t-67.5 -316v-115q37 59 106.5 110.5t173.5 51.5q184 0 281.5 -123t97.5 -336q0 -219 -106.5 -357.5t-302.5 -138.5q-266 0 -348 192.5t-82 495.5z M272 442q0 -137 53.5 -236.5t176.5 -99.5t176 99.5t53 236.5q0 145 -48 240.5t-181 95.5q-129 0 -179.5 -97t-50.5 -239z" />
<glyph unicode="7" horiz-adv-x="983" d="M78 1262v159h827v-149q-66 -86 -146.5 -222.5t-147 -296t-119 -355t-70.5 -398.5h-201q20 168 64.5 332t143.5 407.5t312 522.5h-663z" />
<glyph unicode="8" horiz-adv-x="983" d="M76 399q0 289 256 373q-111 45 -161 118t-50 191q0 176 98 272.5t273 96.5q172 0 271 -97.5t99 -271.5q0 -223 -211 -309q256 -84 256 -373q0 -174 -96 -301t-319 -127t-319.5 127t-96.5 301zM256 406q0 -137 57.5 -218.5t178.5 -81.5q119 0 177 82t58 218 q0 137 -57.5 218t-177.5 81q-119 0 -177.5 -82t-58.5 -217zM301 1077q0 -106 47 -171.5t144 -65.5q94 0 142 65.5t48 171.5q0 109 -47 173.5t-143 64.5t-143.5 -64.5t-47.5 -173.5z" />
<glyph unicode="9" horiz-adv-x="983" d="M72 954q0 219 106.5 357.5t302.5 138.5q266 0 348 -192.5t82 -495.5q0 -223 -25.5 -387t-122.5 -284t-292 -120q-217 0 -292 119t-75 229h181q0 -92 50 -152.5t140 -60.5q121 0 188.5 120t67.5 317v114q-37 -59 -106.5 -110t-173.5 -51q-184 0 -281.5 122.5t-97.5 335.5z M252 979q0 -145 49 -240.5t180 -95.5q129 0 179.5 97.5t50.5 238.5q0 137 -53.5 236.5t-176.5 99.5t-176 -99.5t-53 -236.5z" />
<glyph unicode=":" horiz-adv-x="491" d="M152 0v217h188v-217h-188zM152 819v217h188v-217h-188z" />
<glyph unicode=";" horiz-adv-x="491" d="M152 0v217h188v-178q0 -145 -34 -227t-154 -115v96q53 27 71.5 59.5t18.5 98.5v49h-90zM152 819v217h188v-217h-188z" />
<glyph unicode="&#x3c;" horiz-adv-x="1228" d="M96 457v123l1037 473v-135l-877 -400l877 -399v-135z" />
<glyph unicode="=" horiz-adv-x="1228" d="M96 242v135h1037v-135h-1037zM96 659v136h1037v-136h-1037z" />
<glyph unicode="&#x3e;" horiz-adv-x="1228" d="M96 -16v135l877 399l-877 400v135l1037 -473v-123z" />
<glyph unicode="?" d="M72 1032q0 195 96 321t285 126q180 0 282.5 -108.5t102.5 -276.5q0 -164 -103 -289l-160 -180q-35 -45 -50 -99.5t-15 -105.5v-39h-160q0 123 7.5 164t35 93t89 124t114.5 133q61 80 61 209q0 96 -51 161.5t-147 65.5q-131 0 -173 -90t-42 -209h-172zM338 0v197h188v-197 h-188z" />
<glyph unicode="@" horiz-adv-x="1638" d="M59 731q0 315 222.5 537.5t537.5 222.5q330 0 545 -178t215 -455q0 -252 -165 -414.5t-363 -162.5q-129 0 -144 120q-59 -57 -118.5 -88.5t-141.5 -31.5q-117 0 -204 87t-87 220q0 223 135.5 400t344.5 177q80 0 141 -40t92 -128l49 129h115l-172 -577 q-14 -51 -16.5 -59.5t-2.5 -32.5q0 -23 15.5 -38.5t44.5 -15.5q139 0 240.5 135.5t101.5 311.5q0 229 -178.5 373.5t-446.5 144.5q-264 0 -444 -184.5t-180 -452.5q0 -272 180 -454.5t444 -182.5q188 0 330.5 57.5t224.5 170.5h129q-100 -170 -273 -260.5t-411 -90.5 q-315 0 -537.5 222.5t-222.5 537.5zM492 600q0 -86 53 -141.5t139 -55.5q131 0 224 149.5t93 285.5q0 76 -45 140t-120 64q-139 0 -241.5 -144t-102.5 -298z" />
<glyph unicode="A" horiz-adv-x="1024" d="M-16 0l422 1462h241l393 -1462h-188l-104 401h-467l-109 -401h-188zM317 549h394l-187 706z" />
<glyph unicode="B" horiz-adv-x="1062" d="M119 0v1462h448q162 0 268.5 -88t106.5 -287q0 -104 -56.5 -190t-156.5 -115q131 -35 195.5 -130t64.5 -234q0 -219 -118.5 -318.5t-354.5 -99.5h-397zM299 147h246q133 0 194.5 77t61.5 194q0 143 -79 210.5t-208 67.5h-215v-549zM299 831h207q92 0 170 48.5t78 195.5 q0 117 -61.5 178.5t-190.5 61.5h-203v-484z" />
<glyph unicode="C" horiz-adv-x="1062" d="M98 731q0 338 98.5 549t372.5 211q219 0 325.5 -117t106.5 -338h-188q0 137 -56.5 222t-187.5 85q-172 0 -227 -154.5t-55 -457.5q0 -299 55 -455.5t227 -156.5q147 0 201.5 109.5t54.5 273.5h189q0 -227 -109.5 -379t-335.5 -152q-195 0 -298 105.5t-138 271.5t-35 383z " />
<glyph unicode="D" horiz-adv-x="1138" d="M137 0v1462h391q311 0 411.5 -186t100.5 -545q0 -324 -108.5 -527.5t-384.5 -203.5h-410zM317 147h189q162 0 254 124t92 458q0 279 -62.5 432.5t-283.5 153.5h-189v-1168z" />
<glyph unicode="E" horiz-adv-x="948" d="M119 0v1462h755v-159h-575v-459h543v-160h-543v-524h600v-160h-780z" />
<glyph unicode="F" d="M119 0v1462h755v-159h-575v-459h543v-160h-543v-684h-180z" />
<glyph unicode="G" horiz-adv-x="1099" d="M98 731q0 338 98.5 549t372.5 211q211 0 321.5 -117t110.5 -317h-188q0 129 -58.5 207.5t-185.5 78.5q-172 0 -227 -154.5t-55 -457.5q0 -299 55 -455.5t227 -156.5q164 0 216.5 143.5t52.5 349.5h-289v148h452v-760h-135v199q-35 -98 -119.5 -163t-199.5 -65 q-260 0 -354.5 205t-94.5 555z" />
<glyph unicode="H" horiz-adv-x="1099" d="M119 0v1462h180v-598h502v598h180v-1462h-180v705h-502v-705h-180z" />
<glyph unicode="I" horiz-adv-x="417" d="M119 0v1462h180v-1462h-180z" />
<glyph unicode="J" horiz-adv-x="872" d="M45 305v121h172v-107q0 -96 39 -148t129 -52q115 0 151.5 70.5t36.5 236.5v1036h181v-1042q0 -219 -78 -334t-289 -115q-172 0 -257 95.5t-85 238.5z" />
<glyph unicode="K" horiz-adv-x="1024" d="M119 0v1462h180v-708l510 708h201l-443 -610l480 -852h-201l-395 705l-152 -207v-498h-180z" />
<glyph unicode="L" d="M119 0v1462h180v-1302h594v-160h-774z" />
<glyph unicode="M" horiz-adv-x="1441" d="M123 0v1462h303l293 -1159l297 1159h303v-1462h-180v1278l-328 -1278h-180l-324 1278l-4 -1278h-180z" />
<glyph unicode="N" horiz-adv-x="1138" d="M119 0v1462h233l484 -1220l4 1220h180v-1462h-248l-469 1184l-4 -1184h-180z" />
<glyph unicode="O" horiz-adv-x="1138" d="M98 731q0 338 98.5 549t372.5 211t372.5 -211t98.5 -549t-98 -549t-373 -211q-274 0 -372.5 211t-98.5 549zM287 731q0 -299 55 -455.5t227 -156.5t227.5 154.5t55.5 457.5q0 299 -55.5 455.5t-227.5 156.5t-227 -154.5t-55 -457.5z" />
<glyph unicode="P" horiz-adv-x="985" d="M119 0v1462h373q233 0 342.5 -105.5t109.5 -314.5q0 -201 -115.5 -312.5t-306.5 -111.5h-223v-618h-180zM299 766h215q106 0 174 71.5t68 213.5q0 125 -61.5 194.5t-192.5 69.5h-203v-549z" />
<glyph unicode="Q" horiz-adv-x="1138" d="M98 731q0 338 98.5 549t372.5 211t372.5 -211t98.5 -549q0 -184 -25.5 -328.5t-92.5 -248.5l147 -136l-100 -106l-148 133q-100 -74 -252 -74q-274 0 -372.5 211t-98.5 549zM287 731q0 -299 55 -455.5t227 -156.5q80 0 133 35l-141 127l101 110l135 -123q33 80 44 190.5 t11 272.5q0 299 -55.5 455.5t-227.5 156.5t-227 -154.5t-55 -457.5z" />
<glyph unicode="R" horiz-adv-x="1062" d="M119 0v1462h473q172 0 273.5 -97t101.5 -269q0 -139 -52.5 -239.5t-173.5 -129.5q94 -14 150.5 -83t56.5 -165l13 -250q0 -111 19 -157.5t58 -71.5h-217q-23 23 -36 85t-13 126l-12 227q0 133 -60.5 173t-156.5 40h-244v-651h-180zM299 799h178q129 0 215 49t86 233 q0 109 -68.5 171.5t-195.5 62.5h-215v-516z" />
<glyph unicode="S" horiz-adv-x="1024" d="M63 459h181q0 -164 48 -252t226 -88q109 0 181.5 70.5t72.5 187.5q0 168 -178 248q-166 66 -332 131q-180 104 -180 331q0 150 91 277t337 127q207 0 308.5 -101.5t101.5 -306.5h-181q0 125 -52 192.5t-175 67.5q-242 0 -242 -237q0 -168 179 -246q166 -63 331 -127 q180 -102 181 -327q0 -231 -134.5 -333t-320.5 -102q-244 0 -343.5 121t-99.5 367z" />
<glyph unicode="T" horiz-adv-x="948" d="M16 1303v159h916v-159h-369v-1303h-180v1303h-367z" />
<glyph unicode="U" horiz-adv-x="1062" d="M102 434v1028h181v-1028q0 -166 57 -240.5t190 -74.5q139 0 194.5 76.5t55.5 238.5v1028h181v-1028q0 -215 -110 -339t-321 -124q-217 0 -322.5 118t-105.5 345z" />
<glyph unicode="V" horiz-adv-x="946" d="M-4 1462h188l287 -1255l291 1255h188l-368 -1462h-230z" />
<glyph unicode="W" horiz-adv-x="1478" d="M16 1462h181l223 -1196l211 1196h217l207 -1196l227 1196h180l-301 -1462h-219l-201 1184l-215 -1184h-219z" />
<glyph unicode="X" horiz-adv-x="985" d="M4 0l389 743l-360 719h200l267 -547l268 547h188l-364 -719l389 -743h-201l-291 586l-296 -586h-189z" />
<glyph unicode="Y" horiz-adv-x="946" d="M-4 1462h199l278 -684l289 684h188l-387 -889v-573h-180v573z" />
<glyph unicode="Z" horiz-adv-x="948" d="M47 0v152l658 1151h-621v159h809v-166l-657 -1136h665v-160h-854z" />
<glyph unicode="[" horiz-adv-x="530" d="M160 -377v1839h366v-135h-207v-1569h207v-135h-366z" />
<glyph unicode="\" horiz-adv-x="569" d="M-20 1491h135l475 -1520h-135z" />
<glyph unicode="]" horiz-adv-x="530" d="M4 -242h207v1569h-207v135h367v-1839h-367v135z" />
<glyph unicode="^" horiz-adv-x="1228" d="M96 535l469 886h99l469 -886h-136l-383 739l-383 -739h-135z" />
<glyph unicode="_" horiz-adv-x="1024" d="M0 -154h1024v-102h-1024v102z" />
<glyph unicode="`" horiz-adv-x="417" d="M-33 1540h201l143 -291h-123z" />
<glyph unicode="a" d="M59 291q0 119 50.5 194.5t156.5 108.5l232 70q86 27 105.5 57.5t19.5 107.5q0 162 -177 162q-94 0 -141 -56t-47 -159v-10h-172q0 188 86 274t283 86q217 0 275 -91t58 -224v-612q0 -45 8.5 -66.5t45.5 -21.5q27 0 41 10v-123q-29 -4 -49.5 -7t-51.5 -3 q-74 0 -114.5 23.5t-40.5 117.5q-43 -72 -117 -115t-152 -43q-150 0 -224.5 85t-74.5 235zM240 295q0 -90 35.5 -139.5t119.5 -49.5q88 0 154.5 62.5t66.5 146.5v283q-29 -31 -112.5 -62.5t-179.5 -66.5q-45 -29 -64.5 -65.5t-19.5 -108.5z" />
<glyph unicode="b" horiz-adv-x="948" d="M113 0v1462h172v-489q33 72 102.5 112.5t155.5 40.5q197 0 265.5 -170t68.5 -407q0 -252 -89.5 -415t-269.5 -163q-86 0 -152.5 49.5t-84.5 114.5l-5 -135h-163zM274 549q0 -197 47.5 -313.5t174.5 -116.5q111 0 155.5 111.5t44.5 318.5q0 217 -43 323.5t-157 106.5 q-127 0 -174.5 -119t-47.5 -311z" />
<glyph unicode="c" horiz-adv-x="872" d="M66 535q0 338 106.5 464.5t284.5 126.5q197 0 273.5 -113.5t76.5 -248.5h-172q0 94 -41 160.5t-133 66.5q-98 0 -156.5 -91t-58.5 -363q0 -178 36.5 -304.5t172.5 -126.5q100 0 140 81t40 194h172q0 -160 -86 -285t-275 -125q-199 0 -289.5 138.5t-90.5 425.5z" />
<glyph unicode="d" horiz-adv-x="948" d="M72 549q0 242 69.5 409.5t276.5 167.5q76 0 144.5 -42t96.5 -111l5 489h172v-1462h-164v135q-20 -66 -88 -115t-154 -49q-188 0 -273 151.5t-85 426.5zM252 549q0 -217 43 -323.5t158 -106.5q133 0 177 107.5t44 322.5q0 193 -47 311.5t-174 118.5q-113 0 -157 -108.5 t-44 -321.5z" />
<glyph unicode="e" d="M76 535q0 338 106.5 464.5t284.5 126.5q223 0 295 -147.5t72 -380.5v-70h-578q0 -193 36 -307.5t175 -114.5q106 0 146 81t40 173h172q0 -129 -86 -259t-282 -130q-199 0 -290 138.5t-91 425.5zM262 664h391v59q0 113 -43 190.5t-147 77.5q-117 0 -159 -97t-42 -189v-41z " />
<glyph unicode="f" horiz-adv-x="530" d="M4 963v135h160v129q0 252 237 252h125v-148h-80q-111 0 -110 -104v-129h188v-135h-188v-963h-172v963h-160z" />
<glyph unicode="g" horiz-adv-x="948" d="M72 549q0 254 82 415.5t276 161.5q86 0 152.5 -49t85.5 -119l4 140h164v-1028q0 -236 -97.5 -341.5t-275.5 -105.5q-119 0 -230.5 48t-130.5 227h172q0 -70 51.5 -105t125.5 -35q111 0 162 55.5t51 190.5v143q-31 -68 -99.5 -107.5t-152.5 -39.5q-207 0 -273.5 177 t-66.5 372zM252 549q0 -227 53 -314.5t146 -87.5q129 0 176 105.5t47 296.5q0 193 -47 311.5t-174 118.5q-113 0 -157 -108.5t-44 -321.5z" />
<glyph unicode="h" horiz-adv-x="948" d="M113 0v1462h172v-489q37 66 113.5 109.5t154.5 43.5q184 0 233.5 -97t49.5 -251v-778h-172v758q0 92 -30 156.5t-132 64.5q-84 0 -150.5 -54.5t-66.5 -166.5v-758h-172z" />
<glyph unicode="i" horiz-adv-x="417" d="M123 0v1098h172v-1098h-172zM123 1266v196h172v-196h-172z" />
<glyph unicode="j" horiz-adv-x="417" d="M-47 -223l63 -6q72 0 89.5 44t17.5 140v1143h172v-1204q0 -139 -61.5 -205t-200.5 -66l-80 6v148zM123 1266v196h172v-196h-172z" />
<glyph unicode="k" d="M113 0v1462h172v-870l389 506h200l-333 -414l391 -684h-201l-305 543l-141 -172v-371h-172z" />
<glyph unicode="l" horiz-adv-x="417" d="M123 0v1462h172v-1462h-172z" />
<glyph unicode="m" horiz-adv-x="1478" d="M129 0v1098h164v-129q37 74 111.5 115.5t158.5 41.5q188 0 238 -174q37 74 107.5 124t152.5 50q188 0 238.5 -98t50.5 -250v-778h-172v758q0 94 -28 157.5t-120 63.5q-76 0 -140.5 -52.5t-64.5 -168.5v-758h-172v758q0 94 -27.5 157.5t-119.5 63.5q-76 0 -140.5 -52.5 t-64.5 -168.5v-758h-172z" />
<glyph unicode="n" horiz-adv-x="948" d="M113 0v1098h163v-129q37 74 112 115.5t159 41.5q188 0 238.5 -98t50.5 -250v-778h-172v758q0 92 -30 156.5t-132 64.5q-84 0 -150.5 -54.5t-66.5 -166.5v-758h-172z" />
<glyph unicode="o" d="M59 549q0 266 87.5 421.5t308.5 155.5q219 0 307 -157.5t88 -419.5q0 -266 -87 -422t-308 -156q-219 0 -307.5 158t-88.5 420zM240 549q0 -207 45 -325t166 -118q127 0 173 117t46 326q0 211 -46 326.5t-173 115.5q-119 0 -165 -118.5t-46 -323.5z" />
<glyph unicode="p" horiz-adv-x="948" d="M113 -360v1458h163v-135q20 66 88 114.5t154 48.5q186 0 272.5 -148.5t86.5 -408.5q0 -233 -83 -415.5t-276 -182.5q-76 0 -138.5 41t-90.5 113l-4 -485h-172zM274 549q0 -193 47.5 -311.5t174.5 -118.5q113 0 156.5 111.5t43.5 338.5q0 201 -43 305.5t-157 104.5 q-133 0 -177.5 -107.5t-44.5 -322.5z" />
<glyph unicode="q" horiz-adv-x="948" d="M72 569q0 264 85 410.5t273 146.5q86 0 152.5 -49t85.5 -114l4 135h164v-1458h-172v485q-33 -72 -96.5 -113t-137.5 -41q-195 0 -276.5 170t-81.5 428zM252 569q0 -231 42 -340.5t159 -109.5q127 0 174 118.5t47 311.5q0 215 -44 322.5t-177 107.5q-113 0 -157 -104.5 t-44 -305.5z" />
<glyph unicode="r" horiz-adv-x="606" d="M113 0v1098h172v-164q47 92 101 142t140 50q51 0 76 -12v-168q-16 2 -39.5 5t-52.5 3q-78 0 -151.5 -68.5t-73.5 -191.5v-694h-172z" />
<glyph unicode="s" horiz-adv-x="833" d="M51 360h172q0 -115 44 -184.5t161 -69.5q90 0 136 49.5t46 133.5q0 96 -61.5 135t-203.5 87t-207.5 104.5t-65.5 207.5q0 147 99 225t251 78q209 0 271.5 -102t62.5 -248h-172q0 111 -35 163t-127 52q-68 0 -123 -32.5t-55 -135.5q0 -84 54 -114.5t201.5 -79.5 t215 -108.5t67.5 -205.5q0 -168 -97 -256t-257 -88q-188 0 -282.5 92.5t-94.5 296.5z" />
<glyph unicode="t" horiz-adv-x="530" d="M4 963v135h160v319h172v-319h190v-135h-190v-705q0 -68 23.5 -95.5t89.5 -27.5q27 0 43 2l32 4v-141q-10 -2 -60 -7t-79 -5q-127 0 -174 51t-47 166v758h-160z" />
<glyph unicode="u" horiz-adv-x="948" d="M113 319v779h172v-758q0 -92 29.5 -156.5t131.5 -64.5q84 0 151 54t67 167v758h172v-1098h-164v129q-37 -74 -112 -116t-159 -42q-188 0 -238 98.5t-50 249.5z" />
<glyph unicode="v" horiz-adv-x="831" d="M20 1098h189l205 -881l209 881h188l-297 -1098h-197z" />
<glyph unicode="w" horiz-adv-x="1327" d="M20 1098h181l176 -897l190 897h203l182 -897l174 897h181l-260 -1098h-189l-192 897l-189 -897h-201z" />
<glyph unicode="x" horiz-adv-x="831" d="M12 0l301 571l-280 527h188l199 -391l201 391h188l-287 -527l297 -571h-188l-219 434l-211 -434h-189z" />
<glyph unicode="y" horiz-adv-x="831" d="M20 1098h189l217 -881l197 881h188l-317 -1172q-49 -180 -116 -233t-177 -53q-47 0 -74 2t-51 4v135q37 -6 100 -6q55 0 86 27.5t49 78.5l33 96z" />
<glyph unicode="z" horiz-adv-x="796" d="M55 0v135l498 815h-473v148h661v-144l-491 -807h487v-147h-682z" />
<glyph unicode="{" horiz-adv-x="530" d="M4 481v123q68 0 112 61.5t44 165.5v365q0 141 61.5 203.5t159.5 62.5h145v-135h-104q-66 0 -84.5 -46t-18.5 -122v-352q0 -129 -61 -191.5t-119 -70.5q59 -14 119.5 -75.5t60.5 -190.5v-353q0 -82 17.5 -125t85.5 -43h104v-135h-145q-98 0 -159.5 61.5t-61.5 204.5v365 q0 106 -43 166.5t-113 60.5z" />
<glyph unicode="|" horiz-adv-x="454" d="M160 -29v1520h135v-1520h-135z" />
<glyph unicode="}" horiz-adv-x="530" d="M4 -242h105q66 0 84 46t18 122v353q0 129 61.5 191t118.5 71q-59 14 -119.5 75.5t-60.5 190.5v352q0 82 -17.5 125t-84.5 43h-105v135h146q98 0 159.5 -61.5t61.5 -204.5v-365q0 -106 43 -166.5t112 -60.5v-123q-68 0 -111.5 -61.5t-43.5 -165.5v-365 q0 -141 -61.5 -203.5t-159.5 -62.5h-146v135z" />
<glyph unicode="~" horiz-adv-x="1228" d="M115 473q63 88 125.5 139.5t152.5 51.5q63 0 101 -9.5t101.5 -45.5t123 -68.5t106.5 -32.5q61 0 111.5 43t91.5 106l86 -92q-61 -88 -124.5 -140t-153.5 -52q-63 0 -101.5 9t-102 45t-122.5 68.5t-107 32.5q-61 0 -111 -43t-91 -106z" />
<glyph unicode="&#xa1;" horiz-adv-x="528" d="M170 -360l33 1081h123l32 -1081h-188zM170 905v197h188v-197h-188z" />
<glyph unicode="&#xa2;" horiz-adv-x="983" d="M121 535q0 248 70.5 409.5t273.5 181.5v144h86v-144q174 0 242.5 -114.5t68.5 -247.5h-172q0 88 -32.5 151.5t-106.5 75.5v-885q76 18 107.5 96.5t31.5 178.5h172q0 -152 -73.5 -272.5t-237.5 -137.5v-174h-86v174q-176 0 -260 142.5t-84 421.5zM301 537 q0 -166 28.5 -286t135.5 -145v885q-76 -18 -120 -118.5t-44 -335.5z" />
<glyph unicode="&#xa3;" horiz-adv-x="983" d="M39 121q125 100 189.5 183t64.5 198q0 92 -43 157h-195v123h144l-33 64q-33 63 -50.5 119.5t-17.5 115.5q0 172 116 270.5t296 98.5q188 0 296.5 -103.5t108.5 -312.5h-172q0 125 -55 203t-178 78q-121 0 -176 -64.5t-55 -150.5q0 -76 30.5 -144.5t83.5 -173.5h336v-123 h-291q16 -31 25.5 -67.5t9.5 -71.5q0 -129 -85 -219t-175 -164l4 -4q59 29 96 43t78 14q37 0 60.5 -6t58.5 -20t68.5 -23.5t70.5 -9.5q63 0 97 15.5t122 64.5l76 -137q-70 -49 -138.5 -76t-143.5 -27q-72 0 -182.5 42t-166.5 42q-51 0 -100 -22l-96 -45z" />
<glyph unicode="&#xa4;" horiz-adv-x="983" d="M37 342l96 96q-92 121 -92 273q0 150 92 270l-96 96l88 88l96 -96q117 92 271 92q74 0 143.5 -23.5t126.5 -68.5l96 96l88 -88l-96 -96q92 -117 92 -270q0 -76 -24.5 -144.5t-69.5 -126.5l98 -98l-86 -86l-98 98q-117 -94 -270 -94q-74 0 -143.5 23.5t-129.5 68.5 l-96 -96zM188 711q0 -133 87.5 -224.5t216.5 -91.5q127 0 215 90t88 226q0 133 -87 224t-216 91q-127 0 -215.5 -90t-88.5 -225z" />
<glyph unicode="&#xa5;" horiz-adv-x="983" d="M18 1421h199l279 -663l288 663h181l-308 -694h226v-123h-281l-20 -45v-123h301v-123h-301v-313h-172v313h-301v123h301v123l-21 45h-280v123h225z" />
<glyph unicode="&#xa6;" horiz-adv-x="454" d="M160 -29v602h135v-602h-135zM160 889v602h135v-602h-135z" />
<glyph unicode="&#xa7;" horiz-adv-x="987" d="M61 655q0 104 47.5 164t153.5 127q-61 39 -96 105.5t-35 140.5q0 139 105.5 219t248.5 80q213 0 281 -94t80 -213h-180q0 80 -52.5 126t-128.5 46q-82 0 -128 -48t-46 -106q0 -61 42 -103t122 -91l205 -123q119 -74 182.5 -145.5t63.5 -182.5q0 -94 -50.5 -169 t-132.5 -132q59 -37 89 -106.5t30 -147.5q0 -147 -104.5 -232t-251.5 -85q-203 0 -289 111.5t-86 244.5h172q0 -98 51.5 -159.5t151.5 -61.5q98 0 137 56t39 118q0 51 -34 103.5t-136 115.5l-231 143q-96 59 -158 134t-62 165zM233 678q0 -55 37 -94t107 -82l135 -86 l123 -84q45 27 82 74t37 120q0 66 -42 115t-116 94l-225 139q-61 -45 -99.5 -89t-38.5 -107z" />
<glyph unicode="&#xa8;" horiz-adv-x="417" d="M-37 1298v207h160v-207h-160zM295 1298v207h160v-207h-160z" />
<glyph unicode="&#xa9;" horiz-adv-x="1638" d="M59 731q0 315 222.5 537.5t537.5 222.5t537.5 -222t222.5 -538q0 -315 -222 -537.5t-538 -222.5q-315 0 -537.5 222.5t-222.5 537.5zM195 731q0 -264 182 -450.5t442 -186.5t442.5 186.5t182.5 450.5t-182.5 450.5t-442.5 186.5t-442 -186.5t-182 -450.5zM383 725 q0 211 120 341t328 130q160 0 271.5 -81t132.5 -236h-123q-16 82 -94 138t-187 56q-143 0 -228 -98t-85 -250q0 -147 86 -247.5t227 -100.5q113 0 188 54t93 140h123q-20 -154 -132 -235.5t-272 -81.5q-205 0 -326.5 130t-121.5 341z" />
<glyph unicode="&#xaa;" horiz-adv-x="591" d="M16 942q0 78 34 122t114 66l149 41q53 14 65.5 33t12.5 60q0 88 -110 88q-59 0 -90 -31t-31 -88v-8h-123q0 121 58.5 173t201.5 52q141 0 179 -55.5t38 -141.5v-360v-29q6 -27 35 -26q16 0 20 1t6 5v-86q-10 -2 -28.5 -4t-48.5 -2q-45 0 -74 22.5t-29 71.5 q-59 -94 -184 -94q-94 0 -144.5 52t-50.5 138zM152 950q0 -43 22.5 -71.5t71.5 -28.5q55 0 100 35t45 78v157q-18 -18 -98 -43.5t-100.5 -39t-30.5 -31t-10 -56.5z" />
<glyph unicode="&#xab;" horiz-adv-x="796" d="M100 502v160l291 292v-180l-192 -192l192 -193v-180zM406 502v160l290 292v-180l-192 -192l192 -193v-180z" />
<glyph unicode="&#xac;" horiz-adv-x="1228" d="M96 659v136h1037v-578h-136v442h-901z" />
<glyph unicode="&#xad;" horiz-adv-x="720" d="M111 502v160h499v-160h-499z" />
<glyph unicode="&#xae;" horiz-adv-x="1638" d="M59 731q0 315 222.5 537.5t537.5 222.5t537.5 -222t222.5 -538q0 -315 -222 -537.5t-538 -222.5q-315 0 -537.5 222.5t-222.5 537.5zM195 731q0 -264 182 -450.5t442 -186.5t442.5 186.5t182.5 450.5t-182.5 450.5t-442.5 186.5t-442 -186.5t-182 -450.5zM516 283v888 h344q303 0 303 -260q0 -113 -65.5 -173t-173.5 -72l254 -383h-136l-245 372h-146v-372h-135zM651 778h146q119 0 175 23.5t56 116.5q0 78 -52 104.5t-140 26.5h-185v-271z" />
<glyph unicode="&#xb0;" horiz-adv-x="819" d="M104 1145q0 133 86.5 219t219.5 86t219 -86t86 -219t-86 -219t-219 -86t-219.5 86t-86.5 219zM215 1145q0 -80 57.5 -137.5t137.5 -57.5t137 57.5t57 137.5t-57.5 137t-136.5 57q-80 0 -137.5 -57t-57.5 -137z" />
<glyph unicode="&#xb1;" horiz-adv-x="1228" d="M96 0v135h1037v-135h-1037zM96 604v135h451v297h135v-297h451v-135h-451v-297h-135v297h-451z" />
<glyph unicode="&#xb2;" horiz-adv-x="638" d="M41 1171q0 129 65.5 204t219.5 75q123 0 197.5 -60.5t74.5 -172.5q0 -94 -39 -157t-127 -132l-127 -103q-35 -27 -60.5 -63.5t-35.5 -65.5h369v-123h-535q0 113 55.5 197t149.5 162l76 61q63 51 95 97.5t32 113.5q0 57 -33 90t-103 33q-76 0 -101.5 -48t-25.5 -108h-147z " />
<glyph unicode="&#xb3;" horiz-adv-x="638" d="M33 801v10h147q0 -55 36 -98t108 -43q51 0 93 34.5t42 114.5q0 72 -40 112t-124 40h-57v110h49q72 0 109.5 40t37.5 102q0 51 -28.5 83.5t-83.5 32.5q-76 0 -101.5 -44t-25.5 -97h-148q0 121 65.5 186.5t213.5 65.5q143 0 199.5 -66.5t56.5 -160.5q0 -70 -44 -121 t-128 -68q92 -18 144 -68.5t52 -138.5q0 -125 -69.5 -196.5t-208.5 -71.5q-174 0 -234.5 85t-60.5 157z" />
<glyph unicode="&#xb4;" horiz-adv-x="417" d="M106 1249l144 291h201l-222 -291h-123z" />
<glyph unicode="&#xb5;" horiz-adv-x="948" d="M113 -360v1458h172v-758q0 -92 29.5 -156.5t131.5 -64.5q84 0 151 54t67 167v758h172v-1098h-164v129q-37 -74 -112 -116t-159 -42q-45 0 -68.5 5.5t-47.5 23.5v-360h-172z" />
<glyph unicode="&#xb6;" horiz-adv-x="1138" d="M74 1040q0 199 131 310.5t352 111.5h420v-1749h-135v1639h-205v-1639h-135v946q-184 0 -306 110t-122 271z" />
<glyph unicode="&#xb8;" horiz-adv-x="417" d="M-2 -393l31 69q6 -2 60 -13t71 -11q59 0 85.5 22.5t26.5 61.5q0 33 -27.5 54.5t-68.5 21.5q-59 0 -78 -15l-30 37l120 178h86l-84 -123l5 -4q8 4 29.5 8.5t31.5 4.5q61 0 112.5 -39t51.5 -117q0 -76 -64.5 -126t-154.5 -50q-59 0 -113.5 10t-89.5 31z" />
<glyph unicode="&#xb9;" horiz-adv-x="638" d="M66 1214v99q109 0 170 26.5t61 110.5h100v-877h-135v641h-196z" />
<glyph unicode="&#xba;" horiz-adv-x="591" d="M33 1104q0 156 57 251t203 95q147 0 206.5 -96t59.5 -250q0 -160 -59.5 -256t-206.5 -96q-145 0 -202.5 96t-57.5 256zM168 1104q0 -113 26.5 -183.5t98.5 -70.5t101.5 72.5t29.5 181.5q0 106 -28.5 177t-102.5 71q-70 0 -97.5 -70t-27.5 -178z" />
<glyph unicode="&#xbb;" horiz-adv-x="796" d="M100 209v180l193 193l-193 192v180l291 -292v-160zM406 209v180l192 193l-192 192v180l290 -292v-160z" />
<glyph unicode="&#xbc;" horiz-adv-x="1476" d="M66 1214v99q109 0 170 26.5t61 110.5h100v-877h-135v641h-196zM190 -63l889 1548h123l-889 -1548h-123zM819 203v123l328 551h147v-564h97v-110h-97v-203h-135v203h-340zM930 313h229v379z" />
<glyph unicode="&#xbd;" horiz-adv-x="1476" d="M61 1214v99q109 0 170.5 26.5t61.5 110.5h100v-877h-135v641h-197zM152 -63l888 1548h123l-889 -1548h-122zM858 598q0 129 65.5 204t219.5 75q123 0 197.5 -60.5t74.5 -173.5q0 -94 -39 -156.5t-127 -132.5l-127 -102q-35 -27 -60.5 -63.5t-35.5 -65.5h369v-123h-535 q0 113 55.5 197t149.5 161l76 62q63 51 95 97t32 114q0 57 -33 90t-102 33q-76 0 -101.5 -48.5t-25.5 -107.5h-148z" />
<glyph unicode="&#xbe;" horiz-adv-x="1476" d="M41 801v10h147q0 -55 36 -98t108 -43q51 0 93 34.5t42 114.5q0 72 -40 112t-124 40h-57v110h49q72 0 109.5 40t37.5 102q0 51 -28.5 83.5t-83.5 32.5q-76 0 -101.5 -44t-25.5 -97h-148q0 121 65.5 186.5t213.5 65.5q143 0 199.5 -66.5t56.5 -160.5q0 -70 -44 -121 t-128 -68q92 -18 144 -68.5t52 -138.5q0 -125 -69.5 -196.5t-208.5 -71.5q-174 0 -234.5 85t-60.5 157zM297 -63l889 1548h123l-889 -1548h-123zM864 203v123l328 551h147v-564h97v-110h-97v-203h-135v203h-340zM975 313h229v379z" />
<glyph unicode="&#xbf;" d="M72 8q0 164 102 289l160 180q35 45 50 99.5t15 105.5v39h160v-31q0 -70 -7 -123t-35 -104t-90 -124t-114 -132q-61 -80 -61 -209q0 -96 51 -161.5t148 -65.5q131 0 173 90t42 209h172q0 -195 -96.5 -321t-284.5 -126q-180 0 -282.5 108.5t-102.5 276.5zM383 905v197h188 v-197h-188z" />
<glyph unicode="&#xc0;" horiz-adv-x="1024" d="M-16 0l422 1462h241l393 -1462h-188l-104 401h-467l-109 -401h-188zM284 1833h201l143 -291h-123zM317 549h394l-187 706z" />
<glyph unicode="&#xc1;" horiz-adv-x="1024" d="M-16 0l422 1462h241l393 -1462h-188l-104 401h-467l-109 -401h-188zM317 549h394l-187 706zM423 1542l144 291h201l-222 -291h-123z" />
<glyph unicode="&#xc2;" horiz-adv-x="1024" d="M-16 0l422 1462h241l393 -1462h-188l-104 401h-467l-109 -401h-188zM241 1542l207 291h158l205 -291h-160l-125 181l-125 -181h-160zM317 549h394l-187 706z" />
<glyph unicode="&#xc3;" horiz-adv-x="1024" d="M-16 0l422 1462h241l393 -1462h-188l-104 401h-467l-109 -401h-188zM225 1567q0 94 54 160.5t136 66.5q29 0 54.5 -8t64.5 -27.5t65.5 -31t45.5 -11.5q37 0 49 22.5t22 70.5h111q0 -86 -47 -157t-129 -71q-39 0 -135.5 39t-100.5 39q-37 0 -55 -27.5t-25 -64.5h-110z M317 549h394l-187 706z" />
<glyph unicode="&#xc4;" horiz-adv-x="1024" d="M-16 0l422 1462h241l393 -1462h-188l-104 401h-467l-109 -401h-188zM280 1591v207h160v-207h-160zM317 549h394l-187 706zM612 1591v207h160v-207h-160z" />
<glyph unicode="&#xc5;" horiz-adv-x="1024" d="M-16 0l422 1462h241l393 -1462h-188l-104 401h-467l-109 -401h-188zM317 549h394l-187 706zM323 1706q0 84 59.5 143.5t143.5 59.5t143.5 -59.5t59.5 -143.5t-59.5 -143.5t-143.5 -59.5t-143.5 59.5t-59.5 143.5zM409 1706q0 -47 35 -82t82 -35t82 35t35 82t-35 82 t-82 35t-82 -35t-35 -82z" />
<glyph unicode="&#xc6;" horiz-adv-x="1478" d="M-16 0l565 1462h856v-159h-545v-459h512v-160h-512v-524h570v-160h-750v401h-358l-150 -401h-188zM373 549h307v766h-21z" />
<glyph unicode="&#xc7;" horiz-adv-x="1062" d="M98 731q0 338 98.5 549t372.5 211q219 0 325.5 -117t106.5 -338h-188q0 137 -56.5 222t-187.5 85q-172 0 -227 -154.5t-55 -457.5q0 -299 55 -455.5t227 -156.5q147 0 201.5 109.5t54.5 273.5h189q0 -225 -106.5 -378t-323.5 -153l-56 -82l4 -4q8 4 30 8.5t32 4.5 q61 0 112.5 -39t51.5 -117q0 -76 -64.5 -126t-154.5 -50q-59 0 -113.5 10t-89.5 31l31 69q6 -2 60 -13t71 -11q59 0 85.5 22.5t26.5 61.5q0 33 -27.5 54.5t-68.5 21.5q-59 0 -78 -15l-30 37l94 141q-238 29 -320 234t-82 522z" />
<glyph unicode="&#xc8;" horiz-adv-x="948" d="M119 0v1462h755v-159h-575v-459h543v-160h-543v-524h600v-160h-780zM258 1833h201l143 -291h-123z" />
<glyph unicode="&#xc9;" horiz-adv-x="948" d="M119 0v1462h755v-159h-575v-459h543v-160h-543v-524h600v-160h-780zM397 1542l144 291h201l-222 -291h-123z" />
<glyph unicode="&#xca;" horiz-adv-x="948" d="M119 0v1462h755v-159h-575v-459h543v-160h-543v-524h600v-160h-780zM215 1542l207 291h158l205 -291h-160l-125 181l-125 -181h-160z" />
<glyph unicode="&#xcb;" horiz-adv-x="948" d="M119 0v1462h755v-159h-575v-459h543v-160h-543v-524h600v-160h-780zM254 1591v207h160v-207h-160zM586 1591v207h160v-207h-160z" />
<glyph unicode="&#xcc;" horiz-adv-x="417" d="M-33 1833h201l143 -291h-123zM119 0v1462h180v-1462h-180z" />
<glyph unicode="&#xcd;" horiz-adv-x="417" d="M106 1542l144 291h201l-222 -291h-123zM119 0v1462h180v-1462h-180z" />
<glyph unicode="&#xce;" horiz-adv-x="417" d="M-76 1542l207 291h158l205 -291h-160l-125 181l-125 -181h-160zM119 0v1462h180v-1462h-180z" />
<glyph unicode="&#xcf;" horiz-adv-x="417" d="M-37 1591v207h160v-207h-160zM119 0v1462h180v-1462h-180zM295 1591v207h160v-207h-160z" />
<glyph unicode="&#xd0;" horiz-adv-x="1138" d="M18 696v135h119v631h391q311 0 411.5 -186t100.5 -545q0 -324 -108.5 -527.5t-384.5 -203.5h-410v696h-119zM317 147h189q162 0 254 124t92 458q0 279 -62.5 432.5t-283.5 153.5h-189v-484h275v-135h-275v-549z" />
<glyph unicode="&#xd1;" horiz-adv-x="1138" d="M119 0v1462h233l484 -1220l4 1220h180v-1462h-248l-469 1184l-4 -1184h-180zM268 1567q0 94 54 160.5t136 66.5q29 0 54.5 -8t64.5 -27.5t65.5 -31t45.5 -11.5q37 0 49 22.5t22 70.5h111q0 -86 -47 -157t-129 -71q-39 0 -135.5 39t-100.5 39q-37 0 -55 -27.5t-25 -64.5 h-110z" />
<glyph unicode="&#xd2;" horiz-adv-x="1138" d="M98 731q0 338 98.5 549t372.5 211t372.5 -211t98.5 -549t-98 -549t-373 -211q-274 0 -372.5 211t-98.5 549zM287 731q0 -299 55 -455.5t227 -156.5t227.5 154.5t55.5 457.5q0 299 -55.5 455.5t-227.5 156.5t-227 -154.5t-55 -457.5zM327 1833h201l143 -291h-123z" />
<glyph unicode="&#xd3;" horiz-adv-x="1138" d="M98 731q0 338 98.5 549t372.5 211t372.5 -211t98.5 -549t-98 -549t-373 -211q-274 0 -372.5 211t-98.5 549zM287 731q0 -299 55 -455.5t227 -156.5t227.5 154.5t55.5 457.5q0 299 -55.5 455.5t-227.5 156.5t-227 -154.5t-55 -457.5zM466 1542l144 291h201l-222 -291h-123 z" />
<glyph unicode="&#xd4;" horiz-adv-x="1138" d="M98 731q0 338 98.5 549t372.5 211t372.5 -211t98.5 -549t-98 -549t-373 -211q-274 0 -372.5 211t-98.5 549zM284 1542l207 291h158l205 -291h-160l-125 181l-125 -181h-160zM287 731q0 -299 55 -455.5t227 -156.5t227.5 154.5t55.5 457.5q0 299 -55.5 455.5t-227.5 156.5 t-227 -154.5t-55 -457.5z" />
<glyph unicode="&#xd5;" horiz-adv-x="1138" d="M98 731q0 338 98.5 549t372.5 211t372.5 -211t98.5 -549t-98 -549t-373 -211q-274 0 -372.5 211t-98.5 549zM268 1567q0 94 54 160.5t136 66.5q29 0 54.5 -8t64.5 -27.5t65.5 -31t45.5 -11.5q37 0 49 22.5t22 70.5h111q0 -86 -47 -157t-129 -71q-39 0 -135.5 39 t-100.5 39q-37 0 -55 -27.5t-25 -64.5h-110zM287 731q0 -299 55 -455.5t227 -156.5t227.5 154.5t55.5 457.5q0 299 -55.5 455.5t-227.5 156.5t-227 -154.5t-55 -457.5z" />
<glyph unicode="&#xd6;" horiz-adv-x="1138" d="M98 731q0 338 98.5 549t372.5 211t372.5 -211t98.5 -549t-98 -549t-373 -211q-274 0 -372.5 211t-98.5 549zM287 731q0 -299 55 -455.5t227 -156.5t227.5 154.5t55.5 457.5q0 299 -55.5 455.5t-227.5 156.5t-227 -154.5t-55 -457.5zM323 1591v207h160v-207h-160z M655 1591v207h160v-207h-160z" />
<glyph unicode="&#xd7;" horiz-adv-x="1228" d="M158 147l370 371l-370 371l86 86l370 -369l369 369l88 -86l-371 -371l371 -371l-88 -86l-369 369l-370 -369z" />
<glyph unicode="&#xd8;" horiz-adv-x="1138" d="M98 731q0 338 98.5 549t372.5 211q70 0 125.5 -14.5t102.5 -42.5l49 120l110 -45l-65 -157q84 -100 116.5 -258t32.5 -363q0 -338 -98 -549t-373 -211q-133 0 -225 58l-53 -127l-111 49l68 164q-84 100 -117 255.5t-33 360.5zM287 731q0 -133 9 -235.5t34 -182.5l403 969 q-61 61 -164 61q-172 0 -227 -154.5t-55 -457.5zM408 180q61 -61 161 -61q172 0 227.5 154.5t55.5 457.5q0 137 -9 238.5t-34 181.5z" />
<glyph unicode="&#xd9;" horiz-adv-x="1062" d="M102 434v1028h181v-1028q0 -166 57 -240.5t190 -74.5q139 0 194.5 76.5t55.5 238.5v1028h181v-1028q0 -215 -110 -339t-321 -124q-217 0 -322.5 118t-105.5 345zM291 1833h201l143 -291h-123z" />
<glyph unicode="&#xda;" horiz-adv-x="1062" d="M102 434v1028h181v-1028q0 -166 57 -240.5t190 -74.5q139 0 194.5 76.5t55.5 238.5v1028h181v-1028q0 -215 -110 -339t-321 -124q-217 0 -322.5 118t-105.5 345zM430 1542l144 291h201l-222 -291h-123z" />
<glyph unicode="&#xdb;" horiz-adv-x="1062" d="M102 434v1028h181v-1028q0 -166 57 -240.5t190 -74.5q139 0 194.5 76.5t55.5 238.5v1028h181v-1028q0 -215 -110 -339t-321 -124q-217 0 -322.5 118t-105.5 345zM248 1542l207 291h158l205 -291h-160l-125 181l-125 -181h-160z" />
<glyph unicode="&#xdc;" horiz-adv-x="1062" d="M102 434v1028h181v-1028q0 -166 57 -240.5t190 -74.5q139 0 194.5 76.5t55.5 238.5v1028h181v-1028q0 -215 -110 -339t-321 -124q-217 0 -322.5 118t-105.5 345zM287 1591v207h160v-207h-160zM619 1591v207h160v-207h-160z" />
<glyph unicode="&#xdd;" horiz-adv-x="946" d="M-4 1462h199l278 -684l289 684h188l-387 -889v-573h-180v573zM370 1542l144 291h201l-222 -291h-123z" />
<glyph unicode="&#xde;" horiz-adv-x="985" d="M119 0v1462h180v-286h193q233 0 342.5 -105.5t109.5 -314.5q0 -201 -115.5 -312.5t-306.5 -111.5h-223v-332h-180zM299 479h215q106 0 174 72t68 213q0 125 -61.5 194.5t-192.5 69.5h-203v-549z" />
<glyph unicode="&#xdf;" horiz-adv-x="948" d="M98 0v1047q0 209 80 320.5t283 111.5q156 0 254 -84t98 -250q0 -109 -56.5 -196t-160.5 -105q139 -2 216 -111.5t77 -273.5q0 -186 -92 -322.5t-275 -136.5h-121v147h119q102 0 145.5 97.5t43.5 214.5q0 141 -58.5 224t-161.5 83q-20 0 -38.5 -1t-42.5 -5v141h41 q84 0 138 56.5t54 158.5q0 94 -40 160.5t-140 66.5q-92 0 -141.5 -53t-49.5 -215v-1075h-172z" />
<glyph unicode="&#xe0;" d="M59 291q0 119 50.5 194.5t156.5 108.5l232 70q86 27 105.5 57.5t19.5 107.5q0 162 -177 162q-94 0 -141 -56t-47 -159v-10h-172q0 188 86 274t283 86q217 0 275 -91t58 -224v-612q0 -45 8.5 -66.5t45.5 -21.5q27 0 41 10v-123q-29 -4 -49.5 -7t-51.5 -3 q-74 0 -114.5 23.5t-40.5 117.5q-43 -72 -117 -115t-152 -43q-150 0 -224.5 85t-74.5 235zM213 1540h201l143 -291h-123zM240 295q0 -90 35.5 -139.5t119.5 -49.5q88 0 154.5 62.5t66.5 146.5v283q-29 -31 -112.5 -62.5t-179.5 -66.5q-45 -29 -64.5 -65.5t-19.5 -108.5z" />
<glyph unicode="&#xe1;" d="M59 291q0 119 50.5 194.5t156.5 108.5l232 70q86 27 105.5 57.5t19.5 107.5q0 162 -177 162q-94 0 -141 -56t-47 -159v-10h-172q0 188 86 274t283 86q217 0 275 -91t58 -224v-612q0 -45 8.5 -66.5t45.5 -21.5q27 0 41 10v-123q-29 -4 -49.5 -7t-51.5 -3 q-74 0 -114.5 23.5t-40.5 117.5q-43 -72 -117 -115t-152 -43q-150 0 -224.5 85t-74.5 235zM240 295q0 -90 35.5 -139.5t119.5 -49.5q88 0 154.5 62.5t66.5 146.5v283q-29 -31 -112.5 -62.5t-179.5 -66.5q-45 -29 -64.5 -65.5t-19.5 -108.5zM352 1249l144 291h201l-222 -291 h-123z" />
<glyph unicode="&#xe2;" d="M59 291q0 119 50.5 194.5t156.5 108.5l232 70q86 27 105.5 57.5t19.5 107.5q0 162 -177 162q-94 0 -141 -56t-47 -159v-10h-172q0 188 86 274t283 86q217 0 275 -91t58 -224v-612q0 -45 8.5 -66.5t45.5 -21.5q27 0 41 10v-123q-29 -4 -49.5 -7t-51.5 -3 q-74 0 -114.5 23.5t-40.5 117.5q-43 -72 -117 -115t-152 -43q-150 0 -224.5 85t-74.5 235zM170 1249l207 291h158l205 -291h-160l-125 181l-125 -181h-160zM240 295q0 -90 35.5 -139.5t119.5 -49.5q88 0 154.5 62.5t66.5 146.5v283q-29 -31 -112.5 -62.5t-179.5 -66.5 q-45 -29 -64.5 -65.5t-19.5 -108.5z" />
<glyph unicode="&#xe3;" d="M59 291q0 119 50.5 194.5t156.5 108.5l232 70q86 27 105.5 57.5t19.5 107.5q0 162 -177 162q-94 0 -141 -56t-47 -159v-10h-172q0 188 86 274t283 86q217 0 275 -91t58 -224v-612q0 -45 8.5 -66.5t45.5 -21.5q27 0 41 10v-123q-29 -4 -49.5 -7t-51.5 -3 q-74 0 -114.5 23.5t-40.5 117.5q-43 -72 -117 -115t-152 -43q-150 0 -224.5 85t-74.5 235zM154 1274q0 94 54 160.5t136 66.5q29 0 54.5 -8t64.5 -27.5t65.5 -31t45.5 -11.5q37 0 49 22.5t22 70.5h111q0 -86 -47 -157t-129 -71q-39 0 -135.5 39t-100.5 39q-37 0 -55 -27.5 t-25 -64.5h-110zM240 295q0 -90 35.5 -139.5t119.5 -49.5q88 0 154.5 62.5t66.5 146.5v283q-29 -31 -112.5 -62.5t-179.5 -66.5q-45 -29 -64.5 -65.5t-19.5 -108.5z" />
<glyph unicode="&#xe4;" d="M59 291q0 119 50.5 194.5t156.5 108.5l232 70q86 27 105.5 57.5t19.5 107.5q0 162 -177 162q-94 0 -141 -56t-47 -159v-10h-172q0 188 86 274t283 86q217 0 275 -91t58 -224v-612q0 -45 8.5 -66.5t45.5 -21.5q27 0 41 10v-123q-29 -4 -49.5 -7t-51.5 -3 q-74 0 -114.5 23.5t-40.5 117.5q-43 -72 -117 -115t-152 -43q-150 0 -224.5 85t-74.5 235zM209 1298v207h160v-207h-160zM240 295q0 -90 35.5 -139.5t119.5 -49.5q88 0 154.5 62.5t66.5 146.5v283q-29 -31 -112.5 -62.5t-179.5 -66.5q-45 -29 -64.5 -65.5t-19.5 -108.5z M541 1298v207h160v-207h-160z" />
<glyph unicode="&#xe5;" d="M59 291q0 119 50.5 194.5t156.5 108.5l232 70q86 27 105.5 57.5t19.5 107.5q0 162 -177 162q-94 0 -141 -56t-47 -159v-10h-172q0 188 86 274t283 86q217 0 275 -91t58 -224v-612q0 -45 8.5 -66.5t45.5 -21.5q27 0 41 10v-123q-29 -4 -49.5 -7t-51.5 -3 q-74 0 -114.5 23.5t-40.5 117.5q-43 -72 -117 -115t-152 -43q-150 0 -224.5 85t-74.5 235zM240 295q0 -90 35.5 -139.5t119.5 -49.5q88 0 154.5 62.5t66.5 146.5v283q-29 -31 -112.5 -62.5t-179.5 -66.5q-45 -29 -64.5 -65.5t-19.5 -108.5zM252 1413q0 84 59.5 143.5 t143.5 59.5t143.5 -59.5t59.5 -143.5t-59.5 -143.5t-143.5 -59.5t-143.5 59.5t-59.5 143.5zM338 1413q0 -47 35 -82t82 -35t82 35t35 82t-35 82t-82 35t-82 -35t-35 -82z" />
<glyph unicode="&#xe6;" horiz-adv-x="1366" d="M53 291q0 117 53.5 194.5t155.5 108.5l256 78q45 14 60.5 49t15.5 108q0 162 -164 162q-113 0 -144.5 -70.5t-31.5 -144.5v-10h-172q0 188 86 274t274 86q106 0 175 -39.5t88 -111.5q31 68 105.5 109.5t156.5 41.5q164 0 255 -112.5t91 -415.5v-70h-559 q0 -193 32.5 -307.5t159.5 -114.5q106 0 146.5 81t40.5 173h172q0 -129 -81 -259t-266 -130q-150 0 -217 70t-77 131q-47 -94 -121 -147.5t-189 -53.5q-137 0 -219 86t-82 234zM233 297q0 -84 38 -137.5t116 -53.5q100 0 153.5 66t53.5 184v193v22q-10 -16 -104.5 -46.5 t-165.5 -53.5q-43 -16 -67 -58t-24 -116zM760 664h373v59q0 111 -42 189.5t-141 78.5q-109 0 -149.5 -99t-40.5 -187v-41z" />
<glyph unicode="&#xe7;" horiz-adv-x="872" d="M66 535q0 338 106.5 464.5t284.5 126.5q197 0 273.5 -113.5t76.5 -248.5h-172q0 94 -41 160.5t-133 66.5q-98 0 -156.5 -91t-58.5 -363q0 -178 36.5 -304.5t172.5 -126.5q100 0 140 81t40 194h172q0 -145 -76 -267t-239 -141l-60 -84l4 -4q8 4 29.5 8.5t32.5 4.5 q61 0 112.5 -39t51.5 -117q0 -76 -65 -126t-155 -50q-59 0 -113.5 10t-88.5 31l30 69q6 -2 60.5 -13t70.5 -11q59 0 86 22.5t27 61.5q0 33 -27.5 54.5t-68.5 21.5q-59 0 -78 -15l-31 37l97 137q-178 14 -259 152.5t-81 411.5z" />
<glyph unicode="&#xe8;" d="M76 535q0 338 106.5 464.5t284.5 126.5q223 0 295 -147.5t72 -380.5v-70h-578q0 -193 36 -307.5t175 -114.5q106 0 146 81t40 173h172q0 -129 -86 -259t-282 -130q-199 0 -290 138.5t-91 425.5zM213 1540h201l143 -291h-123zM262 664h391v59q0 113 -43 190.5t-147 77.5 q-117 0 -159 -97t-42 -189v-41z" />
<glyph unicode="&#xe9;" d="M76 535q0 338 106.5 464.5t284.5 126.5q223 0 295 -147.5t72 -380.5v-70h-578q0 -193 36 -307.5t175 -114.5q106 0 146 81t40 173h172q0 -129 -86 -259t-282 -130q-199 0 -290 138.5t-91 425.5zM262 664h391v59q0 113 -43 190.5t-147 77.5q-117 0 -159 -97t-42 -189v-41z M352 1249l144 291h201l-222 -291h-123z" />
<glyph unicode="&#xea;" d="M76 535q0 338 106.5 464.5t284.5 126.5q223 0 295 -147.5t72 -380.5v-70h-578q0 -193 36 -307.5t175 -114.5q106 0 146 81t40 173h172q0 -129 -86 -259t-282 -130q-199 0 -290 138.5t-91 425.5zM170 1249l207 291h158l205 -291h-160l-125 181l-125 -181h-160zM262 664 h391v59q0 113 -43 190.5t-147 77.5q-117 0 -159 -97t-42 -189v-41z" />
<glyph unicode="&#xeb;" d="M76 535q0 338 106.5 464.5t284.5 126.5q223 0 295 -147.5t72 -380.5v-70h-578q0 -193 36 -307.5t175 -114.5q106 0 146 81t40 173h172q0 -129 -86 -259t-282 -130q-199 0 -290 138.5t-91 425.5zM209 1298v207h160v-207h-160zM262 664h391v59q0 113 -43 190.5t-147 77.5 q-117 0 -159 -97t-42 -189v-41zM541 1298v207h160v-207h-160z" />
<glyph unicode="&#xec;" horiz-adv-x="417" d="M-33 1540h201l143 -291h-123zM123 0v1098h172v-1098h-172z" />
<glyph unicode="&#xed;" horiz-adv-x="417" d="M106 1249l144 291h201l-222 -291h-123zM123 0v1098h172v-1098h-172z" />
<glyph unicode="&#xee;" horiz-adv-x="417" d="M-76 1249l207 291h158l205 -291h-160l-125 181l-125 -181h-160zM123 0v1098h172v-1098h-172z" />
<glyph unicode="&#xef;" horiz-adv-x="417" d="M-37 1298v207h160v-207h-160zM123 0v1098h172v-1098h-172zM295 1298v207h160v-207h-160z" />
<glyph unicode="&#xf1;" horiz-adv-x="948" d="M113 0v1098h163v-129q37 74 112 115.5t159 41.5q188 0 238.5 -98t50.5 -250v-778h-172v758q0 92 -30 156.5t-132 64.5q-84 0 -150.5 -54.5t-66.5 -166.5v-758h-172zM174 1274q0 94 54 160.5t136 66.5q29 0 54.5 -8t64.5 -27.5t65.5 -31t45.5 -11.5q37 0 49 22.5t22 70.5 h111q0 -86 -47 -157t-129 -71q-39 0 -135.5 39t-100.5 39q-37 0 -55 -27.5t-25 -64.5h-110z" />
<glyph unicode="&#xf2;" d="M59 549q0 266 87.5 421.5t308.5 155.5q219 0 307 -157.5t88 -419.5q0 -266 -87 -422t-308 -156q-219 0 -307.5 158t-88.5 420zM213 1540h201l143 -291h-123zM240 549q0 -207 45 -325t166 -118q127 0 173 117t46 326q0 211 -46 326.5t-173 115.5q-119 0 -165 -118.5 t-46 -323.5z" />
<glyph unicode="&#xf3;" d="M59 549q0 266 87.5 421.5t308.5 155.5q219 0 307 -157.5t88 -419.5q0 -266 -87 -422t-308 -156q-219 0 -307.5 158t-88.5 420zM240 549q0 -207 45 -325t166 -118q127 0 173 117t46 326q0 211 -46 326.5t-173 115.5q-119 0 -165 -118.5t-46 -323.5zM352 1249l144 291h201 l-222 -291h-123z" />
<glyph unicode="&#xf4;" d="M59 549q0 266 87.5 421.5t308.5 155.5q219 0 307 -157.5t88 -419.5q0 -266 -87 -422t-308 -156q-219 0 -307.5 158t-88.5 420zM170 1249l207 291h158l205 -291h-160l-125 181l-125 -181h-160zM240 549q0 -207 45 -325t166 -118q127 0 173 117t46 326q0 211 -46 326.5 t-173 115.5q-119 0 -165 -118.5t-46 -323.5z" />
<glyph unicode="&#xf5;" d="M59 549q0 266 87.5 421.5t308.5 155.5q219 0 307 -157.5t88 -419.5q0 -266 -87 -422t-308 -156q-219 0 -307.5 158t-88.5 420zM154 1274q0 94 54 160.5t136 66.5q29 0 54.5 -8t64.5 -27.5t65.5 -31t45.5 -11.5q37 0 49 22.5t22 70.5h111q0 -86 -47 -157t-129 -71 q-39 0 -135.5 39t-100.5 39q-37 0 -55 -27.5t-25 -64.5h-110zM240 549q0 -207 45 -325t166 -118q127 0 173 117t46 326q0 211 -46 326.5t-173 115.5q-119 0 -165 -118.5t-46 -323.5z" />
<glyph unicode="&#xf6;" d="M59 549q0 266 87.5 421.5t308.5 155.5q219 0 307 -157.5t88 -419.5q0 -266 -87 -422t-308 -156q-219 0 -307.5 158t-88.5 420zM209 1298v207h160v-207h-160zM240 549q0 -207 45 -325t166 -118q127 0 173 117t46 326q0 211 -46 326.5t-173 115.5q-119 0 -165 -118.5 t-46 -323.5zM541 1298v207h160v-207h-160z" />
<glyph unicode="&#xf7;" horiz-adv-x="1228" d="M96 451v135h1037v-135h-1037zM500 86q0 49 32.5 82t81.5 33t82 -33t33 -82t-32.5 -82t-82.5 -33q-49 0 -81.5 33t-32.5 82zM500 950q0 49 32.5 82t81.5 33t82 -33t33 -82t-32.5 -81.5t-82.5 -32.5q-49 0 -81.5 32.5t-32.5 81.5z" />
<glyph unicode="&#xf8;" d="M59 549q0 266 87 421.5t309 155.5q100 0 172 -36l53 124l98 -43l-61 -145q72 -80 102.5 -198.5t30.5 -278.5q0 -266 -87 -422t-308 -156q-100 0 -172 37l-56 -129l-96 39l66 156q-74 72 -106 193.5t-32 281.5zM240 549q0 -94 7 -159.5t27 -131.5l293 690q-49 43 -116 43 q-119 0 -165 -118.5t-46 -323.5zM342 145q43 -39 109 -39q127 0 173 117t46 326q0 94 -7.5 158.5t-27.5 126.5z" />
<glyph unicode="&#xf9;" horiz-adv-x="948" d="M113 319v779h172v-758q0 -92 29.5 -156.5t131.5 -64.5q84 0 151 54t67 167v758h172v-1098h-164v129q-37 -74 -112 -116t-159 -42q-188 0 -238 98.5t-50 249.5zM233 1540h201l143 -291h-123z" />
<glyph unicode="&#xfa;" horiz-adv-x="948" d="M113 319v779h172v-758q0 -92 29.5 -156.5t131.5 -64.5q84 0 151 54t67 167v758h172v-1098h-164v129q-37 -74 -112 -116t-159 -42q-188 0 -238 98.5t-50 249.5zM372 1249l144 291h201l-222 -291h-123z" />
<glyph unicode="&#xfb;" horiz-adv-x="948" d="M113 319v779h172v-758q0 -92 29.5 -156.5t131.5 -64.5q84 0 151 54t67 167v758h172v-1098h-164v129q-37 -74 -112 -116t-159 -42q-188 0 -238 98.5t-50 249.5zM190 1249l207 291h158l205 -291h-160l-125 181l-125 -181h-160z" />
<glyph unicode="&#xfc;" horiz-adv-x="948" d="M113 319v779h172v-758q0 -92 29.5 -156.5t131.5 -64.5q84 0 151 54t67 167v758h172v-1098h-164v129q-37 -74 -112 -116t-159 -42q-188 0 -238 98.5t-50 249.5zM229 1298v207h160v-207h-160zM561 1298v207h160v-207h-160z" />
<glyph unicode="&#xfd;" horiz-adv-x="831" d="M20 1098h189l217 -881l197 881h188l-317 -1172q-49 -180 -116 -233t-177 -53q-47 0 -74 2t-51 4v135q37 -6 100 -6q55 0 86 27.5t49 78.5l33 96zM313 1249l144 291h201l-222 -291h-123z" />
<glyph unicode="&#xfe;" horiz-adv-x="948" d="M113 -360v1822h172v-489q23 70 90 111.5t143 41.5q186 0 272.5 -148.5t86.5 -408.5q0 -233 -83 -415.5t-276 -182.5q-76 0 -138.5 41t-90.5 113l-4 -485h-172zM274 549q0 -193 47.5 -311.5t174.5 -118.5q113 0 156.5 111.5t43.5 338.5q0 201 -43 305.5t-157 104.5 q-133 0 -177.5 -107.5t-44.5 -322.5z" />
<glyph unicode="&#xff;" horiz-adv-x="831" d="M20 1098h189l217 -881l197 881h188l-317 -1172q-49 -180 -116 -233t-177 -53q-47 0 -74 2t-51 4v135q37 -6 100 -6q55 0 86 27.5t49 78.5l33 96zM170 1298v207h160v-207h-160zM502 1298v207h160v-207h-160z" />
<glyph unicode="&#x152;" horiz-adv-x="1630" d="M98 731q0 338 98.5 549t372.5 211q86 0 168 -37t115 -104l4 112h700v-159h-532v-459h500v-160h-500v-524h557v-160h-733v129q-29 -72 -107.5 -115t-171.5 -43q-276 0 -373.5 204t-97.5 556zM279 731q0 -303 56 -457.5t234 -154.5q162 0 218.5 92t56.5 264v473 q0 250 -66.5 322.5t-208.5 72.5q-176 0 -233 -156.5t-57 -455.5z" />
<glyph unicode="&#x153;" horiz-adv-x="1478" d="M80 549q0 256 87 416.5t298 160.5q113 0 180.5 -44t120.5 -142q37 84 117 135t170 51q164 0 255 -112.5t91 -415.5v-70h-559q0 -193 32.5 -307.5t159.5 -114.5q106 0 146.5 81t40.5 173h172q0 -129 -81 -259t-266 -130q-117 0 -189.5 51.5t-100.5 137.5 q-37 -86 -115 -137.5t-174 -51.5q-211 0 -298 160t-87 418zM260 549q0 -203 43 -323t162 -120q123 0 169 121t46 322t-45 321.5t-170 120.5q-117 0 -161 -119.5t-44 -322.5zM846 664h373v59q0 111 -42 189.5t-141 78.5q-109 0 -149.5 -99t-40.5 -187v-41z" />
<glyph unicode="&#x178;" horiz-adv-x="946" d="M-4 1462h199l278 -684l289 684h188l-387 -889v-573h-180v573zM227 1591v207h160v-207h-160zM559 1591v207h160v-207h-160z" />
<glyph unicode="&#x2000;" horiz-adv-x="954" />
<glyph unicode="&#x2001;" horiz-adv-x="1909" />
<glyph unicode="&#x2002;" horiz-adv-x="954" />
<glyph unicode="&#x2003;" horiz-adv-x="1909" />
<glyph unicode="&#x2004;" horiz-adv-x="636" />
<glyph unicode="&#x2005;" horiz-adv-x="477" />
<glyph unicode="&#x2006;" horiz-adv-x="318" />
<glyph unicode="&#x2007;" horiz-adv-x="318" />
<glyph unicode="&#x2008;" horiz-adv-x="238" />
<glyph unicode="&#x2009;" horiz-adv-x="381" />
<glyph unicode="&#x200a;" horiz-adv-x="106" />
<glyph unicode="&#x2010;" horiz-adv-x="720" d="M111 502v160h499v-160h-499z" />
<glyph unicode="&#x2011;" horiz-adv-x="720" d="M111 502v160h499v-160h-499z" />
<glyph unicode="&#x2012;" horiz-adv-x="720" d="M111 502v160h499v-160h-499z" />
<glyph unicode="&#x2013;" horiz-adv-x="1024" d="M0 508v147h1024v-147h-1024z" />
<glyph unicode="&#x2014;" horiz-adv-x="2048" d="M0 508v147h2048v-147h-2048z" />
<glyph unicode="&#x2018;" horiz-adv-x="491" d="M152 942v178q0 145 33.5 227.5t154.5 114.5v-96q-53 -27 -71.5 -59.5t-18.5 -98.5v-49h90v-217h-188z" />
<glyph unicode="&#x2019;" horiz-adv-x="491" d="M152 942v96q53 27 71.5 59.5t18.5 98.5v49h-90v217h188v-178q0 -145 -34 -227t-154 -115z" />
<glyph unicode="&#x201a;" horiz-adv-x="491" d="M152 0v217h188v-178q0 -145 -34 -227t-154 -115v96q53 27 71.5 59.5t18.5 98.5v49h-90z" />
<glyph unicode="&#x201c;" horiz-adv-x="833" d="M162 942v178q0 145 33.5 227.5t154.5 114.5v-96q-53 -27 -71.5 -59.5t-18.5 -98.5v-49h90v-217h-188zM483 942v178q0 145 34 227.5t155 114.5v-96q-53 -27 -71.5 -59.5t-18.5 -98.5v-49h90v-217h-189z" />
<glyph unicode="&#x201d;" horiz-adv-x="833" d="M162 942v96q53 27 71.5 59.5t18.5 98.5v49h-90v217h188v-178q0 -145 -33.5 -227t-154.5 -115zM483 942v96q53 27 71.5 59.5t18.5 98.5v49h-90v217h189v-178q0 -145 -34 -227t-155 -115z" />
<glyph unicode="&#x201e;" horiz-adv-x="833" d="M162 0v217h188v-178q0 -145 -33.5 -227t-154.5 -115v96q53 27 71.5 59.5t18.5 98.5v49h-90zM483 0v217h189v-178q0 -145 -34 -227t-155 -115v96q53 27 71.5 59.5t18.5 98.5v49h-90z" />
<glyph unicode="&#x2022;" horiz-adv-x="1024" d="M147 731q0 152 106.5 258.5t258.5 106.5t258.5 -106.5t106.5 -258.5t-106.5 -258t-258.5 -106t-258.5 106.5t-106.5 257.5z" />
<glyph unicode="&#x2026;" horiz-adv-x="2048" d="M248 0v217h188v-217h-188zM930 0v217h188v-217h-188zM1612 0v217h188v-217h-188z" />
<glyph unicode="&#x202f;" horiz-adv-x="381" />
<glyph unicode="&#x2039;" horiz-adv-x="491" d="M100 502v160l291 292v-180l-192 -192l192 -193v-180z" />
<glyph unicode="&#x203a;" horiz-adv-x="491" d="M100 209v180l193 193l-193 192v180l291 -292v-160z" />
<glyph unicode="&#x205f;" horiz-adv-x="477" />
<glyph unicode="&#x2122;" horiz-adv-x="2027" d="M106 1339v123h674v-123h-266v-721h-135v721h-273zM944 618v844h201l266 -647l260 647h201v-844h-135v697l-289 -697h-80l-285 697l-4 -697h-135z" />
<glyph unicode="&#x25fc;" horiz-adv-x="1095" d="M0 0v1096h1096v-1096h-1096z" />
</font>
</defs>
</svg>
