<?xml version="1.0" standalone="no"?>
<!DOCTYPE svg PUBLIC "-//W3C//DTD SVG 1.1//EN" "http://www.w3.org/Graphics/SVG/1.1/DTD/svg11.dtd" >
<svg xmlns="http://www.w3.org/2000/svg">
<metadata></metadata>
<defs>
<font id="helveticaneue-mediumregular" horiz-adv-x="1138" >
<font-face units-per-em="2048" ascent="1638" descent="-410" />
<missing-glyph horiz-adv-x="569" />
<glyph horiz-adv-x="0" />
<glyph unicode="&#xd;" horiz-adv-x="569" />
<glyph unicode=" "  horiz-adv-x="569" />
<glyph unicode="&#x09;" horiz-adv-x="569" />
<glyph unicode="&#xa0;" horiz-adv-x="569" />
<glyph unicode="!" horiz-adv-x="569" d="M147 0v256h275v-256h-275zM158 1040v422h256v-422l-68 -632h-121z" />
<glyph unicode="&#x22;" horiz-adv-x="909" d="M170 885v577h209v-577h-209zM530 885v577h209v-577h-209z" />
<glyph unicode="#" d="M70 430v154h215l37 266h-193v154h213l59 430h166l-61 -430h227l60 430h165l-61 -430h176v-154h-196l-37 -266h174v-154h-195l-61 -430h-164l59 430h-225l-61 -430h-164l59 430h-192zM449 584h227l37 266h-228z" />
<glyph unicode="$" d="M35 444h233q0 -143 62.5 -218.5t199.5 -75.5v495q-279 76 -371.5 184.5t-92.5 266.5q0 186 135 293.5t329 107.5v160h88v-160q195 0 322 -102.5t127 -296.5h-233q0 215 -216 215v-432q293 -78 389.5 -187.5t96.5 -267.5q0 -223 -135 -342t-351 -119v-160h-88v160 q-225 0 -360 127t-135 352zM299 1112q0 -90 62.5 -136t168.5 -73v410q-115 0 -173 -47t-58 -154zM618 150q115 0 183.5 62t68.5 181q0 104 -66.5 153.5t-185.5 80.5v-477z" />
<glyph unicode="%" horiz-adv-x="2048" d="M168 1055q0 180 85 293.5t257 113.5q170 0 256 -114.5t86 -292.5q0 -180 -83 -294t-259 -114t-259 113t-83 295zM352 1055q0 -125 37 -200t119 -75t121 76t39 199t-35 198.5t-125 75.5q-86 0 -121 -76.5t-35 -197.5zM532 -49l797 1532h156l-793 -1532h-160zM1196 379 q0 180 85 293.5t257 113.5q170 0 256 -114.5t86 -292.5q0 -180 -83 -294t-259 -114t-259 113t-83 295zM1380 379q0 -125 37 -200t119 -75t121 76t39 199t-35 198.5t-125 75.5q-86 0 -121 -76.5t-35 -197.5z" />
<glyph unicode="&#x26;" horiz-adv-x="1327" d="M66 406q0 141 94 244.5t241 178.5q-92 117 -119.5 183.5t-27.5 136.5q0 156 102.5 252t255.5 96q152 0 258.5 -92t106.5 -258q0 -123 -73 -215t-191 -156l227 -274q14 37 26.5 84t18.5 112h205q-12 -106 -38 -193t-77 -165l281 -340h-287l-133 164q-158 -193 -410 -193 q-207 0 -333.5 115t-126.5 320zM299 401q0 -117 64.5 -181t171.5 -64q109 0 163 42t113 121l-287 357q-137 -86 -181 -124t-44 -151zM463 1161q0 -61 45 -129q61 -78 88 -114q86 57 129 107t43 130q0 74 -41 121t-109 47t-111.5 -44t-43.5 -118z" />
<glyph unicode="'" horiz-adv-x="569" d="M180 885v577h209v-577h-209z" />
<glyph unicode="(" horiz-adv-x="569" d="M100 553q0 242 77 484.5t218 459.5h191q-123 -219 -187.5 -456.5t-64.5 -487.5q0 -258 61.5 -492.5t190.5 -451.5h-191q-141 223 -218 447.5t-77 496.5z" />
<glyph unicode=")" horiz-adv-x="569" d="M-16 -391q123 219 187.5 454.5t64.5 487.5q0 258 -61.5 492.5t-190.5 453.5h190q139 -223 217 -448.5t78 -497.5q0 -244 -77 -485.5t-218 -456.5h-190z" />
<glyph unicode="*" horiz-adv-x="757" d="M39 1171l45 134l225 -88v245h140v-245l223 88l49 -134l-234 -77l144 -193l-109 -80l-145 201l-139 -201l-115 80l143 193z" />
<glyph unicode="+" horiz-adv-x="1228" d="M98 414v209h412v413h209v-413h411v-209h-411v-414h-209v414h-412z" />
<glyph unicode="," horiz-adv-x="569" d="M141 0v276h285v-276q0 -123 -76 -211t-200 -113v125q66 16 99.5 71.5t33.5 127.5h-142z" />
<glyph unicode="-" horiz-adv-x="796" d="M100 446v222h596v-222h-596z" />
<glyph unicode="." horiz-adv-x="569" d="M141 0v276h285v-276h-285z" />
<glyph unicode="/" horiz-adv-x="720" d="M-45 -35l588 1532h223l-588 -1532h-223z" />
<glyph unicode="0" d="M74 717q0 307 108.5 526t386.5 219q276 0 386 -220t110 -525q0 -307 -108.5 -526.5t-387.5 -219.5q-276 0 -385.5 220.5t-109.5 525.5zM307 717q0 -254 59.5 -402.5t202.5 -148.5t202.5 150.5t59.5 400.5q0 254 -59 402.5t-203 148.5q-143 0 -202.5 -150.5t-59.5 -400.5z " />
<glyph unicode="1" d="M109 1012v184q164 0 278.5 57.5t138.5 180.5h191v-1434h-256v1012h-352z" />
<glyph unicode="2" d="M80 0q0 172 81 306t228.5 235.5t290.5 203.5q147 127 147 269q0 98 -53 176t-188 78q-131 0 -188.5 -95.5t-57.5 -263.5h-234q0 246 130.5 399.5t363.5 153.5q238 0 349.5 -136t111.5 -304q0 -154 -86 -267.5t-219 -204.5t-252 -171q-117 -88 -144 -170h699v-209h-979z " />
<glyph unicode="3" d="M63 471h234q0 -137 68.5 -221t201.5 -84q121 0 198 67.5t77 188.5q0 150 -100.5 197t-274.5 47v174q137 0 227 51t90 174q0 90 -62.5 146.5t-160.5 56.5q-113 0 -175 -86t-62 -207h-234q0 213 131 350t344 137q180 0 316.5 -101t136.5 -282q0 -111 -50 -190.5 t-153 -116.5q121 -27 190.5 -124t69.5 -238q0 -197 -147.5 -318t-360.5 -121q-244 0 -374 134.5t-130 365.5z" />
<glyph unicode="4" d="M49 340v231l615 863h221v-910h184v-184h-184v-340h-221v340h-615zM229 524h435v631z" />
<glyph unicode="5" d="M72 408h233q10 -115 80 -178.5t184 -63.5q139 0 203 87t64 228q0 127 -69 213t-204 86q-86 0 -145.5 -29.5t-85.5 -101.5h-234l154 785h741v-209h-567l-74 -365l4 -4q47 51 119 80t146 29q211 0 329.5 -132.5t118.5 -347.5q0 -199 -126 -356.5t-370 -157.5 q-217 0 -359 115t-142 322z" />
<glyph unicode="6" d="M70 721q0 303 130 522t410 219q176 0 304 -109.5t128 -281.5h-233q-8 90 -63.5 143.5t-145.5 53.5q-168 0 -232.5 -149.5t-64.5 -342.5l4 -4q45 82 128 126t181 44q209 0 331 -134t122 -347q0 -211 -133 -350.5t-344 -139.5q-295 0 -408.5 198t-113.5 552zM326 465 q0 -123 68.5 -211t189.5 -88q119 0 185.5 88t66.5 211q0 125 -64.5 209t-187.5 84t-190.5 -84t-67.5 -209z" />
<glyph unicode="7" d="M72 1225v209h981v-195q-254 -287 -394.5 -583t-140.5 -656h-256q0 317 153.5 632.5t399.5 592.5h-743z" />
<glyph unicode="8" d="M63 422q0 135 70 227t193 123v2q-203 80 -203 297q0 182 116.5 286.5t329.5 104.5q211 0 329 -103.5t118 -287.5q0 -104 -52.5 -181t-150.5 -116v-2q121 -31 191.5 -124t70.5 -226q0 -207 -141 -329t-365 -122q-225 0 -365.5 121t-140.5 330zM297 422q0 -123 76 -194.5 t196 -71.5q119 0 196 70.5t77 195.5q0 115 -77 183.5t-196 68.5q-121 0 -196.5 -67.5t-75.5 -184.5zM344 1059q0 -98 62.5 -154.5t162.5 -56.5q102 0 164 55t62 156q0 102 -64.5 160.5t-161.5 58.5q-98 0 -161.5 -57.5t-63.5 -161.5z" />
<glyph unicode="9" d="M70 973q0 213 132 351t361 138q285 0 395.5 -197.5t110.5 -551.5q0 -303 -130 -522.5t-411 -219.5q-176 0 -304 109.5t-128 281.5h234q8 -90 63.5 -143t145.5 -53q168 0 232.5 149.5t64.5 341.5l-5 5q-45 -82 -126.5 -127.5t-182.5 -45.5q-205 0 -328.5 132.5 t-123.5 351.5zM303 975q0 -127 63.5 -214t186.5 -87q125 0 192.5 87t67.5 214q0 125 -66.5 209t-193.5 84q-121 0 -185.5 -84t-64.5 -209z" />
<glyph unicode=":" horiz-adv-x="569" d="M141 0v276h285v-276h-285zM141 760v276h285v-276h-285z" />
<glyph unicode=";" horiz-adv-x="569" d="M141 0v276h285v-276q0 -123 -76 -211t-200 -113v125q66 16 99.5 71.5t33.5 127.5h-142zM141 760v276h285v-276h-285z" />
<glyph unicode="&#x3c;" horiz-adv-x="1228" d="M94 444v148l1041 461v-209l-766 -326l766 -325v-209z" />
<glyph unicode="=" horiz-adv-x="1228" d="M98 207v209h1032v-209h-1032zM98 621v208h1032v-208h-1032z" />
<glyph unicode="&#x3e;" horiz-adv-x="1228" d="M94 -16v209l766 325l-766 326v209l1041 -461v-148z" />
<glyph unicode="?" d="M100 997q0 225 133.5 362.5t358.5 137.5q195 0 320.5 -109.5t125.5 -304.5q0 -129 -44 -195.5t-139 -147.5t-136 -145.5t-41 -197.5h-221q0 170 35.5 255t128 165t127 123t34.5 135q0 113 -64.5 170.5t-135.5 57.5q-123 0 -185.5 -81t-62.5 -225h-234zM426 0v256h274 v-256h-274z" />
<glyph unicode="@" horiz-adv-x="1638" d="M100 758q0 307 222.5 523t529.5 216q279 0 482.5 -171t203.5 -429q0 -279 -164 -444.5t-319 -165.5q-51 0 -86 30.5t-35 88.5q-51 -53 -110.5 -85t-123.5 -32q-127 0 -213 94t-86 227q0 205 127 368t322 163q78 0 134 -35t95 -113l37 117h144l-148 -539q-6 -20 -12 -46.5 t-6 -43.5q0 -51 39 -51q98 0 182 130t84 312q0 223 -157 357.5t-390 134.5q-258 0 -423 -177t-165 -437q0 -295 170 -473.5t436 -178.5q135 0 256 53.5t205 149.5h144q-98 -160 -259 -248t-354 -88q-322 0 -542 222.5t-220 570.5zM575 629q0 -82 44.5 -134.5t119.5 -52.5 q115 0 198 120t83 245q0 74 -47 127t-115 53q-119 0 -201 -115.5t-82 -242.5z" />
<glyph unicode="A" horiz-adv-x="1366" d="M-14 0l561 1462h272l563 -1462h-274l-137 387h-584l-137 -387h-264zM457 582h446l-219 628h-6z" />
<glyph unicode="B" horiz-adv-x="1441" d="M156 0v1462h710q205 0 319.5 -91t114.5 -271q0 -111 -53 -190t-155 -122q135 -33 204.5 -131t69.5 -249q0 -182 -134 -295t-405 -113h-671zM412 209h452q117 0 181.5 60.5t64.5 170.5q0 109 -64.5 167.5t-181.5 58.5h-452v-457zM412 850h417q96 0 155.5 53t59.5 150 q0 106 -53 153t-162 47h-417v-403z" />
<glyph unicode="C" horiz-adv-x="1478" d="M78 731q0 326 190.5 546t509.5 220q252 0 425 -134t196 -366h-256q-35 137 -123 214t-242 77q-221 0 -332.5 -161.5t-111.5 -395.5q0 -231 111.5 -394t332.5 -163q164 0 260.5 106.5t112.5 276.5h250q0 -260 -176 -426t-447 -166q-319 0 -509.5 220.5t-190.5 545.5z" />
<glyph unicode="D" horiz-adv-x="1478" d="M156 0v1462h606q322 0 483.5 -202.5t161.5 -528.5q0 -322 -162 -526.5t-483 -204.5h-606zM412 209h252q276 0 381.5 137t105.5 385q0 250 -103.5 386t-383.5 136h-252v-1044z" />
<glyph unicode="E" horiz-adv-x="1290" d="M156 0v1462h1052v-221h-796v-383h737v-209h-737v-428h811v-221h-1067z" />
<glyph unicode="F" horiz-adv-x="1214" d="M156 0v1462h1009v-221h-753v-383h661v-209h-661v-649h-256z" />
<glyph unicode="G" horiz-adv-x="1554" d="M88 731q0 326 190.5 546t509.5 220q250 0 424 -130t203 -370h-250q-18 139 -123.5 215t-253.5 76q-221 0 -332.5 -161.5t-111.5 -395.5q0 -231 111.5 -394t332.5 -163q197 0 303.5 106.5t106.5 294.5h-389v195h623v-770h-164l-39 172q-100 -115 -201.5 -161t-239.5 -46 q-319 0 -509.5 220.5t-190.5 545.5z" />
<glyph unicode="H" horiz-adv-x="1478" d="M150 0v1462h256v-581h665v581h256v-1462h-256v659h-665v-659h-256z" />
<glyph unicode="I" horiz-adv-x="569" d="M156 0v1462h256v-1462h-256z" />
<glyph unicode="J" horiz-adv-x="1099" d="M27 434v78h256v-76q0 -133 44 -197.5t156 -64.5q119 0 162 67.5t43 215.5v1005h256v-991q0 -233 -97 -369.5t-384 -136.5q-223 0 -329.5 128t-106.5 341z" />
<glyph unicode="K" horiz-adv-x="1402" d="M156 0v1462h256v-665l651 665h315l-583 -583l624 -879h-319l-479 698l-209 -206v-492h-256z" />
<glyph unicode="L" horiz-adv-x="1175" d="M156 0v1462h256v-1241h743v-221h-999z" />
<glyph unicode="M" horiz-adv-x="1820" d="M152 0v1462h360l403 -1145l398 1145h356v-1462h-244v1128l-409 -1128h-211l-406 1128l-4 -1128h-243z" />
<glyph unicode="N" horiz-adv-x="1478" d="M145 0v1462h271l667 -1077l4 1077h244v-1462h-270l-666 1075l-6 -1075h-244z" />
<glyph unicode="O" horiz-adv-x="1556" d="M78 731q0 326 190.5 546t509.5 220t510 -220t191 -546t-190.5 -546t-510.5 -220q-319 0 -509.5 220.5t-190.5 545.5zM334 731q0 -231 111.5 -394t332.5 -163t333 162t112 395q0 231 -112 394t-333 163t-332.5 -162t-111.5 -395z" />
<glyph unicode="P" horiz-adv-x="1366" d="M156 0v1462h645q279 0 388 -136t109 -316q0 -176 -109.5 -312.5t-387.5 -136.5h-389v-561h-256zM412 770h374q102 0 179 57.5t77 184.5q0 133 -67.5 187t-183.5 54h-379v-483z" />
<glyph unicode="Q" horiz-adv-x="1556" d="M78 731q0 326 190.5 546t509.5 220t510 -220t191 -546q0 -166 -50.5 -312.5t-156.5 -248.5l188 -164l-125 -139l-213 186q-80 -45 -166 -66.5t-178 -21.5q-319 0 -509.5 220.5t-190.5 545.5zM334 731q0 -231 111.5 -394t332.5 -163q39 0 83 8t81 27l-147 129l123 141 l178 -155q68 80 97.5 183t29.5 224q0 231 -112 394t-333 163t-332.5 -161.5t-111.5 -395.5z" />
<glyph unicode="R" horiz-adv-x="1441" d="M156 0v1462h698q236 0 359.5 -103.5t123.5 -291.5q0 -141 -62.5 -234.5t-178.5 -134.5q86 -16 151.5 -86.5t65.5 -226.5q0 -137 19.5 -239.5t60.5 -145.5h-275q-25 39 -32 95.5t-7 119.5q0 211 -59 299t-232 88h-376v-602h-256zM412 797h419q250 0 250 233 q0 127 -68.5 175t-185.5 48h-415v-456z" />
<glyph unicode="S" horiz-adv-x="1327" d="M68 487h256q0 -160 102 -236.5t268 -76.5q160 0 235 63.5t75 157.5q0 78 -33 119t-92.5 63.5t-189.5 55.5t-273.5 71.5t-218 136t-74.5 226.5q0 205 159.5 317.5t374.5 112.5q240 0 401 -123t161 -344h-256q0 133 -86 195.5t-230 62.5q-109 0 -188.5 -44t-79.5 -146 q0 -74 46 -120t128 -69l422 -112q139 -41 212 -144.5t73 -228.5q0 -229 -169 -344t-413 -115q-266 0 -438 131t-172 391z" />
<glyph unicode="T" horiz-adv-x="1214" d="M16 1241v221h1184v-221h-465v-1241h-256v1241h-463z" />
<glyph unicode="U" horiz-adv-x="1478" d="M139 526v936h256v-852q0 -199 61.5 -311.5t282.5 -112.5t282.5 112t61.5 312v852h256v-936q0 -274 -160.5 -417.5t-439.5 -143.5q-276 0 -438 143.5t-162 417.5z" />
<glyph unicode="V" horiz-adv-x="1251" d="M-10 1462h266l367 -1157l378 1157h261l-500 -1462h-285z" />
<glyph unicode="W" horiz-adv-x="1933" d="M12 1462h260l265 -1118l299 1118h262l286 -1118l277 1118h260l-403 -1462h-261l-292 1118l-303 -1118h-265z" />
<glyph unicode="X" horiz-adv-x="1327" d="M-6 0l518 758l-483 704h305l332 -516l346 516h286l-483 -704l518 -758h-311l-365 559l-370 -559h-293z" />
<glyph unicode="Y" horiz-adv-x="1327" d="M-12 1462h297l387 -655l381 655h286l-546 -889v-573h-256v573z" />
<glyph unicode="Z" horiz-adv-x="1290" d="M47 0v209l852 1032h-786v221h1112v-194l-852 -1047h872v-221h-1198z" />
<glyph unicode="[" horiz-adv-x="606" d="M147 -391v1888h457v-184h-235v-1520h235v-184h-457z" />
<glyph unicode="\" horiz-adv-x="720" d="M-45 1497h223l588 -1532h-223z" />
<glyph unicode="]" horiz-adv-x="606" d="M2 -207h236v1520h-236v184h457v-1888h-457v184z" />
<glyph unicode="^" horiz-adv-x="1228" d="M172 686l369 748h147l369 -748h-209l-234 506l-233 -506h-209z" />
<glyph unicode="_" horiz-adv-x="1024" d="M0 -154h1024v-102h-1024v102z" />
<glyph unicode="`" horiz-adv-x="493" d="M-59 1497h274l186 -293h-170z" />
<glyph unicode="a" d="M66 281q0 178 107.5 242.5t259 84t261.5 37.5q96 27 97 115q0 82 -64.5 112.5t-155.5 30.5q-100 0 -162.5 -42t-70.5 -126h-234q0 188 138.5 270t343.5 82q174 0 299 -75.5t125 -231.5v-544q0 -80 55 -80l57 4v-162q-31 -10 -73.5 -18.5t-73.5 -8.5q-78 0 -122 29 t-58 100q-66 -63 -165.5 -96t-201.5 -33q-154 0 -258 80t-104 230zM299 291q0 -70 67.5 -102.5t147.5 -32.5q94 0 178 51t84 149v174q-45 -29 -127 -41t-166 -24t-134 -50t-50 -124z" />
<glyph unicode="b" horiz-adv-x="1251" d="M129 0v1462h233v-540q49 76 138.5 120.5t181.5 44.5q240 0 368 -158.5t128 -404.5q0 -231 -117 -392t-340 -161q-123 0 -220.5 39t-146.5 135l-4 -145h-221zM354 528q0 -164 79 -268t218 -104q147 0 220 108.5t73 263.5q0 156 -78 265.5t-215 109.5q-143 0 -220 -101.5 t-77 -273.5z" />
<glyph unicode="c" d="M72 518q0 252 135 410.5t387 158.5q197 0 329 -97t148 -285h-233q-14 96 -78 147t-164 51q-117 0 -204 -85t-87 -300q0 -150 68.5 -256t212.5 -106q100 0 167.5 63.5t84.5 177.5h233q-33 -207 -156.5 -316.5t-328.5 -109.5q-242 0 -378 152.5t-136 394.5z" />
<glyph unicode="d" horiz-adv-x="1251" d="M72 537q0 270 134 410t324 140q106 0 203.5 -40.5t149.5 -124.5l4 540h233v-1462h-221v143q-47 -86 -135 -129t-197 -43q-240 0 -367.5 158t-127.5 408zM305 518q0 -152 75 -257t218 -105q147 0 222 109.5t75 264.5q0 176 -78 274.5t-215 98.5q-152 0 -224.5 -112.5 t-72.5 -272.5z" />
<glyph unicode="e" d="M72 528q0 233 140 396t372 163q225 0 365.5 -158.5t140.5 -381.5q0 -37 -7 -78h-778q0 -135 72 -224t213 -89q197 0 258 176h221q-37 -168 -169 -264.5t-310 -96.5q-244 0 -381 154t-137 403zM305 623h545q0 113 -76 196.5t-190 83.5q-123 0 -201 -80t-78 -200z" />
<glyph unicode="f" horiz-adv-x="645" d="M18 885v174h175v88q0 184 78.5 249.5t213.5 65.5q113 0 164 -14v-182q-47 12 -108 12q-55 0 -85 -23.5t-30 -87.5v-108h199v-174h-199v-885h-233v885h-175z" />
<glyph unicode="g" horiz-adv-x="1214" d="M72 557q0 223 130 376.5t349 153.5q106 0 187 -43t126 -131l4 146h234v-1004q0 -236 -134 -355.5t-386 -119.5q-186 0 -329.5 80t-143.5 250h233q20 -92 85 -124t169 -32q139 0 205.5 68.5t66.5 202.5v161q-53 -88 -137 -137t-184 -49q-238 0 -356.5 156.5t-118.5 400.5z M305 535q0 -143 70.5 -247t208.5 -104q143 0 213.5 108.5t70.5 260.5t-70.5 251t-213.5 99t-211 -107.5t-68 -260.5z" />
<glyph unicode="h" horiz-adv-x="1175" d="M123 0v1462h233v-542q49 76 133 121.5t189 45.5q176 0 275.5 -92t99.5 -268v-727h-234v666q0 123 -51 180t-156 57q-115 0 -185.5 -79t-70.5 -199v-625h-233z" />
<glyph unicode="i" horiz-adv-x="493" d="M129 0v1059h233v-1059h-233zM129 1241v221h233v-221h-233z" />
<glyph unicode="j" horiz-adv-x="493" d="M-45 -227l80 -9q61 0 77.5 33t16.5 123v1139h233v-1149q0 -164 -70.5 -247t-232.5 -83q-33 0 -61.5 3t-42.5 5v185zM129 1241v221h233v-221h-233z" />
<glyph unicode="k" horiz-adv-x="1099" d="M129 0v1462h233v-831l422 428h287l-405 -389l444 -670h-285l-323 514l-140 -135v-379h-233z" />
<glyph unicode="l" horiz-adv-x="493" d="M129 0v1462h233v-1462h-233z" />
<glyph unicode="m" horiz-adv-x="1781" d="M123 0v1059h221v-148q63 86 138 131t194 45q104 0 183 -44t114 -132q61 86 140 131t192 45q174 0 264 -83.5t90 -272.5v-731h-234v618q0 152 -33.5 218.5t-158.5 66.5q-117 0 -171 -72.5t-54 -209.5v-621h-234v680q0 115 -41 169t-145 54q-96 0 -164 -72.5t-68 -201.5 v-629h-233z" />
<glyph unicode="n" horiz-adv-x="1175" d="M123 0v1059h221v-156l4 -4q53 88 139 138t191 50q176 0 275.5 -92t99.5 -268v-727h-234v666q0 123 -51 180t-156 57q-115 0 -185.5 -79t-70.5 -199v-625h-233z" />
<glyph unicode="o" horiz-adv-x="1214" d="M74 530q0 248 142 402.5t392 154.5q252 0 393.5 -153.5t141.5 -403.5t-142.5 -404.5t-392.5 -154.5t-392 154.5t-142 404.5zM307 530q0 -154 77 -264t224 -110t224 109t77 265q0 152 -76.5 262.5t-224.5 110.5q-147 0 -224 -109.5t-77 -263.5z" />
<glyph unicode="p" horiz-adv-x="1251" d="M129 -391v1450h221v-144q49 86 137 129t195 43q240 0 368 -158.5t128 -404.5q0 -231 -117 -392t-340 -161q-109 0 -205 41t-149 125l-5 -528h-233zM354 528q0 -164 79 -268t218 -104q147 0 220 108.5t73 263.5q0 156 -78 265.5t-215 109.5q-143 0 -220 -101.5t-77 -273.5 z" />
<glyph unicode="q" horiz-adv-x="1251" d="M72 524q0 246 127 404.5t368 158.5q111 0 195 -40.5t133 -131.5l4 144h221v-1450h-233v528q-55 -84 -151.5 -125t-207.5 -41q-221 0 -338.5 161t-117.5 392zM305 528q0 -158 71.5 -265t221.5 -107q147 0 222 100t75 272q0 174 -77 274.5t-220 100.5q-137 0 -215 -109.5 t-78 -265.5z" />
<glyph unicode="r" horiz-adv-x="720" d="M123 0v1059h219v-205q25 88 117 160.5t196 72.5q35 0 53.5 -2t34.5 -4v-225q-25 2 -53 6t-47 4q-125 0 -206 -96t-81 -266v-504h-233z" />
<glyph unicode="s" horiz-adv-x="1062" d="M66 340h233q8 -96 72.5 -140t167.5 -44q123 0 179 37.5t56 101.5q0 80 -65.5 103.5t-253 65.5t-277.5 107.5t-90 212.5q0 158 134 230.5t308 72.5q178 0 300 -79.5t143 -245.5h-244q-14 78 -70.5 109.5t-144.5 31.5q-74 0 -133 -23.5t-59 -84.5q0 -74 66.5 -98.5 t273 -71.5t276.5 -123t70 -187q0 -174 -141.5 -259t-331.5 -85q-209 0 -339 94.5t-130 274.5z" />
<glyph unicode="t" horiz-adv-x="681" d="M16 885v174h177v317h233v-317h211v-174h-211v-566q0 -82 19.5 -113.5t93.5 -31.5h24q41 0 74 8v-180q-25 0 -76 -6t-76 -6q-174 0 -233 63.5t-59 206.5v625h-177z" />
<glyph unicode="u" horiz-adv-x="1175" d="M123 387v672h233v-649q0 -135 51.5 -194.5t151.5 -59.5q137 0 198.5 77.5t61.5 210.5v615h234v-1059h-230v147q-45 -78 -131 -127t-174 -49q-205 0 -300 103.5t-95 312.5z" />
<glyph unicode="v" horiz-adv-x="1062" d="M18 1059h254l269 -813l262 813h241l-378 -1059h-263z" />
<glyph unicode="w" horiz-adv-x="1593" d="M27 1059h247l207 -791l203 791h236l190 -791l219 791h238l-332 -1059h-240l-196 786l-199 -786h-246z" />
<glyph unicode="x" horiz-adv-x="1099" d="M8 0l400 557l-367 502h283l221 -326l231 326h271l-361 -490l406 -569h-281l-268 391l-260 -391h-275z" />
<glyph unicode="y" horiz-adv-x="1062" d="M6 1059h256l277 -791l272 791h244l-412 -1116q-78 -197 -144.5 -280t-230.5 -83q-82 0 -162 12v197q37 -6 65 -10t46 -4q74 0 106.5 34.5t57.5 112.5l27 82z" />
<glyph unicode="z" horiz-adv-x="1024" d="M45 0v164l586 710h-545v185h860v-164l-606 -711h637v-184h-932z" />
<glyph unicode="{" horiz-adv-x="606" d="M-8 461v184q66 0 129 35t63 115v422q0 129 89 204.5t173 75.5h187v-184h-113q-70 0 -92 -40t-22 -104v-399q0 -109 -69 -157t-144 -58q86 -14 149.5 -58t63.5 -173v-387q0 -63 21.5 -103.5t92.5 -40.5h113v-184h-187q-84 0 -173 75.5t-89 204.5v406q0 88 -63.5 127 t-128.5 39z" />
<glyph unicode="|" horiz-adv-x="454" d="M123 -35v1532h209v-1532h-209z" />
<glyph unicode="}" horiz-adv-x="606" d="M-27 -207h113q70 0 92.5 40t22.5 104v399q0 109 68.5 157t144.5 58q-86 14 -149.5 58t-63.5 173v387q0 63 -21.5 103.5t-93.5 40.5h-113v184h187q84 0 173 -75.5t89 -204.5v-406q0 -88 63.5 -127t128.5 -39v-184q-66 0 -129 -35t-63 -115v-422q0 -129 -89 -204.5 t-173 -75.5h-187v184z" />
<glyph unicode="~" horiz-adv-x="1228" d="M141 516q41 80 100.5 128t155.5 48q51 0 100.5 -15t116 -45t126 -54.5t94.5 -24.5q53 0 90 35t90 104l73 -172q-63 -88 -116 -132t-140 -44q-66 0 -108.5 18.5t-100 50t-114.5 51t-121 19.5q-47 0 -89 -29.5t-83 -109.5z" />
<glyph unicode="&#xa1;" horiz-adv-x="569" d="M147 831v256h275v-256h-275zM158 43l67 637h121l68 -637v-418h-256v418z" />
<glyph unicode="&#xa2;" d="M76 518q0 256 132 412.5t341 156.5v185h88v-185q178 0 307 -105t129 -277h-233q-10 88 -65.5 143t-137.5 55v-747q184 31 211 241h233q-37 -201 -147.5 -313.5t-296.5 -112.5v-184h-88v184q-217 0 -345 158t-128 389zM309 518q0 -137 59.5 -240.5t180.5 -121.5v747 q-123 -10 -181.5 -124.5t-58.5 -260.5z" />
<glyph unicode="&#xa3;" d="M63 653v133h130q-47 57 -72 134t-25 155q0 184 144.5 303t334.5 119q242 0 378.5 -128t136.5 -378h-234q0 141 -67.5 226.5t-208.5 85.5q-96 0 -162 -63.5t-66 -176.5q0 -47 20.5 -111.5t73.5 -165.5h302v-133h-252q33 -61 32 -137q0 -102 -56 -184t-150 -152l4 -4 q45 18 94 36.5t94 18.5q47 0 77 -7t78 -24.5t86 -28.5t76 -11q109 0 199 78l105 -158q-74 -63 -149 -89t-179 -26q-45 0 -98.5 10.5t-104.5 20.5q-78 25 -126 33t-89 8q-53 0 -110.5 -18.5t-96.5 -51.5l-108 166q84 57 152.5 150.5t68.5 181.5q0 98 -43 188h-189z" />
<glyph unicode="&#xa4;" d="M41 299l117 125q-102 115 -103 291q0 88 25.5 167t77.5 128l-117 125l117 116l116 -114q49 41 132 67.5t167 26.5q82 0 158 -24.5t123 -67.5l119 116l125 -125l-115 -118q45 -49 70.5 -127t25.5 -166q0 -182 -98 -299l113 -121l-113 -113l-117 119q-49 -49 -128 -75.5 t-165 -26.5q-190 0 -301 100l-114 -119zM276 715q0 -127 84 -215t211 -88q123 0 205 90t82 217q0 125 -81 214t-204 89q-127 0 -212 -89t-85 -218z" />
<glyph unicode="&#xa5;" d="M-10 1462h260l319 -655l326 655h254l-385 -719h203v-133h-281v-139h281v-133h-281v-338h-233v338h-281v133h281v139h-281v133h201z" />
<glyph unicode="&#xa6;" horiz-adv-x="454" d="M123 -35v598h209v-598h-209zM123 899v598h209v-598h-209z" />
<glyph unicode="&#xa7;" d="M45 639q0 111 56.5 185.5t164.5 119.5q-43 45 -65.5 95.5t-22.5 111.5q0 158 121 252t283 94q180 0 295.5 -104.5t115.5 -282.5h-221q0 86 -52 144.5t-140 58.5q-66 0 -117 -43t-51 -111q0 -100 84 -149t273 -145.5t258 -184.5t69 -193q0 -94 -63.5 -179t-153.5 -115 q57 -47 84.5 -108.5t27.5 -154.5q0 -166 -117.5 -258t-287.5 -92q-197 0 -320 109.5t-123 310.5h222q0 -111 56 -173.5t159 -62.5q84 0 131 40t47 126q0 98 -77 154.5t-285 163t-279.5 197t-71.5 194.5zM266 666q0 -51 29 -89t84 -71l373 -209q57 25 89.5 67t32.5 101 q0 47 -29.5 85t-113.5 85l-340 194q-55 -16 -90 -60t-35 -103z" />
<glyph unicode="&#xa8;" horiz-adv-x="493" d="M-45 1227v221h233v-221h-233zM307 1227v221h234v-221h-234z" />
<glyph unicode="&#xa9;" horiz-adv-x="1638" d="M68 731q0 338 220 552t533 214q309 0 529.5 -214t220.5 -552q0 -336 -219.5 -551t-530.5 -215q-330 0 -541.5 218t-211.5 548zM231 731q0 -268 162 -450.5t428 -182.5q248 0 417 178.5t169 454.5t-168 454.5t-418 178.5q-252 0 -421 -177t-169 -456zM412 731 q0 190 116.5 315t313.5 125q145 0 244.5 -80.5t119.5 -228.5h-139q-16 80 -76.5 128t-148.5 48q-123 0 -195 -88t-72 -219q0 -139 74 -234.5t197 -95.5q88 0 149.5 51.5t71.5 131.5h141q-27 -145 -126 -230.5t-236 -85.5q-195 0 -314.5 130t-119.5 333z" />
<glyph unicode="&#xaa;" horiz-adv-x="778" d="M33 954q0 106 69.5 143.5t200.5 61t164 32.5t33 46q0 57 -35 74.5t-88 17.5q-66 0 -102.5 -18.5t-41.5 -67.5h-174q10 117 104.5 168t223.5 51q121 0 206 -47t85 -143v-309q0 -45 35 -45l32 2v-140q-12 -4 -47.5 -10t-48.5 -6q-57 0 -87 21.5t-40 78.5 q-27 -41 -100.5 -70.5t-138.5 -29.5q-106 0 -178 50t-72 140zM211 965q0 -39 29.5 -53.5t85.5 -14.5q72 0 123 23.5t51 85.5v90q-25 -12 -65 -19.5t-101.5 -17.5t-92 -30.5t-30.5 -63.5z" />
<glyph unicode="&#xab;" horiz-adv-x="948" d="M102 442v230l318 252v-211l-195 -156l195 -156v-211zM508 442v230l317 252v-211l-194 -156l194 -156v-211z" />
<glyph unicode="&#xac;" horiz-adv-x="1228" d="M98 621v208h1032v-608h-208v400h-824z" />
<glyph unicode="&#xad;" horiz-adv-x="796" d="M100 446v222h596v-222h-596z" />
<glyph unicode="&#xae;" horiz-adv-x="1638" d="M68 731q0 338 220 552t533 214q309 0 529.5 -214t220.5 -552q0 -336 -219.5 -551t-530.5 -215q-330 0 -541.5 218t-211.5 548zM231 731q0 -268 162 -450.5t428 -182.5q248 0 417 178.5t169 454.5t-168 454.5t-418 178.5q-252 0 -421 -177t-169 -456zM530 293v848h322 q156 0 232.5 -58.5t76.5 -185.5q0 -111 -58.5 -165t-162.5 -66l238 -373h-158l-219 362h-131v-362h-140zM670 774h155q123 0 160 33t37 100q0 70 -50 92.5t-134 22.5h-168v-248z" />
<glyph unicode="&#xb0;" horiz-adv-x="819" d="M102 1155q0 127 90.5 217t217.5 90t217 -90t90 -217t-90 -217t-217 -90t-217.5 90t-90.5 217zM217 1155q0 -80 56.5 -136t136.5 -56t136 56t56 136t-56.5 136.5t-135.5 56.5q-80 0 -136.5 -56.5t-56.5 -136.5z" />
<glyph unicode="&#xb1;" horiz-adv-x="1228" d="M98 0v209h1032v-209h-1032zM98 571v209h412v256h209v-256h411v-209h-411v-256h-209v256h-412z" />
<glyph unicode="&#xb2;" horiz-adv-x="737" d="M43 559q0 119 53.5 204t148.5 145.5t189 121.5q96 76 96 162q0 61 -43 94t-106 33q-78 0 -114 -54.5t-36 -136.5h-178q0 154 90 244t246 90q139 0 229.5 -66.5t90.5 -199.5q0 -94 -55.5 -159.5t-143.5 -122t-165 -108.5t-93 -104h436v-143h-645z" />
<glyph unicode="&#xb3;" horiz-adv-x="737" d="M33 858h164q0 -76 45 -125t127 -49q74 0 124 40t50 105q0 68 -49.5 106t-194.5 38v119q92 0 149.5 28.5t57.5 96.5q0 49 -44 75.5t-97 26.5q-68 0 -109 -43t-41 -113h-164q0 139 86 219t230 80q129 0 216 -57t87 -180q0 -68 -32 -114t-99 -71q78 -16 123 -75.5t45 -143.5 q0 -129 -96.5 -204.5t-241.5 -75.5q-166 0 -251 83t-85 234z" />
<glyph unicode="&#xb4;" horiz-adv-x="493" d="M92 1204l184 293h277l-291 -293h-170z" />
<glyph unicode="&#xb5;" horiz-adv-x="1175" d="M123 -391v1450h233v-649q0 -135 51.5 -194.5t151.5 -59.5q137 0 198.5 77.5t61.5 210.5v615h234v-1059h-230v147q-43 -76 -127 -126t-155 -50q-57 0 -103.5 16.5t-81.5 57.5v-436h-233z" />
<glyph unicode="&#xb6;" horiz-adv-x="1228" d="M63 1077q0 197 126 291t352 94h530v-1790h-164v1657h-239v-1657h-164v1033q-199 0 -320 104t-121 268z" />
<glyph unicode="&#xb8;" horiz-adv-x="493" d="M18 -410l37 82q74 -25 90.5 -28.5t42.5 -3.5q72 0 98.5 22.5t26.5 61.5q0 35 -27.5 56t-66.5 21q-45 0 -80 -20l-45 39l135 180h99l-92 -119q10 2 36 2h31q70 0 122 -38t52 -113q0 -96 -72.5 -140.5t-175.5 -44.5q-63 0 -116.5 9.5t-94.5 33.5z" />
<glyph unicode="&#xb9;" horiz-adv-x="737" d="M74 1182v118q109 0 186.5 35t95.5 109h144v-885h-178v623h-248z" />
<glyph unicode="&#xba;" horiz-adv-x="778" d="M31 1112q0 162 94 256t270 94q174 0 269.5 -95t95.5 -255t-94.5 -254t-270.5 -94q-174 0 -269 93t-95 255zM209 1112q0 -86 49 -150.5t137 -64.5q92 0 139.5 64.5t47.5 150.5t-48.5 151.5t-138.5 65.5t-138 -65.5t-48 -151.5z" />
<glyph unicode="&#xbb;" horiz-adv-x="948" d="M123 190v211l194 156l-194 156v211l317 -252v-230zM528 190v211l195 156l-195 156v211l318 -252v-230z" />
<glyph unicode="&#xbc;" horiz-adv-x="1708" d="M76 1182v118q109 0 186.5 35t95.5 109h144v-885h-178v623h-248zM289 -49l858 1532h160l-856 -1532h-162zM895 199v166l379 512h199v-525h96v-153h-96v-199h-179v199h-399zM1051 352h243v324z" />
<glyph unicode="&#xbd;" horiz-adv-x="1708" d="M74 1182v118q109 0 186.5 35t95.5 109h144v-885h-178v623h-248zM281 -49l858 1532h159l-856 -1532h-161zM969 0q0 106 49 195.5t153.5 155t194.5 125t90 157.5q0 66 -41 101.5t-108 35.5q-78 0 -114 -58.5t-36 -142.5h-178q0 162 87 253t249 91q139 0 229 -70.5 t90 -205.5q0 -94 -54 -159.5t-143 -122t-165 -103.5q-76 -55 -94 -109h436v-143h-645z" />
<glyph unicode="&#xbe;" horiz-adv-x="1708" d="M33 858h164q0 -76 45 -125t127 -49q74 0 124 40t50 105q0 66 -49.5 104t-194.5 38v119q88 0 147.5 29.5t59.5 97.5q0 49 -44 75.5t-97 26.5q-68 0 -109 -43t-41 -113h-164q0 139 86 219t230 80q129 0 216 -57t87 -180q0 -68 -32 -114t-99 -71q78 -16 123 -75.5t45 -143.5 q0 -129 -96.5 -204.5t-241.5 -75.5q-166 0 -251 83t-85 234zM401 -49l859 1532h159l-856 -1532h-162zM971 199v166l375 512h202v-525h97v-153h-97v-199h-178v199h-399zM1126 352h244v324z" />
<glyph unicode="&#xbf;" d="M100 -6q0 129 44 195.5t139.5 147.5t136.5 145.5t41 197.5h221q0 -170 -36 -255t-128 -165t-127 -123t-35 -135q0 -104 65.5 -160.5t135.5 -56.5q121 0 184.5 80t63.5 215h233q0 -219 -133 -354.5t-358 -135.5q-193 0 -320 108.5t-127 295.5zM430 831v256h275v-256h-275z " />
<glyph unicode="&#xc0;" horiz-adv-x="1366" d="M-14 0l561 1462h272l563 -1462h-274l-137 387h-584l-137 -387h-264zM377 1900h274l186 -293h-170zM457 582h446l-219 628h-6z" />
<glyph unicode="&#xc1;" horiz-adv-x="1366" d="M-14 0l561 1462h272l563 -1462h-274l-137 387h-584l-137 -387h-264zM457 582h446l-219 628h-6zM528 1577l184 293h277l-291 -293h-170z" />
<glyph unicode="&#xc2;" horiz-adv-x="1366" d="M-14 0l561 1462h272l563 -1462h-274l-137 387h-584l-137 -387h-264zM350 1607l219 293h227l222 -293h-191l-145 185l-144 -185h-188zM457 582h446l-219 628h-6z" />
<glyph unicode="&#xc3;" horiz-adv-x="1366" d="M-14 0l561 1462h272l563 -1462h-274l-137 387h-584l-137 -387h-264zM321 1622q14 90 69.5 160.5t143.5 70.5q51 0 83 -8t74 -26.5t76 -31t60 -12.5q41 0 65.5 23.5t37.5 66.5h114q-8 -57 -23.5 -95t-44 -71.5t-65.5 -51t-94 -17.5q-37 0 -65.5 8t-77 26.5t-87 30 t-63.5 11.5q-35 0 -60.5 -26t-25.5 -58h-117zM457 582h446l-219 628h-6z" />
<glyph unicode="&#xc4;" horiz-adv-x="1366" d="M-14 0l561 1462h272l563 -1462h-274l-137 387h-584l-137 -387h-264zM391 1630v221h233v-221h-233zM457 582h446l-219 628h-6zM743 1630v221h234v-221h-234z" />
<glyph unicode="&#xc5;" horiz-adv-x="1366" d="M-14 0l561 1462h272l563 -1462h-274l-137 387h-584l-137 -387h-264zM457 582h446l-219 628h-6zM473 1738q0 84 63.5 147.5t147.5 63.5q86 0 148.5 -62.5t62.5 -148.5q0 -84 -61.5 -147.5t-149.5 -63.5q-84 0 -147.5 63.5t-63.5 147.5zM559 1738q0 -49 38 -87t87 -38 q51 0 88 37t37 88t-37 88t-88 37q-49 0 -87 -38t-38 -87z" />
<glyph unicode="&#xc6;" horiz-adv-x="1972" d="M-14 0l727 1462h1179v-221h-712v-383h667v-209h-667v-428h725v-221h-969v375h-490l-176 -375h-284zM541 569h395v672h-74z" />
<glyph unicode="&#xc7;" horiz-adv-x="1478" d="M78 731q0 326 190.5 546t509.5 220q252 0 425 -134t196 -366h-256q-35 137 -123 214t-242 77q-221 0 -332.5 -161.5t-111.5 -395.5q0 -231 111.5 -394t332.5 -163q164 0 260.5 106.5t112.5 276.5h250q0 -256 -173 -423t-435 -167l-66 -86q10 2 37 2h31q70 0 122 -38 t52 -113q0 -96 -73 -140.5t-175 -44.5q-63 0 -116.5 9.5t-94.5 33.5l37 82q74 -25 90 -28.5t43 -3.5q72 0 98.5 22.5t26.5 61.5q0 35 -27.5 56t-66.5 21q-45 0 -80 -20l-45 39l112 149q-287 29 -453.5 244t-166.5 518z" />
<glyph unicode="&#xc8;" horiz-adv-x="1290" d="M156 0v1462h1052v-221h-796v-383h737v-209h-737v-428h811v-221h-1067zM340 1900h274l186 -293h-170z" />
<glyph unicode="&#xc9;" horiz-adv-x="1290" d="M156 0v1462h1052v-221h-796v-383h737v-209h-737v-428h811v-221h-1067zM491 1607l184 293h277l-291 -293h-170z" />
<glyph unicode="&#xca;" horiz-adv-x="1290" d="M156 0v1462h1052v-221h-796v-383h737v-209h-737v-428h811v-221h-1067zM313 1607l219 293h227l222 -293h-191l-145 185l-144 -185h-188z" />
<glyph unicode="&#xcb;" horiz-adv-x="1290" d="M156 0v1462h1052v-221h-796v-383h737v-209h-737v-428h811v-221h-1067zM354 1630v221h233v-221h-233zM706 1630v221h234v-221h-234z" />
<glyph unicode="&#xcc;" horiz-adv-x="569" d="M-20 1900h274l186 -293h-170zM156 0v1462h256v-1462h-256z" />
<glyph unicode="&#xcd;" horiz-adv-x="569" d="M131 1597l184 293h277l-291 -293h-170zM156 0v1462h256v-1462h-256z" />
<glyph unicode="&#xce;" horiz-adv-x="569" d="M-47 1607l219 293h227l222 -293h-191l-145 185l-144 -185h-188zM156 0v1462h256v-1462h-256z" />
<glyph unicode="&#xcf;" horiz-adv-x="569" d="M-6 1630v221h233v-221h-233zM156 0v1462h256v-1462h-256zM346 1630v221h234v-221h-234z" />
<glyph unicode="&#xd0;" horiz-adv-x="1478" d="M18 649v209h138v604h606q322 0 483.5 -202.5t161.5 -528.5q0 -322 -162 -526.5t-483 -204.5h-606v649h-138zM412 209h252q276 0 381.5 137t105.5 385q0 250 -103.5 386t-383.5 136h-252v-395h399v-209h-399v-440z" />
<glyph unicode="&#xd1;" horiz-adv-x="1478" d="M145 0v1462h271l667 -1077l4 1077h244v-1462h-270l-666 1075l-6 -1075h-244zM379 1622q14 90 69.5 160.5t143.5 70.5q51 0 83 -8t74 -26.5t76 -31t60 -12.5q41 0 65.5 23.5t37.5 66.5h114q-8 -57 -23.5 -95t-44 -71.5t-65.5 -51t-94 -17.5q-37 0 -65.5 8t-77 26.5t-87 30 t-63.5 11.5q-35 0 -60.5 -26t-25.5 -58h-117z" />
<glyph unicode="&#xd2;" horiz-adv-x="1556" d="M78 731q0 326 190.5 546t509.5 220t510 -220t191 -546t-190.5 -546t-510.5 -220q-319 0 -509.5 220.5t-190.5 545.5zM334 731q0 -231 111.5 -394t332.5 -163t333 162t112 395q0 231 -112 394t-333 163t-332.5 -162t-111.5 -395zM473 1900h274l186 -293h-170z" />
<glyph unicode="&#xd3;" horiz-adv-x="1556" d="M78 731q0 326 190.5 546t509.5 220t510 -220t191 -546t-190.5 -546t-510.5 -220q-319 0 -509.5 220.5t-190.5 545.5zM334 731q0 -231 111.5 -394t332.5 -163t333 162t112 395q0 231 -112 394t-333 163t-332.5 -162t-111.5 -395zM624 1577l184 293h277l-291 -293h-170z " />
<glyph unicode="&#xd4;" horiz-adv-x="1556" d="M78 731q0 326 190.5 546t509.5 220t510 -220t191 -546t-190.5 -546t-510.5 -220q-319 0 -509.5 220.5t-190.5 545.5zM334 731q0 -231 111.5 -394t332.5 -163t333 162t112 395q0 231 -112 394t-333 163t-332.5 -162t-111.5 -395zM446 1607l219 293h227l222 -293h-191 l-145 185l-144 -185h-188z" />
<glyph unicode="&#xd5;" horiz-adv-x="1556" d="M78 731q0 326 190.5 546t509.5 220t510 -220t191 -546t-190.5 -546t-510.5 -220q-319 0 -509.5 220.5t-190.5 545.5zM334 731q0 -231 111.5 -394t332.5 -163t333 162t112 395q0 231 -112 394t-333 163t-332.5 -162t-111.5 -395zM417 1622q14 90 69.5 160.5t143.5 70.5 q51 0 83 -8t74 -26.5t76 -31t60 -12.5q41 0 65.5 23.5t37.5 66.5h114q-8 -57 -23.5 -95t-44 -71.5t-65.5 -51t-94 -17.5q-37 0 -65.5 8t-77 26.5t-87 30t-63.5 11.5q-35 0 -60.5 -26t-25.5 -58h-117z" />
<glyph unicode="&#xd6;" horiz-adv-x="1556" d="M78 731q0 326 190.5 546t509.5 220t510 -220t191 -546t-190.5 -546t-510.5 -220q-319 0 -509.5 220.5t-190.5 545.5zM334 731q0 -231 111.5 -394t332.5 -163t333 162t112 395q0 231 -112 394t-333 163t-332.5 -162t-111.5 -395zM487 1630v221h233v-221h-233zM839 1630 v221h234v-221h-234z" />
<glyph unicode="&#xd7;" horiz-adv-x="1228" d="M113 162l356 356l-356 356l176 115l323 -325l328 325l176 -115l-358 -356l358 -356l-176 -115l-328 328l-323 -328z" />
<glyph unicode="&#xd8;" horiz-adv-x="1556" d="M78 731q0 326 190.5 546t509.5 220q139 0 252 -42t203 -124l153 172l89 -73l-162 -183q166 -213 166 -516q0 -326 -190.5 -546t-510.5 -220q-135 0 -251.5 44t-202.5 124l-156 -174l-86 74l162 184q-166 211 -166 514zM334 731q0 -96 17.5 -176t56.5 -154l673 758 q-53 63 -127.5 96t-175.5 33q-221 0 -332.5 -161.5t-111.5 -395.5zM475 303q57 -61 132 -95t171 -34q221 0 333 162t112 395q0 98 -17.5 177t-58.5 153z" />
<glyph unicode="&#xd9;" horiz-adv-x="1478" d="M139 526v936h256v-852q0 -199 61.5 -311.5t282.5 -112.5t282.5 112t61.5 312v852h256v-936q0 -274 -160.5 -417.5t-439.5 -143.5q-276 0 -438 143.5t-162 417.5zM435 1900h274l186 -293h-170z" />
<glyph unicode="&#xda;" horiz-adv-x="1478" d="M139 526v936h256v-852q0 -199 61.5 -311.5t282.5 -112.5t282.5 112t61.5 312v852h256v-936q0 -274 -160.5 -417.5t-439.5 -143.5q-276 0 -438 143.5t-162 417.5zM586 1577l184 293h277l-291 -293h-170z" />
<glyph unicode="&#xdb;" horiz-adv-x="1478" d="M139 526v936h256v-852q0 -199 61.5 -311.5t282.5 -112.5t282.5 112t61.5 312v852h256v-936q0 -274 -160.5 -417.5t-439.5 -143.5q-276 0 -438 143.5t-162 417.5zM408 1607l219 293h227l222 -293h-191l-145 185l-144 -185h-188z" />
<glyph unicode="&#xdc;" horiz-adv-x="1478" d="M139 526v936h256v-852q0 -199 61.5 -311.5t282.5 -112.5t282.5 112t61.5 312v852h256v-936q0 -274 -160.5 -417.5t-439.5 -143.5q-276 0 -438 143.5t-162 417.5zM449 1630v221h233v-221h-233zM801 1630v221h234v-221h-234z" />
<glyph unicode="&#xdd;" horiz-adv-x="1327" d="M-12 1462h297l387 -655l381 655h286l-546 -889v-573h-256v573zM510 1577l184 293h277l-291 -293h-170z" />
<glyph unicode="&#xde;" horiz-adv-x="1366" d="M156 0v1462h256v-221h389q279 0 388 -136t109 -317q0 -176 -109.5 -312t-387.5 -136h-389v-340h-256zM412 549h374q102 0 179 57.5t77 184.5q0 133 -67.5 187t-183.5 54h-379v-483z" />
<glyph unicode="&#xdf;" horiz-adv-x="1175" d="M129 0v1071q0 197 125 311.5t324 114.5q176 0 306 -100.5t130 -268.5q0 -109 -53.5 -193.5t-155.5 -115.5q125 -18 199.5 -121.5t74.5 -232.5q0 -217 -128 -355.5t-341 -138.5l-114 6v185q31 -6 79 -6q162 0 216.5 91t54.5 228q0 72 -30 121t-83 80q-41 29 -102.5 40 t-132.5 11v154q66 0 118 12t84 41q80 59 80 172q0 207 -207 207q-88 0 -149.5 -59.5t-61.5 -206.5v-1047h-233z" />
<glyph unicode="&#xe0;" d="M66 281q0 178 107.5 242.5t259 84t261.5 37.5q96 27 97 115q0 82 -64.5 112.5t-155.5 30.5q-100 0 -162.5 -42t-70.5 -126h-234q0 188 138.5 270t343.5 82q174 0 299 -75.5t125 -231.5v-544q0 -80 55 -80l57 4v-162q-31 -10 -73.5 -18.5t-73.5 -8.5q-78 0 -122 29 t-58 100q-66 -63 -165.5 -96t-201.5 -33q-154 0 -258 80t-104 230zM265 1497h274l186 -293h-170zM299 291q0 -70 67.5 -102.5t147.5 -32.5q94 0 178 51t84 149v174q-45 -29 -127 -41t-166 -24t-134 -50t-50 -124z" />
<glyph unicode="&#xe1;" d="M66 281q0 178 107.5 242.5t259 84t261.5 37.5q96 27 97 115q0 82 -64.5 112.5t-155.5 30.5q-100 0 -162.5 -42t-70.5 -126h-234q0 188 138.5 270t343.5 82q174 0 299 -75.5t125 -231.5v-544q0 -80 55 -80l57 4v-162q-31 -10 -73.5 -18.5t-73.5 -8.5q-78 0 -122 29 t-58 100q-66 -63 -165.5 -96t-201.5 -33q-154 0 -258 80t-104 230zM299 291q0 -70 67.5 -102.5t147.5 -32.5q94 0 178 51t84 149v174q-45 -29 -127 -41t-166 -24t-134 -50t-50 -124zM416 1204l184 293h277l-291 -293h-170z" />
<glyph unicode="&#xe2;" d="M66 281q0 178 107.5 242.5t259 84t261.5 37.5q96 27 97 115q0 82 -64.5 112.5t-155.5 30.5q-100 0 -162.5 -42t-70.5 -126h-234q0 188 138.5 270t343.5 82q174 0 299 -75.5t125 -231.5v-544q0 -80 55 -80l57 4v-162q-31 -10 -73.5 -18.5t-73.5 -8.5q-78 0 -122 29 t-58 100q-66 -63 -165.5 -96t-201.5 -33q-154 0 -258 80t-104 230zM238 1204l219 293h227l222 -293h-191l-145 185l-144 -185h-188zM299 291q0 -70 67.5 -102.5t147.5 -32.5q94 0 178 51t84 149v174q-45 -29 -127 -41t-166 -24t-134 -50t-50 -124z" />
<glyph unicode="&#xe3;" d="M66 281q0 178 107.5 242.5t259 84t261.5 37.5q96 27 97 115q0 82 -64.5 112.5t-155.5 30.5q-100 0 -162.5 -42t-70.5 -126h-234q0 188 138.5 270t343.5 82q174 0 299 -75.5t125 -231.5v-544q0 -80 55 -80l57 4v-162q-31 -10 -73.5 -18.5t-73.5 -8.5q-78 0 -122 29 t-58 100q-66 -63 -165.5 -96t-201.5 -33q-154 0 -258 80t-104 230zM209 1219q14 90 69.5 160.5t143.5 70.5q51 0 83 -8t74 -26.5t76 -31t60 -12.5q41 0 65.5 23.5t37.5 66.5h114q-8 -57 -23.5 -95t-44 -71.5t-65.5 -51t-94 -17.5q-37 0 -65.5 8t-77 26.5t-87 30t-63.5 11.5 q-35 0 -60.5 -26t-25.5 -58h-117zM299 291q0 -70 67.5 -102.5t147.5 -32.5q94 0 178 51t84 149v174q-45 -29 -127 -41t-166 -24t-134 -50t-50 -124z" />
<glyph unicode="&#xe4;" d="M66 281q0 178 107.5 242.5t259 84t261.5 37.5q96 27 97 115q0 82 -64.5 112.5t-155.5 30.5q-100 0 -162.5 -42t-70.5 -126h-234q0 188 138.5 270t343.5 82q174 0 299 -75.5t125 -231.5v-544q0 -80 55 -80l57 4v-162q-31 -10 -73.5 -18.5t-73.5 -8.5q-78 0 -122 29 t-58 100q-66 -63 -165.5 -96t-201.5 -33q-154 0 -258 80t-104 230zM279 1227v221h233v-221h-233zM299 291q0 -70 67.5 -102.5t147.5 -32.5q94 0 178 51t84 149v174q-45 -29 -127 -41t-166 -24t-134 -50t-50 -124zM631 1227v221h234v-221h-234z" />
<glyph unicode="&#xe5;" d="M66 281q0 178 107.5 242.5t259 84t261.5 37.5q96 27 97 115q0 82 -64.5 112.5t-155.5 30.5q-100 0 -162.5 -42t-70.5 -126h-234q0 188 138.5 270t343.5 82q174 0 299 -75.5t125 -231.5v-544q0 -80 55 -80l57 4v-162q-31 -10 -73.5 -18.5t-73.5 -8.5q-78 0 -122 29 t-58 100q-66 -63 -165.5 -96t-201.5 -33q-154 0 -258 80t-104 230zM299 291q0 -70 67.5 -102.5t147.5 -32.5q94 0 178 51t84 149v174q-45 -29 -127 -41t-166 -24t-134 -50t-50 -124zM361 1335q0 84 63.5 147.5t147.5 63.5q86 0 148.5 -62.5t62.5 -148.5q0 -84 -61.5 -147.5 t-149.5 -63.5q-84 0 -147.5 63.5t-63.5 147.5zM447 1335q0 -49 38 -87t87 -38q51 0 88 37t37 88t-37 88t-88 37q-49 0 -87 -38t-38 -87z" />
<glyph unicode="&#xe6;" horiz-adv-x="1820" d="M66 281q0 178 107.5 242.5t257 84t257.5 37.5q90 27 90 115q0 82 -59.5 112.5t-147.5 30.5q-100 0 -162.5 -42t-70.5 -126h-234q0 188 137.5 270t338.5 82q123 0 212 -28.5t146 -114.5q55 74 143 108.5t193 34.5q256 0 373.5 -166.5t117.5 -451.5h-768q0 -133 70 -223 t207 -90q94 0 156.5 46t93.5 132h233q-45 -170 -174 -266.5t-305 -96.5q-129 0 -229.5 46t-159.5 149q-66 -98 -183.5 -146.5t-256.5 -48.5q-168 0 -275.5 79t-107.5 231zM299 291q0 -72 63.5 -103.5t149.5 -31.5q106 0 185 56t79 157v157q-33 -29 -118 -40t-166 -19 q-92 -14 -142.5 -52t-50.5 -124zM997 623h535q0 127 -70.5 203.5t-197.5 76.5q-121 0 -194 -81t-73 -199z" />
<glyph unicode="&#xe7;" d="M72 518q0 252 135 410.5t387 158.5q197 0 329 -97t148 -285h-233q-14 96 -78 147t-164 51q-117 0 -204 -85t-87 -300q0 -150 68.5 -256t212.5 -106q100 0 167.5 63.5t84.5 177.5h233q-31 -201 -144.5 -311.5t-297.5 -110.5l-72 -94q10 2 37 2h31q70 0 122 -38t52 -113 q0 -96 -73 -140.5t-175 -44.5q-63 0 -116.5 9.5t-94.5 33.5l37 82q74 -25 90 -28.5t43 -3.5q72 0 98.5 22.5t26.5 61.5q0 35 -27.5 56t-66.5 21q-45 0 -80 -20l-45 39l116 155q-215 0 -337.5 157t-122.5 386z" />
<glyph unicode="&#xe8;" d="M72 528q0 233 140 396t372 163q225 0 365.5 -158.5t140.5 -381.5q0 -37 -7 -78h-778q0 -135 72 -224t213 -89q197 0 258 176h221q-37 -168 -169 -264.5t-310 -96.5q-244 0 -381 154t-137 403zM265 1497h274l186 -293h-170zM305 623h545q0 113 -76 196.5t-190 83.5 q-123 0 -201 -80t-78 -200z" />
<glyph unicode="&#xe9;" d="M72 528q0 233 140 396t372 163q225 0 365.5 -158.5t140.5 -381.5q0 -37 -7 -78h-778q0 -135 72 -224t213 -89q197 0 258 176h221q-37 -168 -169 -264.5t-310 -96.5q-244 0 -381 154t-137 403zM305 623h545q0 113 -76 196.5t-190 83.5q-123 0 -201 -80t-78 -200zM416 1204 l184 293h277l-291 -293h-170z" />
<glyph unicode="&#xea;" d="M72 528q0 233 140 396t372 163q225 0 365.5 -158.5t140.5 -381.5q0 -37 -7 -78h-778q0 -135 72 -224t213 -89q197 0 258 176h221q-37 -168 -169 -264.5t-310 -96.5q-244 0 -381 154t-137 403zM238 1204l219 293h227l222 -293h-191l-145 185l-144 -185h-188zM305 623h545 q0 113 -76 196.5t-190 83.5q-123 0 -201 -80t-78 -200z" />
<glyph unicode="&#xeb;" d="M72 528q0 233 140 396t372 163q225 0 365.5 -158.5t140.5 -381.5q0 -37 -7 -78h-778q0 -135 72 -224t213 -89q197 0 258 176h221q-37 -168 -169 -264.5t-310 -96.5q-244 0 -381 154t-137 403zM279 1227v221h233v-221h-233zM305 623h545q0 113 -76 196.5t-190 83.5 q-123 0 -201 -80t-78 -200zM631 1227v221h234v-221h-234z" />
<glyph unicode="&#xec;" horiz-adv-x="493" d="M-59 1497h274l186 -293h-170zM129 0v1059h233v-1059h-233z" />
<glyph unicode="&#xed;" horiz-adv-x="493" d="M92 1204l184 293h277l-291 -293h-170zM129 0v1059h233v-1059h-233z" />
<glyph unicode="&#xee;" horiz-adv-x="493" d="M-86 1204l219 293h227l222 -293h-191l-145 185l-144 -185h-188zM129 0v1059h233v-1059h-233z" />
<glyph unicode="&#xef;" horiz-adv-x="493" d="M-45 1227v221h233v-221h-233zM129 0v1059h233v-1059h-233zM307 1227v221h234v-221h-234z" />
<glyph unicode="&#xf1;" horiz-adv-x="1175" d="M123 0v1059h221v-156l4 -4q53 88 139 138t191 50q176 0 275.5 -92t99.5 -268v-727h-234v666q0 123 -51 180t-156 57q-115 0 -185.5 -79t-70.5 -199v-625h-233zM227 1219q14 90 69.5 160.5t143.5 70.5q51 0 83 -8t74 -26.5t76 -31t60 -12.5q41 0 65.5 23.5t37.5 66.5h114 q-8 -57 -23.5 -95t-44 -71.5t-65.5 -51t-94 -17.5q-37 0 -65.5 8t-77 26.5t-87 30t-63.5 11.5q-35 0 -60.5 -26t-25.5 -58h-117z" />
<glyph unicode="&#xf2;" horiz-adv-x="1214" d="M74 530q0 248 142 402.5t392 154.5q252 0 393.5 -153.5t141.5 -403.5t-142.5 -404.5t-392.5 -154.5t-392 154.5t-142 404.5zM301 1497h274l186 -293h-170zM307 530q0 -154 77 -264t224 -110t224 109t77 265q0 152 -76.5 262.5t-224.5 110.5q-147 0 -224 -109.5 t-77 -263.5z" />
<glyph unicode="&#xf3;" horiz-adv-x="1214" d="M74 530q0 248 142 402.5t392 154.5q252 0 393.5 -153.5t141.5 -403.5t-142.5 -404.5t-392.5 -154.5t-392 154.5t-142 404.5zM307 530q0 -154 77 -264t224 -110t224 109t77 265q0 152 -76.5 262.5t-224.5 110.5q-147 0 -224 -109.5t-77 -263.5zM452 1204l184 293h277 l-291 -293h-170z" />
<glyph unicode="&#xf4;" horiz-adv-x="1214" d="M74 530q0 248 142 402.5t392 154.5q252 0 393.5 -153.5t141.5 -403.5t-142.5 -404.5t-392.5 -154.5t-392 154.5t-142 404.5zM274 1204l219 293h227l222 -293h-191l-145 185l-144 -185h-188zM307 530q0 -154 77 -264t224 -110t224 109t77 265q0 152 -76.5 262.5 t-224.5 110.5q-147 0 -224 -109.5t-77 -263.5z" />
<glyph unicode="&#xf5;" horiz-adv-x="1214" d="M74 530q0 248 142 402.5t392 154.5q252 0 393.5 -153.5t141.5 -403.5t-142.5 -404.5t-392.5 -154.5t-392 154.5t-142 404.5zM245 1219q14 90 69.5 160.5t143.5 70.5q51 0 83 -8t74 -26.5t76 -31t60 -12.5q41 0 65.5 23.5t37.5 66.5h114q-8 -57 -23.5 -95t-44 -71.5 t-65.5 -51t-94 -17.5q-37 0 -65.5 8t-77 26.5t-87 30t-63.5 11.5q-35 0 -60.5 -26t-25.5 -58h-117zM307 530q0 -154 77 -264t224 -110t224 109t77 265q0 152 -76.5 262.5t-224.5 110.5q-147 0 -224 -109.5t-77 -263.5z" />
<glyph unicode="&#xf6;" horiz-adv-x="1214" d="M74 530q0 248 142 402.5t392 154.5q252 0 393.5 -153.5t141.5 -403.5t-142.5 -404.5t-392.5 -154.5t-392 154.5t-142 404.5zM307 530q0 -154 77 -264t224 -110t224 109t77 265q0 152 -76.5 262.5t-224.5 110.5q-147 0 -224 -109.5t-77 -263.5zM315 1227v221h233v-221 h-233zM667 1227v221h234v-221h-234z" />
<glyph unicode="&#xf7;" horiz-adv-x="1228" d="M98 414v209h1032v-209h-1032zM467 96q0 61 43 104.5t104 43.5t104.5 -43t43.5 -105q0 -55 -44 -101t-102 -46q-59 0 -104 43t-45 104zM467 940q0 61 43 104t104 43t104.5 -43t43.5 -104q0 -55 -44 -101t-102 -46q-59 0 -104 43t-45 104z" />
<glyph unicode="&#xf8;" horiz-adv-x="1214" d="M66 0l133 147q-125 150 -125 383q0 248 142 402.5t392 154.5q213 0 348 -112l129 141l66 -57l-133 -146q125 -154 125 -383q0 -250 -142.5 -404.5t-392.5 -154.5q-209 0 -346 115l-131 -143zM307 530q0 -61 10.5 -111t36.5 -102l457 500q-80 86 -203 86 q-147 0 -224 -109.5t-77 -263.5zM406 242q80 -86 202 -86q147 0 224 109.5t77 264.5q0 59 -10 109.5t-37 101.5z" />
<glyph unicode="&#xf9;" horiz-adv-x="1175" d="M123 387v672h233v-649q0 -135 51.5 -194.5t151.5 -59.5q137 0 198.5 77.5t61.5 210.5v615h234v-1059h-230v147q-45 -78 -131 -127t-174 -49q-205 0 -300 103.5t-95 312.5zM283 1497h274l186 -293h-170z" />
<glyph unicode="&#xfa;" horiz-adv-x="1175" d="M123 387v672h233v-649q0 -135 51.5 -194.5t151.5 -59.5q137 0 198.5 77.5t61.5 210.5v615h234v-1059h-230v147q-45 -78 -131 -127t-174 -49q-205 0 -300 103.5t-95 312.5zM434 1204l184 293h277l-291 -293h-170z" />
<glyph unicode="&#xfb;" horiz-adv-x="1175" d="M123 387v672h233v-649q0 -135 51.5 -194.5t151.5 -59.5q137 0 198.5 77.5t61.5 210.5v615h234v-1059h-230v147q-45 -78 -131 -127t-174 -49q-205 0 -300 103.5t-95 312.5zM256 1204l219 293h227l222 -293h-191l-145 185l-144 -185h-188z" />
<glyph unicode="&#xfc;" horiz-adv-x="1175" d="M123 387v672h233v-649q0 -135 51.5 -194.5t151.5 -59.5q137 0 198.5 77.5t61.5 210.5v615h234v-1059h-230v147q-45 -78 -131 -127t-174 -49q-205 0 -300 103.5t-95 312.5zM297 1227v221h233v-221h-233zM649 1227v221h234v-221h-234z" />
<glyph unicode="&#xfd;" horiz-adv-x="1062" d="M6 1059h256l277 -791l272 791h244l-412 -1116q-78 -197 -144.5 -280t-230.5 -83q-82 0 -162 12v197q37 -6 65 -10t46 -4q74 0 106.5 34.5t57.5 112.5l27 82zM377 1204l184 293h277l-291 -293h-170z" />
<glyph unicode="&#xfe;" horiz-adv-x="1251" d="M129 -391v1853h233v-540q49 76 138.5 120.5t181.5 44.5q240 0 368 -158.5t128 -404.5q0 -231 -117 -392t-340 -161q-113 0 -207 40t-147 126l-5 -528h-233zM354 528q0 -164 79 -268t218 -104q147 0 220 108.5t73 263.5q0 156 -78 265.5t-215 109.5q-143 0 -220 -101.5 t-77 -273.5z" />
<glyph unicode="&#xff;" horiz-adv-x="1062" d="M6 1059h256l277 -791l272 791h244l-412 -1116q-78 -197 -144.5 -280t-230.5 -83q-82 0 -162 12v197q37 -6 65 -10t46 -4q74 0 106.5 34.5t57.5 112.5l27 82zM240 1227v221h233v-221h-233zM592 1227v221h234v-221h-234z" />
<glyph unicode="&#x152;" horiz-adv-x="2238" d="M84 725q0 326 184.5 549t503.5 223q115 0 206 -35t163 -116v116h999v-221h-766v-383h703v-209h-703v-428h780v-221h-1013v131q-70 -82 -171.5 -124t-213.5 -42q-311 0 -491.5 220.5t-180.5 539.5zM340 729q0 -229 111.5 -392t328.5 -163q156 0 253 87t97 188v544 q0 123 -90 209t-260 86q-217 0 -328.5 -166t-111.5 -393z" />
<glyph unicode="&#x153;" horiz-adv-x="1857" d="M72 532q0 238 135 396.5t371 158.5q127 0 221 -39.5t149 -138.5q57 92 154.5 135t216.5 43q258 0 373.5 -171t115.5 -447h-774q0 -137 71 -225t206 -88q96 0 165.5 45t86.5 135h233q-43 -176 -170 -270.5t-311 -94.5q-133 0 -228.5 43t-150.5 152q-55 -106 -150.5 -150.5 t-226.5 -44.5q-236 0 -361.5 160t-125.5 401zM305 537q0 -166 60.5 -273.5t209.5 -107.5q147 0 209 109.5t62 271.5q0 150 -65.5 258t-205.5 108q-137 0 -203.5 -109.5t-66.5 -256.5zM1034 623h541q0 131 -70.5 205.5t-204.5 74.5q-117 0 -191.5 -81.5t-74.5 -198.5z" />
<glyph unicode="&#x178;" horiz-adv-x="1327" d="M-12 1462h297l387 -655l381 655h286l-546 -889v-573h-256v573zM373 1630v221h233v-221h-233zM725 1630v221h234v-221h-234z" />
<glyph unicode="&#x2000;" horiz-adv-x="974" />
<glyph unicode="&#x2001;" horiz-adv-x="1949" />
<glyph unicode="&#x2002;" horiz-adv-x="974" />
<glyph unicode="&#x2003;" horiz-adv-x="1949" />
<glyph unicode="&#x2004;" horiz-adv-x="649" />
<glyph unicode="&#x2005;" horiz-adv-x="487" />
<glyph unicode="&#x2006;" horiz-adv-x="324" />
<glyph unicode="&#x2007;" horiz-adv-x="324" />
<glyph unicode="&#x2008;" horiz-adv-x="243" />
<glyph unicode="&#x2009;" horiz-adv-x="389" />
<glyph unicode="&#x200a;" horiz-adv-x="108" />
<glyph unicode="&#x2010;" horiz-adv-x="796" d="M100 446v222h596v-222h-596z" />
<glyph unicode="&#x2011;" horiz-adv-x="796" d="M100 446v222h596v-222h-596z" />
<glyph unicode="&#x2012;" horiz-adv-x="796" d="M100 446v222h596v-222h-596z" />
<glyph unicode="&#x2013;" horiz-adv-x="1024" d="M0 446v222h1024v-222h-1024z" />
<glyph unicode="&#x2014;" horiz-adv-x="2048" d="M0 446v222h2048v-222h-2048z" />
<glyph unicode="&#x2018;" horiz-adv-x="569" d="M158 885v276q0 113 71.5 191t184.5 110v-119q-125 -43 -125 -182h125v-276h-256z" />
<glyph unicode="&#x2019;" horiz-adv-x="569" d="M158 885v119q68 8 96.5 57t28.5 125h-125v276h256v-276q0 -121 -69 -203t-187 -98z" />
<glyph unicode="&#x201a;" horiz-adv-x="569" d="M158 0v276h256v-276q0 -113 -72 -190.5t-184 -110.5v119q125 43 125 182h-125z" />
<glyph unicode="&#x201c;" horiz-adv-x="909" d="M123 885v276q0 113 71.5 191t184.5 110v-119q-125 -43 -125 -182h125v-276h-256zM530 885v276q0 113 72 191t184 110v-119q-125 -43 -124 -182h124v-276h-256z" />
<glyph unicode="&#x201d;" horiz-adv-x="909" d="M123 885v119q125 43 125 182h-125v276h256v-276q0 -113 -71.5 -190.5t-184.5 -110.5zM530 885v119q125 43 125 182h-125v276h256v-276q0 -113 -71.5 -190.5t-184.5 -110.5z" />
<glyph unicode="&#x201e;" horiz-adv-x="909" d="M123 0v276h256v-276q0 -113 -71.5 -190.5t-184.5 -110.5v119q125 43 125 182h-125zM530 0v276h256v-276q0 -113 -71.5 -190.5t-184.5 -110.5v119q125 43 125 182h-125z" />
<glyph unicode="&#x2022;" horiz-adv-x="1024" d="M147 731q0 152 106.5 258.5t258.5 106.5t259.5 -105.5t107.5 -259.5t-106.5 -260t-260.5 -106q-152 0 -258.5 106.5t-106.5 259.5z" />
<glyph unicode="&#x2026;" horiz-adv-x="2048" d="M199 0v276h284v-276h-284zM881 0v276h284v-276h-284zM1563 0v276h284v-276h-284z" />
<glyph unicode="&#x202f;" horiz-adv-x="389" />
<glyph unicode="&#x2039;" horiz-adv-x="530" d="M102 442v230l318 252v-211l-195 -156l195 -156v-211z" />
<glyph unicode="&#x203a;" horiz-adv-x="530" d="M111 190v211l194 156l-194 156v211l317 -252v-230z" />
<glyph unicode="&#x205f;" horiz-adv-x="487" />
<glyph unicode="&#x2122;" horiz-adv-x="2027" d="M121 1329v133h680v-133h-258v-711h-164v711h-258zM973 618v844h237l232 -598l229 598h236v-844h-154v660l-256 -660h-115l-252 660l-4 -660h-153z" />
<glyph unicode="&#x25fc;" horiz-adv-x="1054" d="M0 0v1055h1055v-1055h-1055z" />
</font>
</defs>
</svg>
