<?xml version="1.0" standalone="no"?>
<!DOCTYPE svg PUBLIC "-//W3C//DTD SVG 1.1//EN" "http://www.w3.org/Graphics/SVG/1.1/DTD/svg11.dtd" >
<svg xmlns="http://www.w3.org/2000/svg">
<metadata></metadata>
<defs>
<font id="helveticaneue-romanregular" horiz-adv-x="1138" >
<font-face units-per-em="2048" ascent="1638" descent="-410" />
<missing-glyph horiz-adv-x="569" />
<glyph horiz-adv-x="0" />
<glyph unicode="&#xd;" horiz-adv-x="569" />
<glyph unicode=" "  horiz-adv-x="569" />
<glyph unicode="&#x09;" horiz-adv-x="569" />
<glyph unicode="&#xa0;" horiz-adv-x="569" />
<glyph unicode="!" horiz-adv-x="530" d="M152 0v227h227v-227h-227zM168 1012v450h194v-450l-51 -637h-92z" />
<glyph unicode="&#x22;" horiz-adv-x="872" d="M223 934v528h139v-528h-139zM510 934v528h139v-528h-139z" />
<glyph unicode="#" d="M70 422v139h219l43 307h-209v140h227l60 419h141l-59 -419h253l60 419h141l-59 -419h182v-140h-201l-43 -307h187v-139h-207l-60 -422h-141l60 422h-254l-60 -422h-141l59 422h-198zM430 561h254l43 307h-254z" />
<glyph unicode="$" d="M51 446h174q0 -133 79 -214.5t210 -102.5v543q-227 55 -323.5 139t-96.5 256q0 184 121 307t299 123v135h113v-137q164 -20 263 -121.5t140 -283.5h-174q-41 203 -229 237v-504l123 -32q117 -29 221 -122.5t104 -258.5q0 -197 -126 -321t-322 -124v-168h-113v168 q-209 20 -336 146.5t-127 334.5zM279 1085q0 -100 58 -148t177 -83v479q-104 -12 -169.5 -73.5t-65.5 -174.5zM627 129q121 0 192.5 65.5t71.5 196.5q0 106 -66.5 160.5t-197.5 91.5v-514z" />
<glyph unicode="%" horiz-adv-x="2048" d="M188 1036q0 186 77 301t255 115q176 0 252 -111.5t76 -298.5q0 -176 -80 -293.5t-248 -117.5q-174 0 -253 111.5t-79 293.5zM342 1040q0 -125 34 -211t138 -86t142 88.5t38 210.5q0 160 -47 228.5t-127 68.5q-100 0 -139 -89t-39 -210zM385 -45l1102 1524h174 l-1100 -1524h-176zM1200 381q0 186 77 301t255 115q176 0 252 -112t76 -298q0 -176 -80 -294t-248 -118q-174 0 -253 112t-79 294zM1354 385q0 -125 34 -211t138 -86t142 88t38 211q0 160 -47 228.5t-127 68.5q-100 0 -139 -89t-39 -210z" />
<glyph unicode="&#x26;" horiz-adv-x="1290" d="M68 375q0 158 88 256t254 186q-104 147 -133 198.5t-29 145.5q0 127 89 214t241 87q147 0 250.5 -77.5t103.5 -221.5q0 -121 -76 -215t-199 -164l265 -321q20 55 33.5 114.5t13.5 112.5h166q0 -92 -13.5 -151.5t-85.5 -208.5l285 -330h-227l-156 182 q-63 -100 -175 -153.5t-239 -53.5q-260 0 -358 129t-98 271zM252 377q0 -106 84 -177t194 -71q96 0 176 46t136 128l-336 404q-162 -92 -208 -164t-46 -166zM422 1153q0 -55 33.5 -108.5t107.5 -145.5q88 55 141.5 113.5t53.5 140.5q0 63 -46 109.5t-122 46.5 q-70 0 -119 -40t-49 -116z" />
<glyph unicode="'" horiz-adv-x="569" d="M215 934v528h139v-528h-139z" />
<glyph unicode="(" horiz-adv-x="530" d="M96 553q0 244 83 490.5t239 453.5h133q-139 -219 -204.5 -455.5t-65.5 -488.5q0 -264 63.5 -495.5t206.5 -463.5h-133q-158 246 -240 475.5t-82 483.5z" />
<glyph unicode=")" horiz-adv-x="530" d="M-20 -406q139 219 204.5 456t65.5 489q0 264 -63.5 495.5t-206.5 462.5h133q158 -246 239.5 -475t81.5 -483q0 -244 -83 -491t-238 -454h-133z" />
<glyph unicode="*" horiz-adv-x="720" d="M49 1214l37 99l217 -82v231h109v-231l219 82l41 -99l-223 -77l135 -187l-84 -63l-142 196l-133 -196l-92 63l133 187z" />
<glyph unicode="+" horiz-adv-x="1228" d="M98 449v139h447v448h139v-448h446v-139h-446v-449h-139v449h-447z" />
<glyph unicode="," horiz-adv-x="569" d="M170 0v227h227v-207q0 -119 -55 -203.5t-170 -117.5v102q63 20 91 79t28 120h-121z" />
<glyph unicode="-" horiz-adv-x="796" d="M102 487v164h592v-164h-592z" />
<glyph unicode="." horiz-adv-x="569" d="M170 0v227h227v-227h-227z" />
<glyph unicode="/" horiz-adv-x="681" d="M-37 -35l606 1532h150l-606 -1532h-150z" />
<glyph unicode="0" d="M86 713q0 215 28.5 365.5t136 262t318.5 111.5q301 0 392.5 -205t91.5 -534q0 -215 -29 -365.5t-136.5 -261.5t-318.5 -111q-213 0 -317.5 109t-135 265.5t-30.5 363.5zM270 715q0 -256 52 -421t247 -165t247 167t52 419q0 256 -51 419.5t-248 163.5q-195 0 -247 -166.5 t-52 -416.5z" />
<glyph unicode="1" d="M178 1040v140q170 0 280.5 59t137.5 213h133v-1452h-174v1040h-377z" />
<glyph unicode="2" d="M49 0q0 162 54.5 269.5t133 172t252 172t256 195.5t82.5 227q0 117 -80.5 189.5t-199.5 72.5q-141 0 -212 -106.5t-71 -253.5h-174q0 229 121 371.5t346 142.5q199 0 327 -110.5t128 -307.5q0 -133 -69 -248.5t-280.5 -245.5t-300 -200t-110.5 -186h745v-154h-948z" />
<glyph unicode="3" d="M61 449h175q0 -143 81.5 -231.5t227.5 -88.5q133 0 224 76t91 205q0 131 -87 204.5t-222 73.5l-105 -6v147l76 -2q117 0 197 62.5t80 175.5q0 111 -72 172t-186 61q-135 0 -205 -89t-70 -226h-174q0 213 117 341t332 128q201 0 321.5 -97.5t120.5 -291.5 q0 -92 -56.5 -170t-144.5 -119q127 -31 194.5 -126t67.5 -230q0 -209 -142 -326t-357 -117q-225 0 -354.5 125t-129.5 349z" />
<glyph unicode="4" d="M57 340v168l662 944h139v-958h197v-154h-197v-340h-164v340h-637zM207 494h487v710z" />
<glyph unicode="5" d="M72 391h174q0 -113 87 -187.5t218 -74.5t219 89t88 255q0 145 -90 237.5t-238 92.5q-82 0 -148.5 -35t-121.5 -102l-149 8l135 753h717v-153h-586l-78 -418l4 -4q45 51 120 77.5t150 26.5q207 0 338 -128t131 -369q0 -199 -134 -341.5t-373 -142.5q-197 0 -330 112 t-133 304z" />
<glyph unicode="6" d="M78 674q0 344 123 561t411 217q180 0 287 -96t123 -275h-174q-12 100 -76.5 158.5t-167.5 58.5q-199 0 -275.5 -165.5t-76.5 -384.5l4 -5q61 98 150.5 144.5t211.5 46.5q203 0 324 -133t121 -338q0 -188 -118 -338t-367 -150q-223 0 -361.5 157t-138.5 542zM285 453 q0 -141 80.5 -232.5t220.5 -91.5q135 0 214 93t79 229q0 141 -75 235t-218 94q-141 0 -221 -92t-80 -235z" />
<glyph unicode="7" d="M102 1264v163h940v-149q-231 -229 -394 -588.5t-163 -689.5h-194q0 344 159.5 668.5t413.5 595.5h-762z" />
<glyph unicode="8" d="M82 418q0 129 66.5 224t187.5 138q-92 37 -147.5 119t-55.5 182q0 172 125 271.5t301 99.5q221 0 330.5 -108.5t109.5 -262.5q0 -96 -55 -178t-145 -123q258 -82 258 -362q0 -205 -136.5 -324t-345.5 -119q-219 0 -356 114t-137 329zM266 410q0 -129 86 -205t223 -76 q129 0 213 80t84 203q0 117 -88 196.5t-211 79.5q-131 0 -219 -78t-88 -200zM317 1075q0 -115 71.5 -174t186.5 -59q106 0 173 62.5t67 170.5q0 106 -66.5 164.5t-177.5 58.5q-109 0 -181.5 -59t-72.5 -164z" />
<glyph unicode="9" d="M70 979q0 211 133 342t344 131q227 0 362 -155.5t135 -538.5q0 -387 -121.5 -585t-381.5 -198q-190 0 -307 95.5t-134 279.5h174q8 -104 82 -162.5t185 -58.5q328 0 327 561l-4 4q-49 -90 -140 -145t-196 -55q-217 0 -337.5 133t-120.5 352zM254 954q0 -123 82 -215 t205 -92q133 0 215 92t82 228q0 141 -79 236t-220 95q-145 0 -215 -98t-70 -246z" />
<glyph unicode=":" horiz-adv-x="569" d="M170 0v227h227v-227h-227zM170 831v228h227v-228h-227z" />
<glyph unicode=";" horiz-adv-x="569" d="M170 0v227h227v-207q0 -119 -55 -203.5t-170 -117.5v102q63 20 91 79t28 120h-121zM170 831v228h227v-228h-227z" />
<glyph unicode="&#x3c;" horiz-adv-x="1228" d="M94 455v127l1041 471v-140l-871 -395l871 -395v-139z" />
<glyph unicode="=" horiz-adv-x="1228" d="M98 242v139h1032v-139h-1032zM98 655v140h1032v-140h-1032z" />
<glyph unicode="&#x3e;" horiz-adv-x="1228" d="M94 -16v139l871 395l-871 395v140l1041 -471v-127z" />
<glyph unicode="?" d="M113 1006q0 215 123.5 353t334.5 138q195 0 314 -108.5t119 -301.5q0 -115 -44.5 -189.5t-136.5 -162.5t-133 -145.5t-41 -153.5v-80h-174v97q0 111 47 181.5t141.5 164.5t125 160.5t30.5 144.5q0 111 -68.5 175t-179.5 64q-139 0 -211.5 -94t-72.5 -243h-174zM446 0v227 h228v-227h-228z" />
<glyph unicode="@" horiz-adv-x="1638" d="M86 737q0 317 223 538.5t537 221.5q289 0 492.5 -179t203.5 -452q0 -250 -157.5 -422t-321.5 -172q-55 0 -93 34t-38 100q-59 -63 -123 -100.5t-137 -37.5q-127 0 -210 93.5t-83 230.5q0 227 136 404.5t345 177.5q78 0 136.5 -39t93.5 -129l47 129h129l-172 -582 q-6 -23 -14.5 -54.5t-8.5 -49.5q0 -63 49 -64q94 0 188.5 153.5t94.5 317.5q0 233 -165 380.5t-390 147.5q-260 0 -441.5 -193.5t-181.5 -463.5q0 -272 186.5 -460.5t446.5 -188.5q147 0 284.5 67.5t223.5 180.5h129q-98 -168 -270 -264.5t-371 -96.5q-326 0 -547 223.5 t-221 548.5zM532 606q0 -86 50.5 -142t126.5 -56q125 0 221 147t96 289q0 74 -50 132t-116 58q-135 0 -231.5 -141.5t-96.5 -286.5z" />
<glyph unicode="A" horiz-adv-x="1327" d="M-14 0l571 1462h215l571 -1462h-215l-159 440h-619l-164 -440h-200zM412 604h495l-243 682z" />
<glyph unicode="B" horiz-adv-x="1402" d="M160 0v1462h530q143 0 235.5 -8t162 -50t115.5 -119t46 -181q0 -115 -57 -200t-160 -128q135 -31 207 -125t72 -231q0 -172 -118 -296t-327 -124h-706zM354 164h488q127 0 200.5 69.5t73.5 192.5q0 131 -88 187.5t-229 56.5h-445v-506zM354 834h389q162 0 237 58t75 175 q0 137 -82 184t-230 47h-389v-464z" />
<glyph unicode="C" horiz-adv-x="1478" d="M88 727q0 334 182.5 552t509.5 218q238 0 404 -124t198 -351h-194q-31 152 -140.5 231.5t-269.5 79.5q-248 0 -371.5 -170t-123.5 -422q0 -270 123.5 -441t373.5 -171q190 0 306 118t116 304h195q-29 -276 -193 -431t-440 -155q-328 0 -502 213t-174 549z" />
<glyph unicode="D" horiz-adv-x="1441" d="M160 0v1462h502q344 0 523 -173t179 -523q0 -377 -171 -571.5t-531 -194.5h-502zM354 164h324q178 0 334.5 112.5t156.5 462.5q0 274 -113.5 416.5t-373.5 142.5h-328v-1134z" />
<glyph unicode="E" horiz-adv-x="1251" d="M160 0v1462h1009v-164h-815v-464h760v-164h-760v-506h822v-164h-1016z" />
<glyph unicode="F" horiz-adv-x="1175" d="M160 0v1462h960v-164h-766v-464h672v-164h-672v-670h-194z" />
<glyph unicode="G" horiz-adv-x="1554" d="M88 702q0 338 182.5 566.5t513.5 228.5q256 0 422 -118.5t207 -366.5h-194q-29 160 -146 240.5t-289 80.5q-248 0 -374.5 -181t-126.5 -439q0 -242 134 -413t367 -171q221 0 345 134t124 343h-467v164h641v-770h-122l-52 182q-80 -111 -204.5 -164t-264.5 -53 q-313 0 -504.5 218t-191.5 519z" />
<glyph unicode="H" horiz-adv-x="1478" d="M160 0v1462h194v-628h770v628h195v-1462h-195v670h-770v-670h-194z" />
<glyph unicode="I" horiz-adv-x="530" d="M168 0v1462h194v-1462h-194z" />
<glyph unicode="J" horiz-adv-x="1062" d="M45 391v90h195v-61q0 -141 50 -216t185 -75q125 0 179.5 68.5t54.5 195.5v1069h194v-1097q0 -170 -101.5 -285t-330.5 -115q-205 0 -315.5 108.5t-110.5 317.5z" />
<glyph unicode="K" horiz-adv-x="1366" d="M160 0v1462h194v-729l742 729h252l-617 -590l641 -872h-246l-528 739l-244 -227v-512h-194z" />
<glyph unicode="L" d="M160 0v1462h194v-1298h774v-164h-968z" />
<glyph unicode="M" horiz-adv-x="1783" d="M164 0v1462h266l461 -1229l463 1229h266v-1462h-184v1217l-461 -1217h-166l-457 1217l-4 -1217h-184z" />
<glyph unicode="N" horiz-adv-x="1478" d="M158 0v1462h207l770 -1186l4 1186h184v-1462h-213l-764 1174l-4 -1174h-184z" />
<glyph unicode="O" horiz-adv-x="1556" d="M78 731q0 319 184 542.5t516 223.5t516.5 -223t184.5 -543q0 -319 -184.5 -542.5t-516.5 -223.5t-516 223.5t-184 542.5zM272 731q0 -248 128 -425t378 -177t378 177t128 425t-128 425t-378 177t-378 -177t-128 -425z" />
<glyph unicode="P" horiz-adv-x="1327" d="M160 0v1462h641q217 0 332.5 -113.5t115.5 -318.5t-115.5 -318.5t-332.5 -113.5h-447v-598h-194zM354 762h381q319 0 320 268q0 133 -78 200.5t-242 67.5h-381v-536z" />
<glyph unicode="Q" horiz-adv-x="1556" d="M78 731q0 319 184 542.5t516 223.5t516.5 -223t184.5 -543q0 -172 -56.5 -323.5t-165.5 -257.5l193 -154l-98 -123l-224 180q-147 -88 -350 -88q-332 0 -516 223.5t-184 542.5zM272 731q0 -248 128 -425t378 -177q109 0 203 41l-162 129l103 119l194 -156q82 82 125 207 t43 262q0 248 -128 425t-378 177t-378 -177t-128 -425z" />
<glyph unicode="R" horiz-adv-x="1402" d="M160 0v1462h688q207 0 325.5 -102.5t118.5 -280.5q0 -141 -62.5 -237.5t-191.5 -132.5q117 -25 162 -102t55.5 -194.5t18.5 -226.5q16 -121 69 -186h-217q-33 35 -38 174t-15 186q-23 164 -83 214.5t-161 50.5h-475v-625h-194zM354 788h406q158 0 248 55.5t90 205.5 q0 113 -64.5 181t-195.5 68h-484v-510z" />
<glyph unicode="S" horiz-adv-x="1327" d="M76 481h184q0 -174 122 -263t304 -89q158 0 264.5 60.5t106.5 205.5q0 156 -138.5 201t-375 96t-329.5 144.5t-93 232.5q0 211 154.5 319.5t375.5 108.5q238 0 388.5 -116.5t150.5 -346.5h-184q-16 152 -111.5 225.5t-251.5 73.5q-141 0 -234.5 -58t-93.5 -192 q0 -119 96.5 -158.5t375 -102t371.5 -165t93 -256.5q0 -215 -172 -325.5t-399 -110.5q-264 0 -434 130t-170 386z" />
<glyph unicode="T" horiz-adv-x="1175" d="M4 1298v164h1170v-164h-488v-1298h-194v1298h-488z" />
<glyph unicode="U" horiz-adv-x="1478" d="M152 528v934h194v-934q0 -195 104.5 -297t301.5 -102q184 0 282.5 102.5t98.5 296.5v934h194v-934q0 -276 -149.5 -419.5t-425.5 -143.5q-289 0 -444.5 139.5t-155.5 423.5z" />
<glyph unicode="V" horiz-adv-x="1251" d="M-2 1462h211l418 -1267l426 1267h202l-520 -1462h-221z" />
<glyph unicode="W" horiz-adv-x="1896" d="M25 1462h198l287 -1216l332 1216h211l323 -1216l301 1216h195l-391 -1462h-203l-334 1229l-342 -1229h-203z" />
<glyph unicode="X" horiz-adv-x="1251" d="M-2 0l510 752l-481 710h233l365 -571l381 571h217l-484 -710l514 -752h-237l-393 604l-406 -604h-219z" />
<glyph unicode="Y" horiz-adv-x="1327" d="M4 1462h232l438 -696l428 696h221l-559 -864v-598h-195v598z" />
<glyph unicode="Z" horiz-adv-x="1251" d="M45 0v164l909 1134h-839v164h1069v-164l-908 -1134h932v-164h-1163z" />
<glyph unicode="[" horiz-adv-x="530" d="M147 -406v1903h383v-139h-219v-1624h219v-140h-383z" />
<glyph unicode="\" horiz-adv-x="681" d="M-37 1497h150l606 -1532h-150z" />
<glyph unicode="]" horiz-adv-x="530" d="M0 -266h219v1624h-219v139h383v-1903h-383v140z" />
<glyph unicode="^" horiz-adv-x="1228" d="M102 541l447 886h131l446 -886h-143l-371 737l-364 -737h-146z" />
<glyph unicode="_" horiz-adv-x="1024" d="M0 -154h1024v-102h-1024v102z" />
<glyph unicode="`" horiz-adv-x="454" d="M-47 1497h223l176 -293h-131z" />
<glyph unicode="a" horiz-adv-x="1099" d="M74 272q0 162 92 227.5t241.5 92t274.5 49.5q106 29 106 113q0 102 -65.5 139t-169.5 37q-123 0 -193.5 -45t-70.5 -156h-174q0 182 127 268t321 86q178 0 288 -60t110 -230v-545q0 -72 8 -95.5t47 -23.5q25 0 53 10v-135q-47 -29 -125 -29q-70 0 -108.5 41t-38.5 123 q-70 -82 -166 -123t-207 -41q-158 0 -254 73t-96 224zM258 285q0 -82 57.5 -119t147.5 -37q156 0 239.5 77t83.5 163v178q-43 -31 -135 -45.5t-187 -29.5t-150.5 -56t-55.5 -131z" />
<glyph unicode="b" horiz-adv-x="1214" d="M137 0v1462h174v-547q43 84 136.5 126t205.5 42q231 0 359.5 -159.5t128.5 -397.5t-125 -394.5t-359 -156.5q-98 0 -192 39t-150 127l-4 -141h-174zM305 530q0 -172 82 -286.5t252 -114.5q166 0 241.5 116.5t75.5 293.5q0 164 -82.5 277.5t-244.5 113.5q-164 0 -244 -116 t-80 -284z" />
<glyph unicode="c" horiz-adv-x="1099" d="M74 516q0 252 128 409.5t371 157.5q193 0 316 -90t141 -274h-180q-43 211 -262 211q-174 0 -252 -117t-78 -297q0 -162 77 -274.5t232 -112.5q125 0 199 66.5t92 191.5h178q-31 -197 -149.5 -304.5t-317.5 -107.5q-236 0 -365.5 148.5t-129.5 392.5z" />
<glyph unicode="d" horiz-adv-x="1214" d="M74 532q0 238 125 394.5t358 156.5q98 0 192.5 -38.5t149.5 -126.5l4 544h174v-1462h-174v143q-43 -84 -136 -126t-206 -42q-231 0 -359 160t-128 397zM258 520q0 -164 83 -277.5t245 -113.5q164 0 243.5 115.5t79.5 283.5q0 172 -82 287t-252 115q-166 0 -241.5 -117 t-75.5 -293z" />
<glyph unicode="e" horiz-adv-x="1099" d="M74 532q0 240 139 395.5t358 155.5q252 0 366 -185t114 -421h-793q0 -150 82 -249t248 -99q227 0 274 207h172q-35 -174 -152.5 -267.5t-299.5 -93.5q-248 0 -378 152t-130 405zM258 631h608q0 123 -88 211t-217 88q-133 0 -218 -87t-85 -212z" />
<glyph unicode="f" horiz-adv-x="606" d="M25 905v154h178v158q0 262 293 262q59 0 112 -17v-151q-43 14 -98 14q-68 0 -100.5 -25.5t-32.5 -93.5v-147h205v-154h-205v-905h-174v905h-178z" />
<glyph unicode="g" horiz-adv-x="1175" d="M74 524q0 221 118.5 390t370.5 169q104 0 186 -44t130 -132h2v152h163v-969q0 -262 -119.5 -391t-371.5 -129q-176 0 -307 75.5t-131 235.5h174q0 -86 86 -129t188 -43q164 0 241 106.5t77 295.5v69q-43 -92 -136.5 -142t-197.5 -50q-225 0 -349 153.5t-124 382.5z M258 545q0 -166 70.5 -285t228.5 -119q160 0 237.5 120t77.5 290q0 158 -73.5 268.5t-227.5 110.5q-156 0 -234.5 -110.5t-78.5 -274.5z" />
<glyph unicode="h" d="M131 0v1462h174v-559q43 88 137.5 134t200.5 46q197 0 281 -101t84 -286v-696h-174v717q0 98 -57.5 155.5t-158.5 57.5q-154 0 -233.5 -91t-79.5 -241v-598h-174z" />
<glyph unicode="i" horiz-adv-x="454" d="M141 0v1059h174v-1059h-174zM141 1249v213h174v-213h-174z" />
<glyph unicode="j" horiz-adv-x="454" d="M-29 -248q18 -4 36 -4h36q57 0 77.5 31t20.5 115v1165h174v-1194q0 -135 -67.5 -203t-186.5 -68h-53q-27 6 -37 9v149zM141 1249v213h174v-213h-174z" />
<glyph unicode="k" horiz-adv-x="1062" d="M141 0v1462h174v-866l484 463h233l-420 -385l451 -674h-221l-363 553l-164 -152v-401h-174z" />
<glyph unicode="l" horiz-adv-x="454" d="M141 0v1462h174v-1462h-174z" />
<glyph unicode="m" horiz-adv-x="1746" d="M131 0v1059h164v-156q125 180 346 180q104 0 182 -43t109 -137q55 86 141 133t191 47q168 0 260 -72.5t92 -234.5v-776h-174v694q0 113 -43 174.5t-162 61.5q-125 0 -200.5 -74t-75.5 -197v-659h-175v694q0 113 -44 174.5t-154 61.5q-137 0 -210 -93.5t-73 -177.5v-659 h-174z" />
<glyph unicode="n" d="M131 0v1059h164v-168q57 98 144 145t204 47q197 0 281 -101t84 -286v-696h-174v717q0 98 -57.5 155.5t-158.5 57.5q-154 0 -233.5 -91t-79.5 -241v-598h-174z" />
<glyph unicode="o" horiz-adv-x="1175" d="M74 528q0 242 135 398.5t379 156.5t379 -155.5t135 -399.5q0 -242 -135.5 -397.5t-378.5 -155.5q-244 0 -379 156t-135 397zM258 528q0 -186 94.5 -292.5t235.5 -106.5q143 0 236.5 105.5t93.5 293.5q0 186 -94.5 294t-235.5 108q-143 0 -236.5 -105.5t-93.5 -296.5z" />
<glyph unicode="p" horiz-adv-x="1214" d="M137 -406v1465h174v-144q43 84 136.5 126t205.5 42q231 0 359.5 -159.5t128.5 -397.5t-125 -394.5t-359 -156.5q-98 0 -192 39t-150 127l-4 -547h-174zM305 530q0 -172 82 -286.5t252 -114.5q166 0 241.5 116.5t75.5 293.5q0 164 -82.5 277.5t-244.5 113.5 q-164 0 -244 -116t-80 -284z" />
<glyph unicode="q" horiz-adv-x="1214" d="M74 532q0 238 125 394.5t358 156.5q98 0 192.5 -38.5t149.5 -126.5l4 141h174v-1465h-174v549q-43 -84 -136 -126t-206 -42q-231 0 -359 160t-128 397zM258 520q0 -164 83 -277.5t245 -113.5q164 0 243.5 115.5t79.5 283.5q0 172 -82 287t-252 115q-166 0 -241.5 -117 t-75.5 -293z" />
<glyph unicode="r" horiz-adv-x="681" d="M125 0v1059h164v-223q66 127 160 187t233 60v-184q-203 0 -293 -108.5t-90 -319.5v-471h-174z" />
<glyph unicode="s" horiz-adv-x="1024" d="M63 334h175q0 -106 81.5 -155.5t202.5 -49.5q104 0 180 34t76 124q0 88 -78.5 120.5t-254 72.5t-267.5 102.5t-92 199.5q0 147 119 224t276 77q199 0 316.5 -74.5t117.5 -256.5h-174q-8 94 -77.5 136t-167.5 42q-94 0 -160 -31t-66 -104q0 -82 68 -107.5t254 -70 t278.5 -108t92.5 -200.5q0 -174 -132.5 -254t-318.5 -80q-197 0 -323 86t-126 273z" />
<glyph unicode="t" horiz-adv-x="645" d="M18 905v154h181v317h174v-317h211v-154h-211v-657q0 -57 25.5 -75.5t105.5 -18.5h80v-154h-133q-143 0 -197.5 45t-54.5 186v674h-181z" />
<glyph unicode="u" d="M131 362v697h174v-717q0 -98 57.5 -155.5t157.5 -57.5q154 0 234 91t80 241v598h174v-1059h-164v168q-57 -98 -144.5 -145.5t-203.5 -47.5q-197 0 -281 101.5t-84 285.5z" />
<glyph unicode="v" horiz-adv-x="1024" d="M29 1059h194l297 -883l293 883h182l-387 -1059h-186z" />
<glyph unicode="w" horiz-adv-x="1552" d="M35 1059h192l240 -866l217 866h190l222 -866l241 866h181l-338 -1059h-185l-215 842l-217 -842h-188z" />
<glyph unicode="x" horiz-adv-x="1060" d="M18 0l398 557l-369 502h223l254 -371l264 371h209l-364 -488l409 -571h-223l-295 438l-295 -438h-211z" />
<glyph unicode="y" horiz-adv-x="1024" d="M16 1059h197l309 -866l301 866h185l-461 -1200q-61 -160 -127 -221.5t-180 -61.5q-45 0 -64.5 3t-56.5 15v160q25 -8 50.5 -16t51.5 -8q51 0 84 23.5t60 72.5l71 180z" />
<glyph unicode="z" horiz-adv-x="983" d="M45 0v133l639 772h-598v154h823v-119l-647 -786h676v-154h-893z" />
<glyph unicode="{" horiz-adv-x="681" d="M98 475v139q68 0 119 69t51 173v373q0 121 69 194.5t152 73.5h144v-123h-103q-53 0 -75.5 -51t-22.5 -125v-375q0 -125 -60.5 -192.5t-117.5 -81.5q84 -23 131 -99.5t47 -181.5v-374q0 -76 21.5 -126.5t76.5 -50.5h103v-123h-144q-86 0 -153.5 72t-67.5 197v373 q0 109 -50 174t-120 65z" />
<glyph unicode="|" horiz-adv-x="454" d="M158 -35v1532h139v-1532h-139z" />
<glyph unicode="}" horiz-adv-x="681" d="M49 -283h103q53 0 75.5 51.5t22.5 125.5v374q0 125 60.5 192.5t117.5 82.5q-84 23 -131 99.5t-47 180.5v371q0 80 -21.5 130t-76.5 50h-103v123h144q86 0 153.5 -71.5t67.5 -196.5v-373q0 -109 50 -175.5t120 -66.5v-139q-68 0 -119 -67.5t-51 -171.5v-373 q0 -121 -69 -195t-152 -74h-144v123z" />
<glyph unicode="~" horiz-adv-x="1228" d="M141 469q41 80 100.5 128t155.5 48q51 0 100.5 -15.5t127 -51t127 -58t82.5 -22.5q63 0 102 49t78 106l73 -102q-63 -88 -116 -132t-140 -44q-66 0 -108.5 18.5t-105 52t-115.5 55t-115 21.5q-59 0 -100 -45t-72 -110z" />
<glyph unicode="&#xa1;" horiz-adv-x="530" d="M152 831v228h227v-228h-227zM168 45l51 637h92l51 -637v-451h-194v451z" />
<glyph unicode="&#xa2;" d="M94 516q0 238 121 402.5t342 164.5v195h80v-195q174 0 284.5 -91t131.5 -273h-179q-20 96 -81.5 153.5t-155.5 57.5v-801q106 10 167.5 80t80.5 178h174q-16 -166 -128 -289t-294 -123v-213h-80v213q-219 0 -341 152t-122 389zM279 516q0 -160 68.5 -273.5t209.5 -113.5 v801q-147 -18 -212.5 -132t-65.5 -282z" />
<glyph unicode="&#xa3;" d="M96 113q94 63 160 159.5t66 206.5q0 41 -14.5 92.5t-37.5 98.5h-174v92h119q-47 80 -71.5 152.5t-24.5 166.5q0 188 135 302t332 114q229 0 356 -135t127 -393h-174q0 178 -76 276t-223 98q-123 0 -208 -76.5t-85 -191.5q0 -100 39 -180t68 -133h325v-92h-280 q18 -35 29.5 -75t11.5 -79q0 -125 -59.5 -206t-178.5 -179l4 -4q86 39 127 49t88 10q51 0 94 -8t92.5 -21.5l93.5 -25.5t87 -12q45 0 92 20.5t90 55.5l88 -136q-59 -51 -134 -72.5t-165 -21.5q-45 0 -95 11.5t-113.5 31t-110.5 30.5t-99 11q-59 0 -103 -16.5t-101 -55.5z " />
<glyph unicode="&#xa4;" d="M51 297l113 119q-106 129 -107 299q0 88 28 168t83 135l-117 119l101 100l114 -115q125 104 309 105q84 0 160 -26.5t133 -76.5l117 115l102 -104l-112 -113q51 -57 78.5 -136t27.5 -167q0 -178 -106 -307l112 -115l-96 -96l-114 118q-119 -113 -304 -112 q-188 0 -311 110l-112 -118zM231 715q0 -150 98.5 -252.5t243.5 -102.5q141 0 237.5 104.5t96.5 254.5q0 147 -95 250.5t-237 103.5q-147 0 -245.5 -102t-98.5 -256z" />
<glyph unicode="&#xa5;" d="M0 1462h223l357 -723l346 723h213l-365 -706h191v-123h-258l-37 -68v-86h295v-123h-295v-356h-195v356h-289v123h289v86l-37 68h-252v123h189z" />
<glyph unicode="&#xa6;" horiz-adv-x="454" d="M158 -35v598h139v-598h-139zM158 899v598h139v-598h-139z" />
<glyph unicode="&#xa7;" d="M72 666q0 94 63.5 176t155.5 106q-47 47 -70.5 99.5t-23.5 117.5q0 154 112.5 243t265.5 89q174 0 275.5 -95t101.5 -284h-174q0 96 -56 160.5t-151 64.5q-86 0 -140 -45t-54 -131q0 -102 87 -156.5t273.5 -153.5t253 -189t66.5 -199q0 -100 -59.5 -182t-153.5 -119 q121 -90 121 -246q0 -145 -107.5 -236.5t-275.5 -91.5q-186 0 -299 104.5t-113 283.5h174q0 -104 64.5 -169t169.5 -65q84 0 145 44t61 126q0 94 -69.5 145.5t-284.5 168t-286.5 217t-71.5 217.5zM240 674q0 -100 66.5 -150.5t148.5 -99.5q78 -41 145.5 -80t140.5 -90 q68 29 108 76t40 114q0 74 -59.5 128.5t-144.5 105.5t-169 102t-127 80q-63 -23 -106 -73t-43 -113z" />
<glyph unicode="&#xa8;" horiz-adv-x="454" d="M-57 1212v213h184v-213h-184zM328 1212v213h184v-213h-184z" />
<glyph unicode="&#xa9;" horiz-adv-x="1638" d="M49 735q0 322 226.5 542t545.5 220q315 0 541.5 -220t226.5 -542q0 -328 -225 -549t-543 -221q-319 0 -545.5 222.5t-226.5 547.5zM188 735q0 -281 182.5 -469t450.5 -188q264 0 446.5 188.5t182.5 468.5q0 274 -181.5 461.5t-447.5 187.5q-268 0 -450.5 -186 t-182.5 -463zM391 731q0 209 121 338t328 129q152 0 257 -81t128 -230h-129q-16 86 -85 142t-169 56q-147 0 -229.5 -98t-82.5 -252q0 -150 87.5 -255t228.5 -105q98 0 166.5 59.5t83.5 149.5h131q-33 -150 -135.5 -236t-245.5 -86q-205 0 -330 131t-125 338z" />
<glyph unicode="&#xaa;" horiz-adv-x="774" d="M51 961q0 96 71 144t195.5 61.5t169.5 28.5t45 54q0 61 -41.5 81t-115.5 20q-82 0 -126 -26t-44 -89h-123q0 113 85 165t216 52q113 0 189.5 -39t76.5 -139v-328q0 -66 29 -65q31 0 45 4v-90q-43 -16 -88 -17q-104 0 -105 94q-90 -94 -239 -94q-104 0 -172 46t-68 137z M190 965q0 -47 34 -65.5t93 -18.5q104 0 156.5 43t52.5 98v96q-31 -18 -104.5 -30.5t-117.5 -19.5t-79 -30.5t-35 -72.5z" />
<glyph unicode="&#xab;" horiz-adv-x="948" d="M102 479v180l312 246v-176l-205 -160l205 -159v-177zM504 479v180l311 246v-176l-205 -160l205 -159v-177z" />
<glyph unicode="&#xac;" horiz-adv-x="1228" d="M98 655v140h1032v-572h-139v432h-893z" />
<glyph unicode="&#xad;" horiz-adv-x="796" d="M102 487v164h592v-164h-592z" />
<glyph unicode="&#xae;" horiz-adv-x="1638" d="M49 735q0 322 226.5 542t545.5 220q315 0 541.5 -220t226.5 -542q0 -328 -225 -549t-543 -221q-319 0 -545.5 222.5t-226.5 547.5zM188 735q0 -281 182.5 -469t450.5 -188q264 0 446.5 188.5t182.5 468.5q0 276 -180 462.5t-449 186.5q-268 0 -450.5 -186t-182.5 -463z M522 285v895h346q313 0 314 -256q0 -115 -64.5 -173.5t-171.5 -70.5l256 -395h-149l-244 385h-147v-385h-140zM662 782h145q117 0 176 26t59 122q0 80 -54 108.5t-142 28.5h-184v-285z" />
<glyph unicode="&#xb0;" horiz-adv-x="819" d="M115 1157q0 123 86 209t209 86t209 -86t86 -209t-86.5 -209t-208.5 -86q-123 0 -209 86t-86 209zM217 1157q0 -78 53.5 -135t139.5 -57t139 57t53 135t-53 135.5t-139 57.5t-139.5 -57.5t-53.5 -135.5z" />
<glyph unicode="&#xb1;" horiz-adv-x="1228" d="M98 0v139h1032v-139h-1032zM98 555v139h447v340h139v-340h446v-139h-446v-342h-139v342h-447z" />
<glyph unicode="&#xb2;" horiz-adv-x="681" d="M29 573q0 139 63.5 211t193.5 147t183 128t53 137q0 63 -48 103t-122 40q-86 0 -127 -58t-41 -144h-139q0 141 85 228t228 87q129 0 216.5 -69.5t87.5 -188.5q0 -102 -59.5 -165.5t-191.5 -142.5t-180.5 -113t-62.5 -87h481v-113h-620z" />
<glyph unicode="&#xb3;" horiz-adv-x="681" d="M8 848h139q0 -86 49.5 -131t139.5 -45q80 0 136 40t56 107q0 78 -55 118t-135 40h-68v102h49q76 0 123 32t47 101q0 59 -44 93t-113 34q-80 0 -122 -48t-42 -128h-139q0 133 82 211t221 78q131 0 214 -62.5t83 -177.5q0 -55 -40 -102t-100 -72q178 -41 179 -213 q0 -127 -97.5 -196.5t-234.5 -69.5q-143 0 -235.5 75t-92.5 214z" />
<glyph unicode="&#xb4;" horiz-adv-x="454" d="M102 1204l177 293h223l-269 -293h-131z" />
<glyph unicode="&#xb5;" d="M131 -406v1465h174v-717q0 -98 57.5 -155.5t157.5 -57.5q154 0 234 91t80 241v598h174v-1059h-164v168q-57 -98 -144.5 -145.5t-203.5 -47.5q-137 0 -187 78l-4 -459h-174z" />
<glyph unicode="&#xb6;" horiz-adv-x="1228" d="M98 1040q0 199 124 310.5t343 111.5h490v-1779h-140v1667h-249v-1667h-140v976q-184 0 -306 110t-122 271z" />
<glyph unicode="&#xb8;" horiz-adv-x="454" d="M10 -391l37 90q35 -14 63.5 -20.5t61.5 -6.5q53 0 90 14.5t37 49.5q0 29 -27.5 46t-68.5 17q-23 0 -38 -3t-46 -13l-35 57l125 160h86l-86 -109l4 -4q23 14 68 15q70 0 121 -39t51 -111q0 -94 -78 -138t-176 -44q-49 0 -90 9t-99 30z" />
<glyph unicode="&#xb9;" horiz-adv-x="681" d="M135 1204v103q111 0 182.5 31.5t90.5 113.5h102v-879h-139v631h-236z" />
<glyph unicode="&#xba;" horiz-adv-x="786" d="M51 1112q0 150 89 245t253 95q162 0 252 -94t90 -246q0 -150 -88 -242t-252 -92q-160 0 -252 92.5t-92 241.5zM190 1112q0 -100 50.5 -165.5t154.5 -65.5q102 0 151.5 64.5t49.5 164.5q0 135 -59.5 187.5t-143.5 52.5q-88 0 -145.5 -60.5t-57.5 -177.5z" />
<glyph unicode="&#xbb;" horiz-adv-x="948" d="M133 233v177l205 159l-205 160v176l311 -246v-180zM535 233v177l204 159l-204 160v176l311 -246v-180z" />
<glyph unicode="&#xbc;" horiz-adv-x="1708" d="M74 1204v103q111 0 182.5 31.5t89.5 113.5h103v-879h-140v631h-235zM307 -57l891 1542h131l-891 -1542h-131zM946 197v118l430 564h105v-570h123v-112h-123v-197h-127v197h-408zM1047 309h307v396z" />
<glyph unicode="&#xbd;" horiz-adv-x="1708" d="M74 1204v103q111 0 182.5 31.5t89.5 113.5h103v-879h-140v631h-235zM276 -57l891 1542h131l-890 -1542h-132zM1012 0q0 139 63.5 211t193.5 146.5t183 128t53 137.5q0 63 -48 103t-122 40q-86 0 -127 -58.5t-41 -144.5h-139q0 141 85 228.5t228 87.5q129 0 216.5 -70 t87.5 -188q0 -102 -59.5 -166t-191.5 -143t-180.5 -112.5t-62.5 -86.5h481v-113h-620z" />
<glyph unicode="&#xbe;" horiz-adv-x="1708" d="M100 848h140q0 -86 49 -131t139 -45q80 0 136.5 40t56.5 107q0 78 -55.5 118t-135.5 40h-68v102h50q76 0 123 32t47 101q0 59 -44 93t-114 34q-80 0 -122 -48t-42 -128h-139q0 133 82 211t221 78q131 0 214 -62.5t83 -177.5q0 -55 -40 -102t-99 -72q178 -41 178 -213 q0 -127 -97.5 -196.5t-234.5 -69.5q-143 0 -235.5 75t-92.5 214zM440 -57l891 1542h131l-891 -1542h-131zM981 197v118l430 564h105v-570h122v-112h-122v-197h-127v197h-408zM1083 301h308v395z" />
<glyph unicode="&#xbf;" d="M139 -20q0 115 44 189.5t136.5 162.5t133.5 145.5t41 153.5v63h174v-80q0 -111 -47.5 -181.5t-141.5 -164.5t-124.5 -160.5t-30.5 -144.5q0 -111 68.5 -175t178.5 -64q139 0 212 94t73 243h174q0 -215 -124 -353t-335 -138q-195 0 -313.5 108.5t-118.5 301.5zM463 831 v228h227v-228h-227z" />
<glyph unicode="&#xc0;" horiz-adv-x="1327" d="M-14 0l571 1462h215l571 -1462h-215l-159 440h-619l-164 -440h-200zM389 1859h223l176 -293h-131zM412 604h495l-243 682z" />
<glyph unicode="&#xc1;" horiz-adv-x="1327" d="M-14 0l571 1462h215l571 -1462h-215l-159 440h-619l-164 -440h-200zM412 604h495l-243 682zM538 1566l177 293h223l-269 -293h-131z" />
<glyph unicode="&#xc2;" horiz-adv-x="1327" d="M-14 0l571 1462h215l571 -1462h-215l-159 440h-619l-164 -440h-200zM356 1566l211 293h191l213 -293h-173l-141 197l-143 -197h-158zM412 604h495l-243 682z" />
<glyph unicode="&#xc3;" horiz-adv-x="1327" d="M-14 0l571 1462h215l571 -1462h-215l-159 440h-619l-164 -440h-200zM317 1585q29 109 77 167t138 58q37 0 70 -9t83 -32t76.5 -32t57.5 -9q37 0 60.5 26.5t33.5 63.5h107q-12 -90 -64 -164q-29 -33 -65.5 -48t-96.5 -15q-23 0 -53.5 9t-81.5 32q-55 20 -83.5 29.5 t-53.5 9.5q-37 0 -67.5 -24.5t-30.5 -61.5h-107zM412 604h495l-243 682z" />
<glyph unicode="&#xc4;" horiz-adv-x="1327" d="M-14 0l571 1462h215l571 -1462h-215l-159 440h-619l-164 -440h-200zM379 1574v213h184v-213h-184zM412 604h495l-243 682zM764 1574v213h184v-213h-184z" />
<glyph unicode="&#xc5;" horiz-adv-x="1327" d="M-14 0l571 1462h215l571 -1462h-215l-159 440h-619l-164 -440h-200zM412 604h495l-243 682zM432 1718q0 96 67.5 163.5t163.5 67.5t164 -67.5t68 -163.5t-67.5 -164t-164.5 -68q-96 0 -163.5 68t-67.5 164zM524 1718q0 -59 40 -99t99 -40t99.5 39.5t40.5 99.5 q0 59 -40 99t-100 40q-59 0 -99 -40t-40 -99z" />
<glyph unicode="&#xc6;" horiz-adv-x="1896" d="M-14 0l739 1462h1096v-164h-719v-464h676v-164h-676v-506h731v-164h-915v426h-504l-209 -426h-219zM489 590h429v708h-84z" />
<glyph unicode="&#xc7;" horiz-adv-x="1478" d="M88 727q0 334 182.5 552t509.5 218q238 0 404 -124t198 -351h-194q-31 152 -140.5 231.5t-269.5 79.5q-248 0 -371.5 -170t-123.5 -422q0 -270 123.5 -441t373.5 -171q190 0 306 118t116 304h195q-29 -272 -189.5 -428t-427.5 -156l-59 -76l4 -4q23 14 68 15 q70 0 121 -39t51 -111q0 -94 -78 -138t-176 -44q-49 0 -90 9t-99 30l37 90q35 -14 63.5 -20.5t61.5 -6.5q53 0 90 14.5t37 49.5q0 29 -27.5 46t-68.5 17q-23 0 -38 -3t-46 -13l-35 57l100 129q-293 0 -450.5 217t-157.5 541z" />
<glyph unicode="&#xc8;" horiz-adv-x="1251" d="M160 0v1462h1009v-164h-815v-464h760v-164h-760v-506h822v-164h-1016zM352 1859h223l176 -293h-131z" />
<glyph unicode="&#xc9;" horiz-adv-x="1251" d="M160 0v1462h1009v-164h-815v-464h760v-164h-760v-506h822v-164h-1016zM501 1566l177 293h223l-269 -293h-131z" />
<glyph unicode="&#xca;" horiz-adv-x="1251" d="M160 0v1462h1009v-164h-815v-464h760v-164h-760v-506h822v-164h-1016zM319 1566l211 293h191l213 -293h-173l-141 197l-143 -197h-158z" />
<glyph unicode="&#xcb;" horiz-adv-x="1251" d="M160 0v1462h1009v-164h-815v-464h760v-164h-760v-506h822v-164h-1016zM342 1574v213h184v-213h-184zM727 1574v213h184v-213h-184z" />
<glyph unicode="&#xcc;" horiz-adv-x="530" d="M-8 1859h223l176 -293h-131zM168 0v1462h194v-1462h-194z" />
<glyph unicode="&#xcd;" horiz-adv-x="530" d="M141 1566l177 293h223l-269 -293h-131zM168 0v1462h194v-1462h-194z" />
<glyph unicode="&#xce;" horiz-adv-x="530" d="M-41 1566l211 293h191l213 -293h-173l-141 197l-143 -197h-158zM168 0v1462h194v-1462h-194z" />
<glyph unicode="&#xcf;" horiz-adv-x="530" d="M-18 1574v213h184v-213h-184zM168 0v1462h194v-1462h-194zM367 1574v213h184v-213h-184z" />
<glyph unicode="&#xd0;" horiz-adv-x="1441" d="M16 694v140h144v628h502q344 0 523 -173t179 -523q0 -377 -171 -571.5t-531 -194.5h-502v694h-144zM354 164h324q178 0 334.5 112.5t156.5 462.5q0 274 -113.5 416.5t-373.5 142.5h-328v-464h439v-140h-439v-530z" />
<glyph unicode="&#xd1;" horiz-adv-x="1478" d="M158 0v1462h207l770 -1186l4 1186h184v-1462h-213l-764 1174l-4 -1174h-184zM393 1585q29 109 77 167t138 58q37 0 70 -9t83 -32t76.5 -32t57.5 -9q37 0 60.5 26.5t33.5 63.5h107q-12 -90 -64 -164q-29 -33 -65.5 -48t-96.5 -15q-23 0 -53.5 9t-81.5 32 q-55 20 -83.5 29.5t-53.5 9.5q-37 0 -67.5 -24.5t-30.5 -61.5h-107z" />
<glyph unicode="&#xd2;" horiz-adv-x="1556" d="M78 731q0 319 184 542.5t516 223.5t516.5 -223t184.5 -543q0 -319 -184.5 -542.5t-516.5 -223.5t-516 223.5t-184 542.5zM272 731q0 -248 128 -425t378 -177t378 177t128 425t-128 425t-378 177t-378 -177t-128 -425zM504 1859h223l176 -293h-131z" />
<glyph unicode="&#xd3;" horiz-adv-x="1556" d="M78 731q0 319 184 542.5t516 223.5t516.5 -223t184.5 -543q0 -319 -184.5 -542.5t-516.5 -223.5t-516 223.5t-184 542.5zM272 731q0 -248 128 -425t378 -177t378 177t128 425t-128 425t-378 177t-378 -177t-128 -425zM653 1566l177 293h223l-269 -293h-131z" />
<glyph unicode="&#xd4;" horiz-adv-x="1556" d="M78 731q0 319 184 542.5t516 223.5t516.5 -223t184.5 -543q0 -319 -184.5 -542.5t-516.5 -223.5t-516 223.5t-184 542.5zM272 731q0 -248 128 -425t378 -177t378 177t128 425t-128 425t-378 177t-378 -177t-128 -425zM471 1566l211 293h191l213 -293h-173l-141 197 l-143 -197h-158z" />
<glyph unicode="&#xd5;" horiz-adv-x="1556" d="M78 731q0 319 184 542.5t516 223.5t516.5 -223t184.5 -543q0 -319 -184.5 -542.5t-516.5 -223.5t-516 223.5t-184 542.5zM272 731q0 -248 128 -425t378 -177t378 177t128 425t-128 425t-378 177t-378 -177t-128 -425zM432 1585q29 109 77 167t138 58q37 0 70 -9t83 -32 t76.5 -32t57.5 -9q37 0 60.5 26.5t33.5 63.5h107q-12 -90 -64 -164q-29 -33 -65.5 -48t-96.5 -15q-23 0 -53.5 9t-81.5 32q-55 20 -83.5 29.5t-53.5 9.5q-37 0 -67.5 -24.5t-30.5 -61.5h-107z" />
<glyph unicode="&#xd6;" horiz-adv-x="1556" d="M78 731q0 319 184 542.5t516 223.5t516.5 -223t184.5 -543q0 -319 -184.5 -542.5t-516.5 -223.5t-516 223.5t-184 542.5zM272 731q0 -248 128 -425t378 -177t378 177t128 425t-128 425t-378 177t-378 -177t-128 -425zM494 1574v213h184v-213h-184zM879 1574v213h184v-213 h-184z" />
<glyph unicode="&#xd7;" horiz-adv-x="1228" d="M145 147l373 373l-371 369l99 98l370 -369l369 369l98 -98l-368 -369l370 -373l-98 -98l-371 373l-372 -373z" />
<glyph unicode="&#xd8;" horiz-adv-x="1556" d="M76 20l172 189q-82 102 -126 237.5t-44 284.5q0 319 184 542.5t516 223.5q150 0 266.5 -46t208.5 -134l162 178l66 -61l-168 -185q82 -106 124 -237t42 -281q0 -319 -184.5 -542.5t-516.5 -223.5q-145 0 -263 46t-206 130l-166 -182zM272 731q0 -106 25 -203.5t78 -179.5 l755 834q-61 72 -149 111.5t-203 39.5q-250 0 -378 -177t-128 -425zM430 274q61 -70 147.5 -107.5t200.5 -37.5q250 0 378 177t128 425q0 109 -23.5 202t-74.5 175z" />
<glyph unicode="&#xd9;" horiz-adv-x="1478" d="M152 528v934h194v-934q0 -195 104.5 -297t301.5 -102q184 0 282.5 102.5t98.5 296.5v934h194v-934q0 -276 -149.5 -419.5t-425.5 -143.5q-289 0 -444.5 139.5t-155.5 423.5zM465 1859h223l176 -293h-131z" />
<glyph unicode="&#xda;" horiz-adv-x="1478" d="M152 528v934h194v-934q0 -195 104.5 -297t301.5 -102q184 0 282.5 102.5t98.5 296.5v934h194v-934q0 -276 -149.5 -419.5t-425.5 -143.5q-289 0 -444.5 139.5t-155.5 423.5zM614 1566l177 293h223l-269 -293h-131z" />
<glyph unicode="&#xdb;" horiz-adv-x="1478" d="M152 528v934h194v-934q0 -195 104.5 -297t301.5 -102q184 0 282.5 102.5t98.5 296.5v934h194v-934q0 -276 -149.5 -419.5t-425.5 -143.5q-289 0 -444.5 139.5t-155.5 423.5zM432 1566l211 293h191l213 -293h-173l-141 197l-143 -197h-158z" />
<glyph unicode="&#xdc;" horiz-adv-x="1478" d="M152 528v934h194v-934q0 -195 104.5 -297t301.5 -102q184 0 282.5 102.5t98.5 296.5v934h194v-934q0 -276 -149.5 -419.5t-425.5 -143.5q-289 0 -444.5 139.5t-155.5 423.5zM455 1574v213h184v-213h-184zM840 1574v213h184v-213h-184z" />
<glyph unicode="&#xdd;" horiz-adv-x="1327" d="M4 1462h232l438 -696l428 696h221l-559 -864v-598h-195v598zM538 1566l177 293h223l-269 -293h-131z" />
<glyph unicode="&#xde;" horiz-adv-x="1327" d="M160 0v1462h194v-233h447q217 0 332.5 -114t115.5 -320q0 -205 -116.5 -317.5t-331.5 -112.5h-447v-365h-194zM354 528h381q319 0 320 267q0 135 -78 202.5t-242 67.5h-381v-537z" />
<glyph unicode="&#xdf;" d="M131 0v1087q0 184 110.5 297t295.5 113q164 0 294 -95t130 -263q0 -119 -51.5 -201t-161.5 -117q133 -18 205.5 -122.5t72.5 -247.5q0 -209 -131 -342.5t-342 -133.5q-35 0 -56.5 4.5t-31.5 4.5v151q10 -2 30.5 -4t39.5 -2q139 0 223 82t84 217q0 186 -91.5 246.5 t-285.5 60.5v139q141 0 226 52.5t85 185.5q0 96 -65.5 163.5t-161.5 67.5q-119 0 -181.5 -62t-62.5 -224v-1057h-174z" />
<glyph unicode="&#xe0;" horiz-adv-x="1099" d="M74 272q0 162 92 227.5t241.5 92t274.5 49.5q106 29 106 113q0 102 -65.5 139t-169.5 37q-123 0 -193.5 -45t-70.5 -156h-174q0 182 127 268t321 86q178 0 288 -60t110 -230v-545q0 -72 8 -95.5t47 -23.5q25 0 53 10v-135q-47 -29 -125 -29q-70 0 -108.5 41t-38.5 123 q-70 -82 -166 -123t-207 -41q-158 0 -254 73t-96 224zM258 285q0 -82 57.5 -119t147.5 -37q156 0 239.5 77t83.5 163v178q-43 -31 -135 -45.5t-187 -29.5t-150.5 -56t-55.5 -131zM277 1497h223l176 -293h-131z" />
<glyph unicode="&#xe1;" horiz-adv-x="1099" d="M74 272q0 162 92 227.5t241.5 92t274.5 49.5q106 29 106 113q0 102 -65.5 139t-169.5 37q-123 0 -193.5 -45t-70.5 -156h-174q0 182 127 268t321 86q178 0 288 -60t110 -230v-545q0 -72 8 -95.5t47 -23.5q25 0 53 10v-135q-47 -29 -125 -29q-70 0 -108.5 41t-38.5 123 q-70 -82 -166 -123t-207 -41q-158 0 -254 73t-96 224zM258 285q0 -82 57.5 -119t147.5 -37q156 0 239.5 77t83.5 163v178q-43 -31 -135 -45.5t-187 -29.5t-150.5 -56t-55.5 -131zM426 1204l177 293h223l-269 -293h-131z" />
<glyph unicode="&#xe2;" horiz-adv-x="1099" d="M74 272q0 162 92 227.5t241.5 92t274.5 49.5q106 29 106 113q0 102 -65.5 139t-169.5 37q-123 0 -193.5 -45t-70.5 -156h-174q0 182 127 268t321 86q178 0 288 -60t110 -230v-545q0 -72 8 -95.5t47 -23.5q25 0 53 10v-135q-47 -29 -125 -29q-70 0 -108.5 41t-38.5 123 q-70 -82 -166 -123t-207 -41q-158 0 -254 73t-96 224zM244 1204l211 293h191l213 -293h-173l-141 197l-143 -197h-158zM258 285q0 -82 57.5 -119t147.5 -37q156 0 239.5 77t83.5 163v178q-43 -31 -135 -45.5t-187 -29.5t-150.5 -56t-55.5 -131z" />
<glyph unicode="&#xe3;" horiz-adv-x="1099" d="M74 272q0 162 92 227.5t241.5 92t274.5 49.5q106 29 106 113q0 102 -65.5 139t-169.5 37q-123 0 -193.5 -45t-70.5 -156h-174q0 182 127 268t321 86q178 0 288 -60t110 -230v-545q0 -72 8 -95.5t47 -23.5q25 0 53 10v-135q-47 -29 -125 -29q-70 0 -108.5 41t-38.5 123 q-70 -82 -166 -123t-207 -41q-158 0 -254 73t-96 224zM205 1223q29 109 77 167t138 58q37 0 70 -9t83 -32t76.5 -32t57.5 -9q37 0 60.5 26.5t33.5 63.5h107q-12 -90 -64 -164q-29 -33 -65.5 -48t-96.5 -15q-23 0 -53.5 9t-81.5 32q-55 20 -83.5 29.5t-53.5 9.5 q-37 0 -67.5 -24.5t-30.5 -61.5h-107zM258 285q0 -82 57.5 -119t147.5 -37q156 0 239.5 77t83.5 163v178q-43 -31 -135 -45.5t-187 -29.5t-150.5 -56t-55.5 -131z" />
<glyph unicode="&#xe4;" horiz-adv-x="1099" d="M74 272q0 162 92 227.5t241.5 92t274.5 49.5q106 29 106 113q0 102 -65.5 139t-169.5 37q-123 0 -193.5 -45t-70.5 -156h-174q0 182 127 268t321 86q178 0 288 -60t110 -230v-545q0 -72 8 -95.5t47 -23.5q25 0 53 10v-135q-47 -29 -125 -29q-70 0 -108.5 41t-38.5 123 q-70 -82 -166 -123t-207 -41q-158 0 -254 73t-96 224zM258 285q0 -82 57.5 -119t147.5 -37q156 0 239.5 77t83.5 163v178q-43 -31 -135 -45.5t-187 -29.5t-150.5 -56t-55.5 -131zM267 1212v213h184v-213h-184zM652 1212v213h184v-213h-184z" />
<glyph unicode="&#xe5;" horiz-adv-x="1099" d="M74 272q0 162 92 227.5t241.5 92t274.5 49.5q106 29 106 113q0 102 -65.5 139t-169.5 37q-123 0 -193.5 -45t-70.5 -156h-174q0 182 127 268t321 86q178 0 288 -60t110 -230v-545q0 -72 8 -95.5t47 -23.5q25 0 53 10v-135q-47 -29 -125 -29q-70 0 -108.5 41t-38.5 123 q-70 -82 -166 -123t-207 -41q-158 0 -254 73t-96 224zM258 285q0 -82 57.5 -119t147.5 -37q156 0 239.5 77t83.5 163v178q-43 -31 -135 -45.5t-187 -29.5t-150.5 -56t-55.5 -131zM320 1356q0 96 67.5 163.5t163.5 67.5t164 -67.5t68 -163.5t-67.5 -164t-164.5 -68 q-96 0 -163.5 68t-67.5 164zM412 1356q0 -59 40 -99t99 -40t99.5 39.5t40.5 99.5q0 59 -40 99t-100 40q-59 0 -99 -40t-40 -99z" />
<glyph unicode="&#xe6;" horiz-adv-x="1781" d="M74 272q0 162 92 227.5t235.5 92t255.5 47.5q135 31 136 127q0 76 -49.5 120t-190.5 44q-123 0 -193.5 -45t-70.5 -156h-174q0 182 127 268t321 86q119 0 215 -31.5t140 -121.5q51 80 141 116.5t196 36.5q258 0 368 -164.5t110 -441.5h-777q0 -150 82 -249t236 -99 q102 0 173 51t95 154h178q-39 -170 -159.5 -264.5t-298.5 -94.5q-135 0 -234.5 47.5t-148.5 159.5q-57 -106 -174 -156.5t-273 -50.5q-162 0 -260 73t-98 224zM258 285q0 -82 57.5 -119t147.5 -37q156 0 243 78t87 162v178q-43 -27 -138.5 -43.5t-190.5 -31.5t-150.5 -56 t-55.5 -131zM956 631h592q0 129 -79 214t-214 85q-137 0 -218 -85t-81 -214z" />
<glyph unicode="&#xe7;" horiz-adv-x="1099" d="M74 516q0 252 128 409.5t371 157.5q193 0 316 -90t141 -274h-180q-43 211 -262 211q-174 0 -252 -117t-78 -297q0 -162 77 -274.5t232 -112.5q125 0 199 66.5t92 191.5h178q-29 -188 -142.5 -299t-295.5 -111l-68 -86l5 -4q23 14 67 15q70 0 121 -39t51 -111 q0 -94 -78 -138t-176 -44q-49 0 -90 9t-98 30l37 90q35 -14 63.5 -20.5t61.5 -6.5q53 0 90 14.5t37 49.5q0 29 -28 46t-69 17q-23 0 -38 -3t-46 -13l-34 57l110 140q-209 0 -325.5 150.5t-116.5 385.5z" />
<glyph unicode="&#xe8;" horiz-adv-x="1099" d="M74 532q0 240 139 395.5t358 155.5q252 0 366 -185t114 -421h-793q0 -150 82 -249t248 -99q227 0 274 207h172q-35 -174 -152.5 -267.5t-299.5 -93.5q-248 0 -378 152t-130 405zM258 631h608q0 123 -88 211t-217 88q-133 0 -218 -87t-85 -212zM277 1497h223l176 -293 h-131z" />
<glyph unicode="&#xe9;" horiz-adv-x="1099" d="M74 532q0 240 139 395.5t358 155.5q252 0 366 -185t114 -421h-793q0 -150 82 -249t248 -99q227 0 274 207h172q-35 -174 -152.5 -267.5t-299.5 -93.5q-248 0 -378 152t-130 405zM258 631h608q0 123 -88 211t-217 88q-133 0 -218 -87t-85 -212zM426 1204l177 293h223 l-269 -293h-131z" />
<glyph unicode="&#xea;" horiz-adv-x="1099" d="M74 532q0 240 139 395.5t358 155.5q252 0 366 -185t114 -421h-793q0 -150 82 -249t248 -99q227 0 274 207h172q-35 -174 -152.5 -267.5t-299.5 -93.5q-248 0 -378 152t-130 405zM244 1204l211 293h191l213 -293h-173l-141 197l-143 -197h-158zM258 631h608q0 123 -88 211 t-217 88q-133 0 -218 -87t-85 -212z" />
<glyph unicode="&#xeb;" horiz-adv-x="1099" d="M74 532q0 240 139 395.5t358 155.5q252 0 366 -185t114 -421h-793q0 -150 82 -249t248 -99q227 0 274 207h172q-35 -174 -152.5 -267.5t-299.5 -93.5q-248 0 -378 152t-130 405zM258 631h608q0 123 -88 211t-217 88q-133 0 -218 -87t-85 -212zM267 1212v213h184v-213 h-184zM652 1212v213h184v-213h-184z" />
<glyph unicode="&#xec;" horiz-adv-x="454" d="M-47 1497h223l176 -293h-131zM141 0v1059h174v-1059h-174z" />
<glyph unicode="&#xed;" horiz-adv-x="454" d="M102 1204l177 293h223l-269 -293h-131zM141 0v1059h174v-1059h-174z" />
<glyph unicode="&#xee;" horiz-adv-x="454" d="M-80 1204l211 293h191l213 -293h-173l-141 197l-143 -197h-158zM141 0v1059h174v-1059h-174z" />
<glyph unicode="&#xef;" horiz-adv-x="454" d="M-57 1212v213h184v-213h-184zM141 0v1059h174v-1059h-174zM328 1212v213h184v-213h-184z" />
<glyph unicode="&#xf1;" d="M131 0v1059h164v-168q57 98 144 145t204 47q197 0 281 -101t84 -286v-696h-174v717q0 98 -57.5 155.5t-158.5 57.5q-154 0 -233.5 -91t-79.5 -241v-598h-174zM223 1223q29 109 77 167t138 58q37 0 70 -9t83 -32t76.5 -32t57.5 -9q37 0 60.5 26.5t33.5 63.5h107 q-12 -90 -64 -164q-29 -33 -65.5 -48t-96.5 -15q-23 0 -53.5 9t-81.5 32q-55 20 -83.5 29.5t-53.5 9.5q-37 0 -67.5 -24.5t-30.5 -61.5h-107z" />
<glyph unicode="&#xf2;" horiz-adv-x="1175" d="M74 528q0 242 135 398.5t379 156.5t379 -155.5t135 -399.5q0 -242 -135.5 -397.5t-378.5 -155.5q-244 0 -379 156t-135 397zM258 528q0 -186 94.5 -292.5t235.5 -106.5q143 0 236.5 105.5t93.5 293.5q0 186 -94.5 294t-235.5 108q-143 0 -236.5 -105.5t-93.5 -296.5z M313 1497h223l176 -293h-131z" />
<glyph unicode="&#xf3;" horiz-adv-x="1175" d="M74 528q0 242 135 398.5t379 156.5t379 -155.5t135 -399.5q0 -242 -135.5 -397.5t-378.5 -155.5q-244 0 -379 156t-135 397zM258 528q0 -186 94.5 -292.5t235.5 -106.5q143 0 236.5 105.5t93.5 293.5q0 186 -94.5 294t-235.5 108q-143 0 -236.5 -105.5t-93.5 -296.5z M462 1204l177 293h223l-269 -293h-131z" />
<glyph unicode="&#xf4;" horiz-adv-x="1175" d="M74 528q0 242 135 398.5t379 156.5t379 -155.5t135 -399.5q0 -242 -135.5 -397.5t-378.5 -155.5q-244 0 -379 156t-135 397zM258 528q0 -186 94.5 -292.5t235.5 -106.5q143 0 236.5 105.5t93.5 293.5q0 186 -94.5 294t-235.5 108q-143 0 -236.5 -105.5t-93.5 -296.5z M280 1204l211 293h191l213 -293h-173l-141 197l-143 -197h-158z" />
<glyph unicode="&#xf5;" horiz-adv-x="1175" d="M74 528q0 242 135 398.5t379 156.5t379 -155.5t135 -399.5q0 -242 -135.5 -397.5t-378.5 -155.5q-244 0 -379 156t-135 397zM241 1223q29 109 77 167t138 58q37 0 70 -9t83 -32t76.5 -32t57.5 -9q37 0 60.5 26.5t33.5 63.5h107q-12 -90 -64 -164q-29 -33 -65.5 -48 t-96.5 -15q-23 0 -53.5 9t-81.5 32q-55 20 -83.5 29.5t-53.5 9.5q-37 0 -67.5 -24.5t-30.5 -61.5h-107zM258 528q0 -186 94.5 -292.5t235.5 -106.5q143 0 236.5 105.5t93.5 293.5q0 186 -94.5 294t-235.5 108q-143 0 -236.5 -105.5t-93.5 -296.5z" />
<glyph unicode="&#xf6;" horiz-adv-x="1175" d="M74 528q0 242 135 398.5t379 156.5t379 -155.5t135 -399.5q0 -242 -135.5 -397.5t-378.5 -155.5q-244 0 -379 156t-135 397zM258 528q0 -186 94.5 -292.5t235.5 -106.5q143 0 236.5 105.5t93.5 293.5q0 186 -94.5 294t-235.5 108q-143 0 -236.5 -105.5t-93.5 -296.5z M303 1212v213h184v-213h-184zM688 1212v213h184v-213h-184z" />
<glyph unicode="&#xf7;" horiz-adv-x="1228" d="M98 449v139h1032v-139h-1032zM483 96q0 53 39 92t92 39t92 -38.5t39 -92.5q0 -49 -38.5 -90t-90.5 -41q-53 0 -93 38t-40 93zM483 940q0 53 39 92t92 39t92 -39t39 -92q0 -49 -38.5 -90t-90.5 -41q-53 0 -93 38t-40 93z" />
<glyph unicode="&#xf8;" horiz-adv-x="1175" d="M70 4l127 141q-123 152 -123 383q0 242 135 398.5t379 156.5q211 0 344 -120l119 133l55 -54l-123 -135q119 -147 119 -379q0 -242 -135.5 -397.5t-378.5 -155.5q-102 0 -187.5 30t-150.5 87l-123 -137zM258 528q0 -141 61 -247l496 553q-90 96 -227 96 q-143 0 -236.5 -105.5t-93.5 -296.5zM365 221q92 -92 223 -92q143 0 236.5 105.5t93.5 293.5q0 143 -58 244z" />
<glyph unicode="&#xf9;" d="M131 362v697h174v-717q0 -98 57.5 -155.5t157.5 -57.5q154 0 234 91t80 241v598h174v-1059h-164v168q-57 -98 -144.5 -145.5t-203.5 -47.5q-197 0 -281 101.5t-84 285.5zM295 1497h223l176 -293h-131z" />
<glyph unicode="&#xfa;" d="M131 362v697h174v-717q0 -98 57.5 -155.5t157.5 -57.5q154 0 234 91t80 241v598h174v-1059h-164v168q-57 -98 -144.5 -145.5t-203.5 -47.5q-197 0 -281 101.5t-84 285.5zM444 1204l177 293h223l-269 -293h-131z" />
<glyph unicode="&#xfb;" d="M131 362v697h174v-717q0 -98 57.5 -155.5t157.5 -57.5q154 0 234 91t80 241v598h174v-1059h-164v168q-57 -98 -144.5 -145.5t-203.5 -47.5q-197 0 -281 101.5t-84 285.5zM262 1204l211 293h191l213 -293h-173l-141 197l-143 -197h-158z" />
<glyph unicode="&#xfc;" d="M131 362v697h174v-717q0 -98 57.5 -155.5t157.5 -57.5q154 0 234 91t80 241v598h174v-1059h-164v168q-57 -98 -144.5 -145.5t-203.5 -47.5q-197 0 -281 101.5t-84 285.5zM285 1212v213h184v-213h-184zM670 1212v213h184v-213h-184z" />
<glyph unicode="&#xfd;" horiz-adv-x="1024" d="M16 1059h197l309 -866l301 866h185l-461 -1200q-61 -160 -127 -221.5t-180 -61.5q-45 0 -64.5 3t-56.5 15v160q25 -8 50.5 -16t51.5 -8q51 0 84 23.5t60 72.5l71 180zM387 1204l177 293h223l-269 -293h-131z" />
<glyph unicode="&#xfe;" horiz-adv-x="1214" d="M137 -406v1868h174v-547q43 84 136.5 126t205.5 42q231 0 359.5 -159.5t128.5 -397.5t-125 -394.5t-359 -156.5q-98 0 -192 39t-150 127l-4 -547h-174zM305 530q0 -172 82 -286.5t252 -114.5q166 0 241.5 116.5t75.5 293.5q0 164 -82.5 277.5t-244.5 113.5 q-164 0 -244 -116t-80 -284z" />
<glyph unicode="&#xff;" horiz-adv-x="1024" d="M16 1059h197l309 -866l301 866h185l-461 -1200q-61 -160 -127 -221.5t-180 -61.5q-45 0 -64.5 3t-56.5 15v160q25 -8 50.5 -16t51.5 -8q51 0 84 23.5t60 72.5l71 180zM228 1212v213h184v-213h-184zM613 1212v213h184v-213h-184z" />
<glyph unicode="&#x152;" horiz-adv-x="2199" d="M78 727q0 340 183 555t503 215q113 0 216 -40t144 -116l4 121h977v-164h-782v-464h717v-164h-717v-506h795v-164h-990v141q-55 -84 -158.5 -130t-221.5 -46q-315 0 -492.5 213t-177.5 549zM272 719q0 -258 128 -424t362 -166q158 0 262 81t104 208v616q0 55 -4 81 t-37.5 78t-120.5 96t-200 44q-238 0 -366 -175t-128 -439z" />
<glyph unicode="&#x153;" horiz-adv-x="1824" d="M74 530q0 246 121.5 399.5t359.5 153.5q135 0 226 -41t141 -145q53 90 155.5 138t218.5 48q248 0 360.5 -165.5t112.5 -440.5h-768q0 -150 78 -249t228 -99q104 0 180 53.5t106 153.5h166q-104 -360 -452 -361q-145 0 -240.5 48.5t-144.5 160.5q-47 -109 -142.5 -159 t-224.5 -50q-238 0 -359.5 157t-121.5 398zM258 508q0 -152 74 -265.5t223 -113.5q160 0 227.5 115.5t67.5 287.5q0 174 -64.5 286t-230.5 112q-154 0 -225.5 -123t-71.5 -299zM1001 631h584q0 137 -76.5 218t-212.5 81q-133 0 -214 -83t-81 -216z" />
<glyph unicode="&#x178;" horiz-adv-x="1327" d="M4 1462h232l438 -696l428 696h221l-559 -864v-598h-195v598zM379 1574v213h184v-213h-184zM764 1574v213h184v-213h-184z" />
<glyph unicode="&#x2000;" horiz-adv-x="974" />
<glyph unicode="&#x2001;" horiz-adv-x="1949" />
<glyph unicode="&#x2002;" horiz-adv-x="974" />
<glyph unicode="&#x2003;" horiz-adv-x="1949" />
<glyph unicode="&#x2004;" horiz-adv-x="649" />
<glyph unicode="&#x2005;" horiz-adv-x="487" />
<glyph unicode="&#x2006;" horiz-adv-x="324" />
<glyph unicode="&#x2007;" horiz-adv-x="324" />
<glyph unicode="&#x2008;" horiz-adv-x="243" />
<glyph unicode="&#x2009;" horiz-adv-x="389" />
<glyph unicode="&#x200a;" horiz-adv-x="108" />
<glyph unicode="&#x2010;" horiz-adv-x="796" d="M102 487v164h592v-164h-592z" />
<glyph unicode="&#x2011;" horiz-adv-x="796" d="M102 487v164h592v-164h-592z" />
<glyph unicode="&#x2012;" horiz-adv-x="796" d="M102 487v164h592v-164h-592z" />
<glyph unicode="&#x2013;" horiz-adv-x="1024" d="M0 487v164h1024v-164h-1024z" />
<glyph unicode="&#x2014;" horiz-adv-x="2048" d="M0 487v164h2048v-164h-2048z" />
<glyph unicode="&#x2018;" horiz-adv-x="569" d="M172 934v227q0 131 56.5 216t168.5 85v-102q-63 0 -90.5 -57.5t-27.5 -141.5h120v-227h-227z" />
<glyph unicode="&#x2019;" horiz-adv-x="569" d="M170 1235v227h227v-227q0 -131 -56 -216t-169 -85v102q63 0 91 57.5t28 141.5h-121z" />
<glyph unicode="&#x201a;" horiz-adv-x="569" d="M170 0v227h227v-227q0 -131 -56 -216t-169 -85v102q63 0 91 57.5t28 141.5h-121z" />
<glyph unicode="&#x201c;" horiz-adv-x="872" d="M135 934v227q0 131 56.5 216t168.5 85v-102q-63 0 -90.5 -57.5t-27.5 -141.5h120v-227h-227zM510 934v227q0 131 56.5 216t168.5 85v-102q-63 0 -91 -57.5t-28 -141.5h121v-227h-227z" />
<glyph unicode="&#x201d;" horiz-adv-x="872" d="M135 1235v227h227v-227q0 -131 -56 -216t-169 -85v102q63 0 91 57.5t28 141.5h-121zM510 1235v227h227v-227q0 -131 -56 -216t-169 -85v102q63 0 91 57.5t28 141.5h-121z" />
<glyph unicode="&#x201e;" horiz-adv-x="872" d="M135 0v227h227v-227q0 -131 -56 -216t-169 -85v102q63 0 91 57.5t28 141.5h-121zM510 0v227h227v-227q0 -131 -56 -216t-169 -85v102q63 0 91 57.5t28 141.5h-121z" />
<glyph unicode="&#x2022;" horiz-adv-x="1024" d="M147 731q0 152 106.5 258.5t258.5 106.5t259.5 -105.5t107.5 -259.5t-106.5 -260t-260.5 -106q-152 0 -258.5 106.5t-106.5 259.5z" />
<glyph unicode="&#x2026;" horiz-adv-x="2048" d="M227 0v227h228v-227h-228zM909 0v227h228v-227h-228zM1591 0v227h228v-227h-228z" />
<glyph unicode="&#x202f;" horiz-adv-x="389" />
<glyph unicode="&#x2039;" horiz-adv-x="530" d="M102 479v180l312 246v-176l-205 -160l205 -159v-177z" />
<glyph unicode="&#x203a;" horiz-adv-x="530" d="M117 233v177l205 159l-205 160v176l311 -246v-180z" />
<glyph unicode="&#x205f;" horiz-adv-x="487" />
<glyph unicode="&#x2122;" horiz-adv-x="2027" d="M131 1350v112h668v-112h-264v-732h-140v732h-264zM971 618v844h215l252 -641l248 641h212v-844h-139v705l-280 -705h-88l-277 705l-4 -705h-139z" />
<glyph unicode="&#x25fc;" horiz-adv-x="1054" d="M0 0v1055h1055v-1055h-1055z" />
</font>
</defs>
</svg>
